<svg width="724" height="843" fill="none" xmlns="http://www.w3.org/2000/svg"><g clip-path="url(#clip0_110_33)" fill="#fff" fill-opacity=".09"><path d="M722.017 714.669c-.085-.042-.295-.084-.295-.212 0-8.685-.043-17.371-.043-26.056l-.126-51.689-.127-58.934-.126-62.663-.127-62.578-.127-61.73-.126-61.265-.127-59.739-.126-53.511c0-5.762-.042-11.524-.042-17.286v-.085c0-.085.126-.169.21-.169.211-.085.422-.085.633-.085.169 0 .38 0 .549.085.084.042.295.084.295.212 0 16.142.085 32.284.085 48.384l.126 59.188.127 59.74.126 61.561.127 62.789.126 62.154.127 60.672.127 56.9c.042 11.524.042 23.048.084 34.573 0 3.177 0 6.355.042 9.532 0 .085-.126.17-.211.17-.211.085-.422.085-.633.085-.211 0-.379 0-.548-.043z"/><path d="M247.893 223.071c-.127-.042-.38-.169-.38-.466 0-.211.169-.296.253-.381.254-.169.591-.212.844-.212 5.148 0 10.295-.042 15.485-.042 4.641 0 9.283-.127 13.924-.17 15.485-.127 30.97-.296 46.497-.381l50.842-.254c16.498-.085 32.995-.127 49.493-.17l51.222-.127c19.24-.042 38.48-.127 57.72-.169l53.037-.127c18.059-.043 36.16-.085 54.218-.17 18.481-.042 36.962-.085 55.442-.169 5.443 0 10.844-.043 16.287-.043h5.907c.548 0 1.097-.042 1.645.085.338.085.76.17 1.055.466l.211.212c.127.169.127.339.127.593 0 .381-.338.593-.464.678-.38.254-.802.297-1.182.339a3.9 3.9 0 01-1.392-.127h-4.852c-3.418 0-6.794 0-10.211.042-9.325.043-18.65.043-27.974.085-18.228.042-36.455.085-54.683.169l-52.572.128c-18.439.042-36.835.084-55.273.169l-53.459.127-51.644.127c-16.92.043-33.839.085-50.716.085-17.215 0-34.43.042-51.603 0-12.7-.042-25.358-.085-38.058-.169-6.329-.043-12.7 0-19.029.042-.253 0-.464-.042-.717-.17zm455.306 72.958H307.681c-11.73 0-23.46-.042-35.232-.084-5.822-.043-11.645 0-17.425-.17h-.591c-.633 0-1.266-.042-1.899-.085h-4.937c-.253 0-.464 0-.717-.084-.126-.043-.38-.085-.38-.255 0-.127.169-.211.254-.211.253-.085.548-.127.843-.127h4.937a44.93 44.93 0 012.405-.085c5.021-.127 10-.127 15.021-.127 3.924 0 7.848-.043 11.73-.043 14.809-.042 29.619-.042 44.429 0h394.126c.591 0 1.223.043 1.73.255.168.084.464.169.464.423 0 .212-.296.339-.464.424-.633.254-1.35.254-2.026.254h-7.721c-2.953-.085-5.991-.085-9.029-.085zm-455.348-55.417a3.71 3.71 0 01-.675-.085c-.127-.042-.38-.085-.38-.254 0-.127.169-.212.253-.212.253-.085.549-.127.844-.127 9.029-.042 18.059-.042 27.088-.085 4.683 0 9.325-.085 14.008-.127 7.046-.042 14.135-.085 21.181-.085l33.164-.127v.932c-7.342 0-14.641.043-21.983.043-13.375.042-26.708.084-40.083.042-2.152 0-4.346-.042-6.498 0-2.363 0-4.726 0-7.089.042-4.894 0-9.746.043-14.641.043h-5.189zm108.436-.678v-.466c4.726 0 9.451-.043 14.219-.043 15.19-.042 30.379-.127 45.569-.169 3.966 0 7.932-.043 11.898-.043 0 .339-.042.636-.042.975h-.591l-45.062.127c-8.65.042-17.257.042-25.907.085-.084-.127-.084-.297-.084-.466zm82.446-.72c9.957-.043 19.915-.085 29.872-.085 15.527-.042 31.097-.127 46.666-.17h1.772c0 .339-.042.721-.042 1.06-12.025.042-24.05.042-36.075.084l-42.193.128c-.043-.382 0-.678 0-1.017zm89.871-.297l41.56-.127 49.788-.127h.211c-.043.339-.043.72-.085 1.059l-38.733.127c-15.696.042-31.392.127-47.045.169h-5.654c0-.381-.042-.762-.042-1.101zm102.233-.042v-.255l36.371-.127c13.375-.042 26.708-.127 40.083-.127h4.22c.379 0 .801 0 1.181.043.169.042.38.042.549.127.084.042.253.084.295.212.126.338-.464.466-.633.508-.549.085-1.097.085-1.646.085h-4.134c-2.743 0-5.486.042-8.228.042-7.004.042-14.008.042-20.97.085l-40.801.127c-2.067 0-4.135 0-6.202.042-.042-.254-.085-.508-.085-.762z"/><path d="M720.709 447.834h-.084c-2.363-.042-4.726 0-7.089 0h-35.189c-17.172 0-34.387 0-51.56-.042-18.227 0-36.455-.043-54.724-.043-17.595 0-35.189-.042-52.784-.042-18.016 0-36.033-.042-54.049-.042-16.287 0-32.615-.043-48.902-.043-16.877 0-33.712-.042-50.59-.084-15.991-.043-31.982-.043-47.931-.085l-45.864-.127h-23.164c-.253 0-.506 0-.717-.085-.127-.042-.38-.085-.38-.254 0-.127.169-.17.253-.212.253-.085.549-.127.844-.127h17.637c7.088 0 14.177.042 21.265 0 15.358-.043 30.717-.043 46.075-.043h51.18c16.498 0 32.995 0 49.493.043 16.751 0 33.543.042 50.294.042 17.721 0 35.4.043 53.121.043 18.27 0 36.582.042 54.851.042 17.384 0 34.725.042 52.109.042 16.413 0 32.826.043 49.239.085 5.612 0 11.223 0 16.835.042h5.781c1.35 0 2.658.043 4.008 0h.042c.169-.042.38-.042.549-.042h.168c.254 0 .507.042.76.127.084.043.211.085.295.127.127.043.211.127.211.254 0 .043-.042.085-.084.17-.211.212-.591.254-.886.254-.169 0-.338.043-.507.043-.21-.043-.379-.043-.506-.043z" stroke="#fff" stroke-opacity=".09" stroke-miterlimit="10"/><path d="M316.457 546.976c-13.755 0-27.51-.042-41.265 0h-8.819c-.253 0-.464 0-.717-.084-.126-.043-.38-.085-.38-.255 0-.127.169-.169.254-.211.253-.085.548-.127.843-.127 11.013 0 22.025-.043 33.08-.085 15.611-.043 31.223-.127 46.876-.127 16.034-.043 32.067-.043 48.143-.085 15.569 0 31.138-.042 46.707-.085 15.106-.042 30.169-.042 45.274-.085 16.582-.042 33.163-.042 49.703-.084 16.076-.043 32.151-.043 48.227-.085 17.594-.042 35.231-.042 52.826-.085 13.797-.042 27.594-.042 41.391-.042 11.519 0 23.038 0 34.556-.042 2.574 0 5.148-.043 7.722-.043h.59c.296 0 .591 0 .886.043.211.042.591.084.675.296.211.424-.97.509-1.181.509-.337.042-.633 0-.97 0-4.177-.043-8.312-.043-12.49-.043-6.455 0-12.953.043-19.408.043-12.532.042-25.063.042-37.552.084-15.949.043-31.898.043-47.847.085-17.215.042-34.388.042-51.602.085-16.625.042-33.249.042-49.873.084-15.231.043-30.463.043-45.737.043-15.611 0-31.223.042-46.834.085-15.274.042-30.548.042-45.822.084-12.827 0-25.696.043-38.522.043-2.912.084-5.823.084-8.734.084zm26.834-253.446c-.126-.043-.379-.085-.379-.254l.126-12.33.127-13.642.126-13.77.127-13.346.127-13.092c0-.974 0-1.948.042-2.923 0-.127.168-.169.253-.212.253-.085.591-.085.844-.085s.506.043.717.085c.127.043.38.085.38.254l-.127 12.753-.126 13.219-.127 13.6-.127 13.685-.126 13.092v2.712c0 .127-.169.169-.253.211-.253.085-.591.085-.844.085a2.16 2.16 0 01-.76-.042zm84.808.423c-.126-.042-.379-.085-.379-.254 0-4.11.042-8.219.042-12.329.042-4.576.042-9.152.042-13.727.042-4.619.042-9.237.042-13.813 0-4.533.042-9.066.042-13.6 0-4.575.043-9.151.043-13.727V224.3c0-.127.168-.17.253-.212.253-.085.591-.127.844-.127s.506 0 .717.085c.127.042.422.084.38.254-.042 4.491-.042 8.982-.042 13.473 0 4.533-.043 9.067-.043 13.6 0 4.661-.042 9.279-.042 13.939-.042 4.576-.042 9.194-.042 13.77 0 4.152-.042 8.262-.042 12.414v2.203c0 .127-.169.169-.253.212a2.91 2.91 0 01-.844.127c-.253 0-.507 0-.718-.085zm89.07 1.61c-.084-.042-.253-.084-.295-.254v-.72c0-4.025 0-8.05.042-12.075 0-4.533 0-9.025.042-13.558 0-4.618 0-9.279.043-13.939 0-4.661 0-9.279.042-13.939 0-4.703 0-9.364.042-14.066v-3.22c0-.128.127-.17.169-.212a1.34 1.34 0 01.59-.127c.169 0 .338 0 .507.084.084.043.253.085.295.255v13.515c0 4.703 0 9.406-.042 14.151 0 4.576 0 9.194-.042 13.77 0 4.66 0 9.278-.042 13.939 0 4.321 0 8.643-.043 12.922v3.178c0 .127-.126.169-.168.212-.169.084-.38.127-.591.127-.211.042-.38 0-.549-.043zm102.825-.381c-.126-.042-.422-.085-.38-.254v-.043l.127-12.964c.042-4.618.084-9.236.169-13.855.042-4.745.126-9.448.169-14.193.042-4.703.084-9.406.168-14.066.043-4.618.085-9.194.169-13.812 0-.975.042-1.949.042-2.924 0-.127.169-.169.253-.211a2.91 2.91 0 01.844-.128c.253 0 .507 0 .718.085.126.043.422.085.379.254-.042 4.534-.084 9.11-.168 13.643-.043 4.66-.127 9.321-.169 14.024-.042 4.703-.127 9.363-.169 14.066-.042 4.703-.127 9.406-.169 14.066-.042 4.364-.084 8.728-.169 13.092 0 .932 0 1.864-.042 2.796v.127c0 .128-.168.17-.253.212a2.904 2.904 0 01-.844.127 1.217 1.217 0 01-.675-.042zm91.812.72c-.126-.042-.422-.084-.38-.254.043-4.237.043-8.474.085-12.753l.126-14.32a69994.765 69994.765 0 00.254-29.319l.126-14.363c0-1.017 0-2.076.042-3.093 0-.127.169-.169.253-.211a2.91 2.91 0 01.844-.128c.254 0 .507 0 .718.085.126.043.422.085.379.254-.042 4.661-.084 9.279-.084 13.939a73109.207 73109.207 0 01-.253 29.404l-.127 14.405c-.042 4.491-.084 8.982-.084 13.431 0 .89 0 1.822-.042 2.712 0 .127-.169.169-.253.211a2.91 2.91 0 01-.844.127c-.296-.042-.507-.084-.76-.127zm-82.445.043c-.085 0-.296-.085-.296-.17 0-3.05 0-6.059.043-9.109 0-3.262 0-6.525.042-9.745 0-3.22 0-6.482.042-9.702 0-3.305 0-6.567.042-9.872 0-3.305 0-6.567.042-9.872 0-3.304 0-6.567.043-9.871 0-3.348 0-6.652.042-9.999v-4.83c0-.085.126-.127.211-.17.211-.084.422-.084.633-.084.168 0 .337-.001.506.042.084 0 .295.085.295.169v.085c0 3.22-.042 6.482-.042 9.745 0 3.304 0 6.652-.042 9.956 0 3.305 0 6.61-.042 9.914 0 3.263 0 6.568-.042 9.83 0 3.262 0 6.525-.043 9.787 0 3.262 0 6.525-.042 9.745 0 3.135 0 6.228-.042 9.363v4.576c0 .084-.127.127-.211.169-.211.085-.422.085-.633.085-.169 0-.337 0-.506-.042zM527 295.563c-.084 0-.295-.084-.295-.169 0-2.966.042-5.889.042-8.855 0-3.22.042-6.398.042-9.618.043-3.304.043-6.609.043-9.956.042-3.347.042-6.694.042-10.041 0-3.432.042-6.864.042-10.296 0-3.389.042-6.779.042-10.168 0-3.39.042-6.779.042-10.169v-3.686c0-.084.127-.127.211-.169.211-.085.422-.085.633-.085.169 0 .338 0 .507.042.084 0 .295.085.295.17-.042 3.262-.042 6.567-.042 9.829 0 3.432-.042 6.864-.042 10.253 0 3.39-.043 6.737-.043 10.126-.042 3.39-.042 6.822-.042 10.211 0 3.347-.042 6.694-.042 10.041 0 3.22-.042 6.44-.042 9.66 0 3.093-.042 6.186-.042 9.237v3.389c0 .085-.127.127-.211.17-.211.084-.422.084-.633.084a1.012 1.012 0 01-.507 0zm-88.141.339c-.085-.042-.296-.084-.296-.211v-9.576c0-3.347 0-6.694.043-10.041 0-3.474.042-6.948.042-10.422 0-3.559 0-7.076.042-10.635 0-3.474 0-6.948.042-10.465 0-3.516 0-7.033.042-10.507 0-3.432 0-6.906.043-10.338v-1.229c0-.084.126-.127.211-.169.211-.085.422-.085.632-.085.169 0 .338 0 .507.042.084.043.295.085.295.212 0 3.347 0 6.737-.042 10.084 0 3.474 0 6.991-.042 10.465 0 3.474 0 6.948-.042 10.422 0 3.517 0 7.034-.043 10.55 0 3.517 0 7.033-.042 10.55 0 3.389 0 6.779-.042 10.168 0 3.22 0 6.483-.042 9.703v1.313c0 .085-.127.127-.211.169-.211.085-.422.085-.633.085a2.13 2.13 0 01-.464-.085zm-83.711-.72c-.085-.042-.296-.085-.296-.17v-.805c0-2.626-.042-5.211-.042-7.838 0-3.262-.042-6.524-.042-9.744 0-3.263-.042-6.567-.042-9.83 0-3.262-.042-6.567-.042-9.829 0-3.305-.042-6.652-.042-9.957 0-3.347-.043-6.694-.043-10.041 0-3.305-.042-6.609-.042-9.957v-3.516c0-.085.127-.127.211-.17.211-.084.422-.084.633-.084.169 0 .338 0 .506.042.085.042.296.085.296.17 0 3.22.042 6.44.042 9.66 0 3.347.042 6.694.042 10.041 0 3.305.042 6.609.042 9.914 0 3.347.042 6.694.042 10.041 0 3.263.043 6.525.043 9.787 0 3.305.042 6.567.042 9.872 0 3.051.042 6.101.042 9.152v3.05c0 .085-.127.127-.211.17-.211.084-.422.084-.633.084-.126 0-.337 0-.506-.042zm51.475 151.932c-.084 0-.295-.085-.295-.169l.127-16.736.126-17.752c.042-6.271.085-12.499.169-18.769.042-6.228.084-12.499.169-18.727.042-6.228.084-12.499.169-18.727.042-6.355.084-12.71.168-19.066.043-6.355.085-12.71.169-19.023.042-6.143.085-12.329.169-18.472v-1.483c0-.085.127-.127.169-.17.211-.084.422-.084.633-.084.168 0 .337 0 .506.042.084 0 .295.085.295.169v1.144l-.126 17.371c-.043 6.356-.085 12.668-.169 19.024-.042 6.312-.084 12.668-.169 18.981-.042 6.228-.084 12.498-.169 18.726-.042 6.228-.084 12.414-.168 18.642-.043 6.271-.085 12.541-.169 18.812l-.127 17.964-.126 17.159v.975c0 .084-.127.127-.211.169-.211.085-.422.085-.633.085-.169-.043-.338-.043-.507-.085zm-59.956.89c-.211-.043-.464-.043-.633-.17l-.042-.042a.384.384 0 01-.127-.297c0-.169 0-.339-.042-.508 0-.381 0-.763-.042-1.144 0-.678-.042-1.398-.042-2.076-.043-1.568-.043-3.093-.085-4.66-.042-3.051-.042-6.144-.084-9.194-.042-5.847 0-11.736-.042-17.583-.043-5.932-.043-11.906-.085-17.837v-18.388c0-6.355 0-12.668.042-19.023 0-3.093.043-6.228.043-9.321 0-1.568.042-3.178.042-4.746 0-1.567 0-3.177-.042-4.745-.043-6.27-.043-12.583-.085-18.854-.042-6.228-.042-12.456-.084-18.684v-2.669c0-.085.126-.127.211-.17.211-.084.422-.084.633-.084.169 0 .337 0 .506.042.084.042.295.085.295.169.043 6.059.085 12.118.085 18.176.042 6.356.084 12.668.084 19.024 0 3.135 0 6.27.085 9.405.042 3.136.126 6.313.168 9.449l.254 18.642c.084 6.27.126 12.541.168 18.811l.127 17.752c.042 5.847.084 11.694.169 17.583.042 6.101.042 12.202 0 18.303v2.458c0 .084-.085.169-.169.254-.085.084-.338.127-.464.169-.169.043-.338.043-.507.043-.084-.043-.211-.043-.337-.085z"/><path d="M267.006 298.402c-3.67 0-7.383 0-11.054-.042-1.604 0-3.207-.042-4.81-.085-1.435-.042-2.827-.042-4.262-.042h-.295c-.169 0-.338 0-.506-.042-.085-.043-.296-.085-.296-.212 0-.085.127-.127.169-.17.211-.085.422-.085.633-.085h2.531c1.097 0 2.152-.042 3.249-.084 2.068-.043 4.135-.085 6.203-.085 5.063-.042 10.126-.085 15.147-.085 16.582-.042 33.206-.084 49.788-.084 16.962-.043 33.965-.043 50.927-.085 18.016-.043 36.033-.043 54.049-.085 18.312-.042 36.624-.042 54.936-.085 18.945-.042 37.931-.042 56.876-.084 16.709-.043 33.417-.043 50.126-.085 17.046-.043 34.134-.043 51.18-.085 17.046-.042 34.092-.042 51.18-.085 7.975 0 15.949-.042 23.924-.042h2.7c.337 0 .675.042.97.127.169.042.549.127.549.381 0 .17-.253.255-.338.297-.379.127-.759.169-1.181.169-12.911.043-25.864.043-38.776.043-16.16.042-32.277.042-48.437.085-17.595.042-35.189.042-52.784.084-16.877.043-33.754.043-50.632.085-19.282.042-38.564.042-57.846.085-17.764.042-35.485.042-53.248.085-17.637.042-35.273.042-52.91.084-17.553.043-35.105.043-52.657.085-13.038.042-26.076.042-39.113.042h-5.992z"/><path d="M472.065 448.258c-.085-.042-.296-.085-.296-.212v-33.513c0-6.355.043-12.668 0-19.023-.042-6.313-.042-12.668 0-18.981 0-6.356.043-12.711.043-19.024.042-6.355.042-12.668.042-19.023v-40.419c0-.085.126-.127.211-.17.211-.084.422-.084.633-.084.168 0 .337 0 .506.042.084.042.295.085.295.212v37.326c0 6.313-.042 12.668 0 18.981.043 6.355.043 12.753.043 19.108s0 12.711-.043 19.066c-.042 6.27-.042 12.583-.042 18.854v36.606c0 .085-.126.127-.211.169-.211.085-.422.085-.633.085a1.207 1.207 0 01-.548 0zm48.269-1.229c-.169 0-.38 0-.549-.042-.042 0-.126-.042-.169-.042-.084-.043-.126-.085-.126-.127v-16.185c0-6.059.042-12.117.042-18.176 0-6.143.042-12.287.042-18.388 0-6.313.042-12.626.042-18.938 0-6.271.043-12.541.043-18.812 0-6.313.042-12.626.042-18.938 0-6.44.042-12.838.042-19.278 0-6.101.042-12.244.042-18.345v-1.483c0-.085.127-.127.211-.17.211-.085.422-.084.633-.084.169 0 .338-.001.506.042.085.042.296.085.296.212 0 6.058 0 12.117-.043 18.218 0 6.398-.042 12.753-.042 19.15 0 6.271-.042 12.541-.042 18.812 0 6.27-.042 12.541-.042 18.811 0 6.313-.042 12.584-.042 18.897 0 6.185-.043 12.329-.043 18.515 0 6.058-.042 12.074-.042 18.133 0 5.635 0 11.27-.042 16.905v.847c0 .085.042.17 0 .255 0 .042-.042.084-.084.127-.042 0-.085.042-.085.042-.126 0-.379.042-.59.042z"/><path d="M475.82 348.693c-.337 0-.717 0-1.055-.042-.337 0-.717-.042-1.055-.17a.883.883 0 01-.21-.127c-.043-.084.042-.169.126-.212a1.65 1.65 0 01.76-.169c.253-.042.506-.042.759-.085.464-.042.886-.042 1.35-.084l3.249-.128c2.068-.042 4.177-.127 6.245-.169 4.346-.127 8.649-.212 12.995-.339 4.304-.127 8.565-.212 12.869-.339 2.658-.085 5.359-.127 8.017-.212.295 0 .633.043.97.127.169.043.507.127.507.382 0 .169-.211.254-.338.296-.338.127-.76.17-1.139.17-4.177.084-8.354.211-12.574.296-4.261.127-8.565.212-12.826.297-4.262.085-8.524.212-12.785.296-1.35.043-2.658.085-4.008.085h-1.14c-.211.127-.464.127-.717.127zm25.611 4.364c-7.89-.211-15.822.085-23.712-.508-1.519-.127-4.599-.678-1.097-1.059.253-.043 1.35.169.675.423 6.118.339 12.278.085 18.396.17 7.806.212 15.654-.085 23.417.127.464.085.929.424.211.678a4.34 4.34 0 01-1.265.169l-8.481.128a262.242 262.242 0 00-8.144-.128zm-27.847 41.52c-.084-.042-.295-.042-.337-.169-.085-.254.506-.297.59-.297h1.604c2.151-.084 4.303-.084 6.455-.127 2.068-.042 4.177-.042 6.245-.084 1.898-.043 3.797-.043 5.569-.043h4.684c4.388-.042 8.776-.042 13.164-.042 2.067 0 4.093 0 6.16-.043h.717c.253 0 .464.043.675.085.169.043.549.127.633.339.211.424-.97.509-1.097.509h-1.055c-3.67 0-7.341.042-11.012.042-4.304 0-8.607 0-12.911.042-4.219 0-8.481 0-12.7-.042-2.321-.042-4.599-.085-6.92-.085h-.084c-.127-.042-.253-.042-.38-.085zm-1.899 4.873c-.084-.042-.295-.042-.337-.169-.085-.254.506-.254.59-.297a75.43 75.43 0 013.08-.084l3.123-.127c2.067-.085 4.177-.212 6.244-.297 4.093-.169 8.186-.297 12.236-.424 4.22-.127 8.439-.254 12.658-.423 3.122-.085 6.245-.212 9.409-.297.296 0 .633 0 .929.085.168.042.548.127.632.339.085.169-.084.254-.168.339-.296.169-.633.211-.929.211-3.881.128-7.805.255-11.687.339l-12.531.382c-4.093.127-8.186.212-12.321.296-2.067.043-4.135.085-6.118.085h-.211c-1.35 0-2.7.085-4.05.127h-.127c-.169-.042-.295-.085-.422-.085zm151.684 46.267c-.084 0-.253-.043-.295-.17a.543.543 0 01-.169-.423c-.042-.339-.042-.636-.042-.975 0-.593 0-1.186-.042-1.822-.085-1.271-.127-2.542-.169-3.771l-.126-8.431c-.043-5.974-.085-11.948-.085-17.964 0-6.228-.042-12.456-.042-18.684 0-6.186 0-12.372.042-18.558 0-6.228.042-12.456.085-18.684.042-5.931.126-11.905.21-17.837.085-6.228.169-12.499.296-18.727.084-3.008.042-6.058.042-9.066v-12.626c0-.085.127-.127.211-.17.211-.084.422-.084.633-.084.169 0 .337 0 .506.042.085.042.296.085.296.169v17.244c0 1.526 0 3.051.042 4.576.042 1.568.084 3.178.084 4.745.042 3.136.127 6.228.169 9.364l.253 17.71c.084 6.27.084 12.541.127 18.811a2770.6 2770.6 0 01.042 18.684v18.303c0 6.102-.042 12.203-.042 18.346 0 2.923-.043 5.847-.085 8.77 0 1.356-.042 2.712-.084 4.067a115.675 115.675 0 01-.169 3.814c-.042.593-.042 1.186-.042 1.737 0 .296 0 .593-.042.932 0 .212-.042.381-.169.508-.042.085-.127.085-.169.127-.211.085-.422.085-.633.085-.295.042-.464 0-.633-.042z"/><path d="M623.581 374.029c-.085-.042-.296-.085-.296-.212 0-.085.127-.127.169-.169.169-.085.38-.085.591-.085h12.404c4.389 0 8.777-.042 13.122-.085 4.473-.042 8.945-.042 13.418-.042 4.599 0 9.156-.043 13.755-.043 4.641 0 9.282-.042 13.924-.084 4.43-.043 8.902-.043 13.333-.085 4.514-.042 9.029-.042 13.544-.042h2.616c.295 0 .632.042.928.127.126.042.506.127.506.339 0 .169-.211.254-.337.296-.338.127-.718.17-1.097.17h-96.243c0-.043-.169-.043-.337-.085zm-137.888 18.684c-.084-.042-.295-.084-.295-.212.042-.423.169-.805.253-1.228.338-1.525.591-3.093.844-4.661.591-3.177-.253-6.313-.506-9.49 0-2.415-.38-5.339 1.012-7.415 1.561-1.991 4.22-3.643 6.793-2.965 2.743.974 3.249 4.364 3.713 6.906.802 6.016 1.097 12.117 1.224 18.176-.084.423-1.814.381-1.899 0-.337-4.195-.717-8.347-1.012-12.541-.422-3.39-.043-10.169-3.291-12.075-1.773.678-3.46 2.033-4.093 3.898-.464 2.16-.422 4.406-.338 6.609.422 3.559.422 7.118-.295 10.677-.211 1.356-.549 2.711-.802 4.067 0 .085-.126.127-.211.17-.337.169-.717.169-1.097.084zm.591 2.586c-.928-.297.042-.551.464-.551 2.869-.127 5.781.254 8.65.042.506-.085 1.265 0 1.561-.508.042-.212-.085-.466.211-.509.38-.127.759-.127 1.139-.042.084.042.295.085.295.212v.254c-.253 1.356-4.514 1.059-5.654 1.144-2.236-.042-4.472.127-6.666-.042zm19.747-1.993c-.085-.042-.338-.084-.338-.211a153.135 153.135 0 00-.38-6.229c-.211-3.008-.379-5.973-.633-8.982-.211-1.779-.168-3.982-1.729-5.168-2.321.889-3.165 2.923-2.743 5.296.127 1.525.253 3.05.338 4.575.126 2.67.21 5.339.253 8.008 0 .635.042 1.229.042 1.864 0 .085-.127.127-.211.17-.38.127-.76.127-1.139.042-.085-.042-.296-.085-.296-.212 0-.974-.042-1.906-.042-2.881-.084-4.025-.211-8.05-.591-12.033-.59-2.923 2.068-5.846 5.021-5.507 2.448.254 2.996 3.008 3.081 5.041.337 3.941.506 7.923.759 11.906.084 1.398.127 2.754.169 4.152 0 .085-.169.169-.211.212a4.862 4.862 0 01-1.35-.043z"/><path d="M500.419 381.952c-2.405-.763 3.122-1.059 3.586-1.229.464-.551 2.616-.424 3.08.042.127.89-4.641.636-5.401.805.085.043.253.085.253.17s-.126.127-.21.169c-.38.17-.844.128-1.308.043zm-5.949 55.333c-2.405-.169-4.937-.339-7.004-1.695-1.097-.678-1.224-2.033-1.182-3.22 0-.889 0-1.779.127-2.669.042-.127.084-.212.211-.254.211-.127 1.561-.17 1.392.212-.127 1.483-.253 3.008 0 4.491.253.805.97 1.271 1.688 1.61 2.742 1.101 5.822.932 8.734.932 1.181-.085 2.531.042 3.628-.424 1.097-1.101 1.604-3.347 1.477-4.914-.844-2.204-6.455-2.077-8.523-2.246-1.561-.042-3.08-.042-4.641-.042-.38.042-1.983-.212-1.013-.678 1.182-.297 2.447-.085 3.629-.127 2.911.084 5.865.254 8.734.889 2.194.551 4.177 1.144 3.46 3.898-.169 1.059-.507 2.119-1.097 3.008-1.055 1.653-7.553 1.229-9.62 1.229z"/><path d="M489.449 440.59c-2.532-.085-5.148-.085-7.637-.848-3.207-1.228-.296-2.415 1.561-2.626 2.363-.382 4.768-.212 7.173-.127 4.514.169 9.071.508 13.586.508.253-.042 1.223.127.633.424-1.182.211-2.405.042-3.587.042a885.613 885.613 0 01-10.548-.466c-1.983 0-6.54-.424-8.017.89-.633 2.499 17.975 1.271 20.295 1.398 1.139-.043 2.152-.043 3.249-.127.548-.043 1.266-.127 1.519-.721.211-.889-1.266-.508-1.646-1.016-.084-.17.169-.297.296-.339 1.097-.382 2.278 0 3.249.466.211.084.379.254.422.466 0 2.245-5.148 1.779-6.709 1.949-4.599.127-9.198.254-13.839.127zm3.965 3.983c-3.375-.17-14.387.212-16.455-1.949-.759-2.246 7.637-1.907 8.987-1.949 1.055 0 1.097.508 0 .508-2.152.043-4.557-.084-6.497.805-1.308 1.568 8.101 1.568 8.902 1.653 7.637.084 15.316.466 22.827-.763h.042c.337-.339-.211-.678-.464-.847-.127-.043-.253-.17-.169-.297.422-.466 1.308-.381 1.899-.339.97 0 2.194 1.229.928 1.864-1.688.721-3.713.721-5.485.932-4.81.424-9.662.424-14.515.382zM243.505 605.826c-.085-.043-.253-.085-.296-.17-.126-.254-.084-.593-.084-.847v-1.483c0-1.568-.042-3.135-.042-4.703-.042-3.22-.042-6.44-.085-9.66-.042-7.076-.168-14.109-.21-21.184-.169-15.38-.38-30.759-.507-46.139-.169-15.253-.295-30.463-.464-45.715-.169-15.507-.422-30.972-.675-46.478a8610.273 8610.273 0 01-.633-46.732c-.169-15.126-.295-30.294-.422-45.419-.126-15.846-.253-31.692-.337-47.537-.085-14.787 0-29.573.084-44.402 0-2.373.042-4.745 0-7.118s-.042-4.745-.084-7.118l-.127-12.626c0-.084.127-.127.169-.169.211-.085.422-.085.633-.085.168 0 .337 0 .506.043.084 0 .295.084.295.211.085 6.864.127 13.77.211 20.634 0 1.949.085 3.94.127 5.889l.126 5.593.254 11.269c.168 7.33.337 14.617.422 21.947.126 7.669.211 15.38.295 23.048.211 15.592.337 31.183.506 46.817.169 15.422.296 30.802.38 46.224l.127 23.133c.042 7.796.042 15.634.084 23.43.042 15.337.169 30.717.295 46.054.127 15.252.296 30.547.38 45.8l.38 45.292.126 12.329c.043 2.076.043 4.152.085 6.27 0 .763 0 1.483.042 2.246v.635c0 .212 0 .382-.042.551-.042.085-.211.17-.296.17-.211.042-.379.084-.59.084-.253 0-.464-.042-.633-.084zm4.894-78.848c-.084-14.447-.168-28.937-.295-43.385-.084-14.829-.211-29.658-.295-44.486-.085-15.507-.211-31.056-.296-46.563-.084-15.295-.211-30.548-.295-45.842-.085-15.465-.211-30.887-.295-46.351-.085-15.338-.211-30.675-.296-46.054l-.253-36.437v-.847c0-.085.127-.128.211-.17.211-.085.422-.085.633-.085.169 0 .337 0 .506.043.085.042.296.084.296.212v.847c.084 14.193.168 28.387.295 42.58.084 15.337.211 30.674.295 45.969.085 15.465.211 30.972.296 46.436.084 15.21.211 30.463.295 45.673.084 15.337.211 30.632.295 45.969.085 14.829.211 29.7.296 44.529.084 14.49.168 28.98.295 43.513l.127 22.285c-.211.297-.465.636-.675.932-.085.127-.169.212-.254.339-.126.127-.211.254-.337.382a.973.973 0 00-.169.889c-.042.127-.127.254-.169.382-.084-10.211-.169-20.507-.211-30.76z"/><path d="M244.306 561.169c-.126 0-.295-.042-.421-.085-.085-.042-.169-.127-.043-.211 1.308-.89 2.616-1.737 3.924-2.627l4.177-2.796a921.64 921.64 0 008.228-5.508c1.435-.975 2.911-1.949 4.346-2.924.084-.085.211-.084.338-.127.211-.042.464-.042.675 0 .126 0 .295.042.422.085.084.042.168.127.042.212-.042.042-.127.084-.169.127-2.532 1.695-5.021 3.347-7.553 5.042l-8.354 5.592c-1.519 1.017-3.08 2.034-4.599 3.051-.084.084-.211.084-.337.127-.127.042-.254.042-.422.042h-.254z"/><path d="M124.604 215.953c-.084-.042-.295-.084-.295-.211 0-.085.127-.17.211-.17.211-.085.464-.085.675-.085 4.895.085 9.789.085 14.641.127 2.574.043 5.148 0 7.721 0h7.722c5.19 0 10.422 0 15.611.043 5.232.042 10.464.042 15.696.085l15.738.127 15.612.127 15.527.127c2.447 0 4.894.042 7.341.042 1.182 0 2.405 0 3.587.043h1.645c.591 0 1.182-.043 1.73.042.253 0 .464.042.675.127.169.042.675.212.549.508-.085.128-.253.212-.338.255a1.92 1.92 0 01-.675.127c-.464.084-.928.042-1.392.042h-2.152c-1.182 0-2.405 0-3.587-.042-2.447 0-4.852-.043-7.299-.043l-15.569-.127-15.569-.127-15.781-.127c-5.232-.042-10.506-.127-15.738-.169-5.189-.043-10.379-.127-15.611-.212l-7.637-.127-7.721-.127-14.726-.128a12.397 12.397 0 01-.591-.127z" stroke="#fff" stroke-opacity=".09" stroke-miterlimit="10"/><path d="M229.961 292.047a2854.778 2854.778 0 00-60.252-.763c-8.608.085-17.173.297-25.78.127-4.093-.042-8.186-.085-12.278-.551-.296 0-1.14-.211-.507-.466.549-.211 1.14-.084 1.73-.042 28.607.212 57.214-.508 85.863.381 6.625.127 13.249.297 19.873.339.38 0 .76.043 1.097.127.169.043.633.17.633.424 0 .212-.253.297-.422.339-.717.254-1.434.169-2.194.212-2.574 0-5.147-.085-7.763-.127zm3.924 123.461c-2.532 0-5.106-.043-7.637-.085l-16.076-.127c-5.611-.042-11.181-.085-16.793-.17-5.4-.042-10.843-.084-16.244-.169-5.359-.042-10.717-.085-16.118-.169-5.443-.043-10.928-.128-16.371-.212l-7.426-.127c-2.109-.043-4.261-.128-6.371-.17-.211 0-.422 0-.591-.085-.084-.042-.337-.084-.337-.212 0-.084.126-.169.211-.169a1.35 1.35 0 01.717-.085c1.097 0 2.236-.042 3.333-.042 1.266 0 2.532-.042 3.798-.042h8.438c5.443 0 10.886.084 16.329.127l16.118.127 16.329.127c5.569.042 11.096.085 16.666.169l15.991.127c2.279 0 4.557.043 6.835.085 2.194.043 4.431.043 6.625.085.295 0 .675.042.97.169.127.043.38.17.38.339 0 .17-.253.297-.38.339-.38.17-.844.17-1.223.17h-1.984c-1.729.042-3.459 0-5.189 0zm-51.814 26.226a38.568 38.568 0 01-5.4-.763c-1.688-.339-3.334-.763-4.937-1.398-.042 0-.084-.042-.126-.042-.887-.382-1.773-.763-2.616-1.271-.465-.255-.887-.551-1.351-.89-.464-.339-.886-.72-1.308-1.102a6.898 6.898 0 01-1.223-1.483 7.427 7.427 0 01-.971-2.118c-.379-1.398-.084-2.923.549-4.194.464-.933 1.181-1.78 1.983-2.5-.169-.085-.253-.17-.084-.297.759-.635 1.561-1.228 2.362-1.567.507-.212.971-.466 1.477-.721.253-.127.506-.254.76-.339.042-.042.126-.042.168-.084.76-.339 1.519-.636 2.321-.89 1.055-.339 2.152-.678 3.249-.932 1.181-.297 2.32-.509 3.502-.72 2.278-.424 4.557-.594 6.835-.678a47.547 47.547 0 013.502 0c1.224.042 2.447.127 3.713.254 1.097.085 2.194.254 3.249.424 1.097.211 2.194.423 3.249.72.97.254 1.899.551 2.827.932.802.296 1.561.635 2.32 1.017.929.508 1.815 1.101 2.616 1.822.422.381.802.805 1.182 1.228.802.975 1.392 2.076 1.645 3.347.296 1.526-.168 3.093-1.012 4.407-.422.635-.928 1.186-1.477 1.694-.38.382-.844.721-1.266 1.017a20.68 20.68 0 01-1.266.805c-3.375 1.992-7.215 3.051-11.012 3.729-2.911.55-5.907.762-8.903.762-1.519 0-3.038-.085-4.557-.169zm5.486-.424c1.054-.042 2.151-.085 3.206-.169l2.152-.255a48.327 48.327 0 003.418-.635c1.012-.212 2.025-.509 3.038-.805a40.472 40.472 0 002.995-1.102 21.567 21.567 0 003.08-1.652c.465-.297.886-.636 1.308-.975.465-.381.886-.762 1.266-1.228a7.047 7.047 0 001.477-2.627 6.303 6.303 0 00.211-1.525 6.37 6.37 0 00-.211-1.568c-.211-.678-.549-1.313-.928-1.949a16.957 16.957 0 00-.802-1.017c-.38-.381-.759-.762-1.139-1.101-.38-.339-.844-.636-1.266-.932a12.81 12.81 0 00-1.983-1.06s-.042 0-.042-.042c-.802-.339-1.646-.678-2.405-.89-.844-.254-1.73-.508-2.616-.678-.886-.169-1.772-.339-2.658-.466-.971-.127-1.941-.211-2.87-.339-.843-.042-1.729-.084-2.573-.127h-2.743c-.844.043-1.73.085-2.574.127-.801.085-1.561.17-2.362.255-1.097.169-2.152.339-3.249.593-1.097.254-2.152.508-3.207.847-1.181.381-2.321.763-3.46 1.271-.126.043-.253.127-.38.17-.506.254-.97.508-1.434.805-.127.084-.253.212-.38.296-.211.127-.422.297-.633.424-.211.169-.464.297-.675.466-.506.381-.928.847-1.35 1.271-.76.847-1.35 1.822-1.688 2.881a5.663 5.663 0 000 3.135c.338 1.06.886 1.949 1.604 2.797.717.762 1.519 1.44 2.405 1.991.759.466 1.519.89 2.362 1.229.254.084.465.211.718.296h.042c.464.17.928.297 1.35.466.844.254 1.688.466 2.574.678.886.17 1.772.339 2.658.466.886.127 1.772.212 2.658.297.844.042 1.688.127 2.532.127.886.254 1.73.254 2.574.254zm-3.08 73.424c-.422 0-.844-.042-1.182-.042-1.265-.042-2.489-.127-3.755-.212-1.223-.127-2.489-.254-3.713-.466-1.266-.212-2.489-.424-3.755-.72a32.895 32.895 0 01-3.46-1.059 17.451 17.451 0 01-3.249-1.483c-.97-.593-1.856-1.271-2.447-2.246-.169-.296-.337-.635-.422-.974a3.08 3.08 0 010-1.949c.211-.763.717-1.483 1.266-2.034.759-.805 1.688-1.44 2.658-1.991 2.11-1.186 4.388-1.991 6.709-2.669a39.19 39.19 0 013.206-.763c1.098-.212 2.152-.424 3.249-.593 4.177-.636 8.439-.932 12.658-.805.127-.042.296-.043.422-.085.253-.042.507-.042.718 0 .295 0 .59.043.843.043l1.646.127c1.224.084 2.405.211 3.629.381 2.489.381 4.936.847 7.341 1.61 1.139.381 2.236.805 3.333 1.313 1.055.551 2.11 1.187 2.954 2.076.253.297.506.594.717.89.338.551.507 1.229.464 1.864-.042.678-.337 1.356-.675 1.907-.253.424-.591.762-.928 1.144-.38.423-.886.805-1.35 1.144a11.23 11.23 0 01-1.519.932c-2.152 1.144-4.473 1.949-6.835 2.584-2.363.636-4.81 1.06-7.258 1.398a61.606 61.606 0 01-5.569.509 68.911 68.911 0 01-4.219.127c-.549 0-1.097 0-1.646-.042l.169.084zm3.502-.678c1.223-.042 2.489-.127 3.713-.211 1.308-.127 2.616-.255 3.924-.466 1.223-.17 2.489-.424 3.544-.636a60.25 60.25 0 003.966-1.017 47.24 47.24 0 003.165-1.144c.886-.381 1.73-.847 2.531-1.356.38-.254.76-.55 1.139-.847.338-.296.675-.593.971-.932.464-.551.802-1.102 1.012-1.779.127-.551.169-1.06.043-1.61a6.298 6.298 0 00-.422-.933l-.38-.508c-.464-.508-.97-.89-1.519-1.271a17.244 17.244 0 00-2.152-1.144c-.844-.381-1.73-.678-2.616-.974a59.85 59.85 0 00-2.658-.678c-1.013-.212-2.067-.382-3.08-.551a65.075 65.075 0 00-2.996-.339c-.886-.085-1.772-.127-2.616-.17-.464 0-.928.001-1.35-.169-1.139-.042-2.236 0-3.375 0-1.351.042-2.659.127-3.966.212h-.085c-1.308.127-2.616.254-3.924.466-1.308.212-2.574.424-3.839.72-1.14.254-2.279.551-3.376.89a27.284 27.284 0 00-3.671 1.398c-.928.424-1.814.847-2.616 1.398-.633.424-1.181.89-1.687 1.398-.169.17-.296.339-.464.551a5.532 5.532 0 00-.676 1.314 3.327 3.327 0 000 1.821c.169.594.507 1.06.886 1.526.422.466.929.847 1.435 1.186.633.381 1.266.72 1.899 1.017.886.381 1.814.72 2.742 1.059a33.45 33.45 0 002.954.763c.886.169 1.73.339 2.616.466 1.139.169 2.236.296 3.375.381 1.055.085 2.068.127 3.123.212.379 0 .759 0 1.181.042.97-.042 2.11-.042 3.249-.085zm-57.299 5.508c-.084-.042-.337-.084-.337-.211 0-.085.126-.17.211-.17.211-.085.464-.085.717-.085h7.51c1.308 0 2.616-.042 3.924-.042 1.351 0 2.743-.042 4.093-.042a981.852 981.852 0 0115.823-.128c5.358-.042 10.717-.042 16.033-.042 5.485 0 10.928 0 16.413-.042h46.328c.38 0 .76.042 1.139.127.169.042.507.127.591.339.084.169-.084.296-.211.381-.338.212-.802.254-1.181.254h-79.619c-5.232 0-10.464-.042-15.696-.084-1.35 0-2.7-.043-4.05-.043-1.266 0-2.532-.042-3.798-.042h-7.299a3.13 3.13 0 00-.591-.17zm108.31-70.247h-13.797c-5.612 0-11.266-.042-16.877-.042-5.443 0-10.844-.042-16.287-.042-5.569-.043-11.139-.043-16.708-.085a2014.22 2014.22 0 01-16.118-.17c-.759 0-1.519 0-2.11-.042h-1.054c-5.317-.085-10.591-.085-15.907-.085h-8.481c-.211 0-.422 0-.591-.042-.084-.042-.337-.085-.337-.212 0-.085.126-.169.211-.169.211-.085.464-.127.717-.127h.084c5.19 0 10.38.042 15.612.042 5.274 0 10.506-.042 15.78-.085 5.485-.042 10.97-.042 16.455-.042h16.667c5.4 0 10.843 0 16.244.042 5.612 0 11.265.043 16.877.043 3.587 0 7.215.042 10.633.084.38 0 .759 0 1.139.043.211 0 .464.042.633.127.127.042.38.127.38.296 0 .17-.253.255-.38.297a2.196 2.196 0 01-.886.169c-.253 0-.506.043-.76.043-.379-.043-.759-.043-1.139-.043z"/><path d="M146.798 476.942c-.084-.043-.338-.085-.338-.212 0-4.195.043-8.389.085-12.541.084-4.957.211-9.914.084-14.872 0-.127.127-.169.211-.211.422-.17.886-.17 1.308-.043.085.043.338.085.338.212.084 3.94.042 7.881-.042 11.821-.085 5.211-.169 10.422-.127 15.676 0 .085-.127.17-.211.17a3.426 3.426 0 01-1.308 0z"/><path d="M221.353 477.958c-.97 0-1.94-.042-2.953-.085-4.81-.127-9.662-.127-14.472-.169-5.063-.043-10.127-.043-15.19-.085-5.147-.042-10.337-.042-15.485-.085-5.105-.042-10.21-.042-15.316-.084-3.164 0-6.371-.043-9.535-.043-.211 0-.422 0-.633-.085-.085-.042-.338-.084-.338-.211 0-.085.169-.17.253-.17.253-.085.507-.085.76-.085 4.979.043 9.915.043 14.894.085 5.063.043 10.084.043 15.147.085 5.106.042 10.211.042 15.274.085 5.063.042 10.127.042 15.19.084 3.291 0 6.624.043 9.704-.042 2.068-.042 4.093-.085 6.16-.042.338 0 .675.042 1.013.127.169.042.548.127.548.339 0 .169-.253.254-.379.296-.38.127-.802.17-1.182.17h-.126c-1.182-.043-2.236-.043-3.334-.085z" stroke="#fff" stroke-opacity=".09" stroke-miterlimit="10"/><path d="M225.572 477.831c-.084-.042-.337-.085-.337-.254-.042-2.373.042-4.703.042-7.076.127-7.033.169-14.108.464-21.141.127-.424 1.772-.424 1.857 0-.127 2.161-.127 4.364-.211 6.567-.169 6.525-.296 13.092-.338 19.616v2.034c0 .127-.126.169-.211.212-.379.169-.844.169-1.266.042zm-78.268 99.777c-.084-.042-.337-.084-.337-.212v-1.016c0-3.475-.042-6.949-.042-10.465-.042-4.025-.042-8.05-.085-12.033-.042-4.025-.042-8.05-.084-12.075-.042-4.11-.042-8.177-.084-12.244 0-3.051-.043-6.144-.043-9.194v-.043c0-.084.169-.169.211-.169.211-.085.464-.085.718-.085.211 0 .422 0 .59.085.085.042.338.085.338.212.042 4.025.042 8.007.084 12.032.042 4.068.042 8.093.085 12.16.042 4.025.042 8.092.084 12.117.042 3.983.042 7.966.084 11.991 0 2.584.043 5.169.043 7.753v1.059c0 .085-.169.17-.211.17-.211.084-.464.084-.718.084l-.633-.127z"/><path d="M148.064 578.117c-.084-.042-.337-.085-.337-.212 0-.084.126-.169.211-.169.21-.085.464-.085.675-.085.675 0 1.35 0 1.983-.042.886 0 1.814-.043 2.7-.043 1.814 0 3.629-.042 5.401-.084 2.152-.043 4.303-.128 6.244-.128 5.148-.127 10.338-.169 15.485-.254 5.063-.084 10.084-.127 15.148-.212l15.569-.254c2.278-.042 4.557-.084 6.835-.084 1.055 0 2.152-.043 3.207-.043 1.097 0 2.194-.042 3.249 0h1.265c.296 0 .633.043.929.127.168.043.422.127.506.297.211.423-1.013.551-1.181.551-.591 0-1.182.042-1.815.084-.675.043-1.35 0-2.025.043-1.181 0-2.363.042-3.544.042-2.447.042-4.852.042-7.3.085l-15.442.127c-5.106.042-10.169.085-15.274.169-5.106.043-10.211.127-15.358.127h-7.173c-2.49.043-4.979.043-7.469.085-.675 0-1.392.043-2.067.043-.042-.127-.211-.128-.422-.17z" stroke="#fff" stroke-opacity=".09" stroke-miterlimit="10"/><path d="M226.037 576.804c-.085-.043-.296-.085-.296-.212-.042-3.474-.042-6.991-.084-10.465-.042-3.771-.042-7.584-.085-11.355-.042-3.855-.042-7.668-.084-11.524-.042-3.855-.042-7.669-.084-11.524-.042-3.728-.042-7.457-.085-11.228 0-.084.127-.169.211-.169.211-.085.464-.085.675-.085.169 0 .38 0 .549.085.084.042.295.085.295.212.042 3.728.042 7.457.085 11.227.042 3.856.042 7.669.084 11.524.042 3.856.042 7.669.084 11.525.043 3.813.043 7.584.085 11.354.042 3.475.042 6.991.084 10.465 0 .085-.126.17-.211.17-.211.084-.464.084-.675.084-.169-.042-.38-.042-.548-.084zm-37.847 13.854c-1.266-.042-7.848-.593-7.595-2.245 1.435-1.992 8.354-1.271 10.717-1.102.295.042 2.532.297 1.603.763-.506.127-1.139.169-1.603-.085-2.025-.339-4.05-.339-6.076-.297-.886.043-1.814.085-2.616.551-.717.551.549.89.929 1.017 1.603.551 8.396 1.441 9.24-.212-.633-.466.253-.635.633-.678 1.055-.212 3.08.382 1.266 1.356-1.984.975-4.304 1.017-6.498.932zm-55.315 9.406c-.296 0-.633 0-.929-.043-.295-.042-.717-.042-.928-.212-.084-.042-.084-.127-.042-.169.084-.127.295-.17.464-.212.169-.042.38-.085.591-.085.38-.042.759-.042 1.181-.084.76-.043 1.519-.043 2.279-.085a161.07 161.07 0 014.556-.085c3.207-.085 6.456-.127 9.663-.169 6.329-.128 12.615-.212 18.944-.297 6.54-.085 13.122-.212 19.662-.297a2851.34 2851.34 0 0019.029-.296c6.54-.085 13.08-.17 19.578-.297 4.726-.084 9.451-.169 14.177-.212.422 0 .886.043 1.308.128.211.042.591.127.675.339.084.169-.084.296-.253.381a3.873 3.873 0 01-1.392.254h-.718c-6.118.127-12.236.17-18.354.254-6.54.085-13.08.212-19.662.297-6.371.085-12.742.169-19.155.296-6.498.085-12.996.17-19.494.297l-18.565.254c-2.109.043-4.261.043-6.371.043-1.519 0-2.995.042-4.514.042-.676 0-1.351 0-1.984-.042h.254zm29.408 4.491c-4.261-.593 7.342-1.525 7.764-1.483 8.776-.381 17.552-.381 26.328-.635 4.768.042 9.62-.382 14.388-.043.169.043.633.17.633.424 0 .212-.295.296-.422.339-6.287.551-12.658.169-18.987.423-2.911.043-5.823.128-8.734.17-6.962.212-14.05-.17-20.97.805z"/><path d="M130.891 677.936c-.084-.042-.337-.084-.337-.212v-.466c-.042-13.642-.084-27.242-.169-40.885l-.126-39.868c-.085-17.456-.127-34.912-.211-52.367-.085-17.88-.127-35.802-.211-53.681-.085-17.964-.127-35.928-.211-53.892l-.253-55.079c-.085-18.43-.296-36.86-.38-55.333-.085-17.795-.127-35.589-.042-53.426 0-4.364.042-8.77.042-13.134 0-4.025-.042-8.05-.042-12.075-.043-8.389-.043-16.778-.085-25.167v-5.423c0-.085.127-.17.211-.17.211-.084.464-.127.717-.127.211 0 .422 0 .591.085.085.042.338.085.338.212 0 7.711.042 15.422.084 23.133 0 4.194.042 8.389.042 12.583 0 4.068 0 8.093.042 12.16.211 17.964.38 35.886.422 53.85.085 18.218.043 36.437.043 54.655 0 18.388.084 36.733.126 55.121.042 18.218.127 36.437.169 54.697.084 17.88.127 35.801.211 53.681.042 17.413.127 34.869.211 52.282l.126 39.275c.043 15.295.127 30.633.169 45.928v3.389c0 .085-.126.17-.211.17a1.978 1.978 0 01-.717.127c-.127.042-.338 0-.549-.043zm43.586 36.649c-.085-.043-.253-.127-.253-.339 0-.17.126-.254.168-.297.169-.127.38-.169.591-.169 1.561 0 3.122-.043 4.684-.085 1.645 0 3.291-.042 4.936-.085 3.038-.042 6.118-.127 9.156-.169 1.139-.043 2.278 0 3.418-.085h.042c.253-.042.548-.042.802 0 .126.042.253.085.379.169.042.043.253.17.211.339v.043a.35.35 0 01-.211.339c-.211.169-.464.212-.717.212-.127 0-.211 0-.338-.043-.042 0-.084 0-.168-.042h-4.093c-1.519 0-3.038 0-4.557.042l-9.747.127c-1.307 0-2.573.043-3.881.043-.127.127-.296.084-.422 0zm-15.949.043c-.042-.043-.127-.127-.127-.339 0-.17.043-.255.085-.297.084-.127.169-.169.253-.169.675 0 1.392-.043 2.067-.085.718 0 1.435-.042 2.152-.085 1.35-.042 2.701-.127 4.051-.169.506-.043 1.012 0 1.519-.085.126-.042.253-.042.337 0 .042.042.127.085.169.169.042.043.084.17.084.339v.043c0 .212-.042.296-.084.339-.084.169-.211.212-.295.212-.043 0-.085 0-.169-.043-.042 0-.042 0-.084-.042h-1.815c-.675 0-1.35 0-2.025.042l-4.304.127c-.548 0-1.139.043-1.687.043 0 .127-.043.084-.127 0zm102.149-17.964c-9.831 0-19.704-.043-29.535-.043-4.43 0-8.818 0-13.248-.042H207.43c0-.212.042-.382.042-.593 3.249 0 6.455 0 9.704-.043 4.346-.042 8.692-.042 13.038-.085 9.873-.042 19.746-.169 29.577-.211l29.156-.127h1.941c0 .169 0 .339.042.508 0 .169.042.381.042.551-9.24 0-18.481.042-27.679.042-.843.042-1.73.043-2.616.043zm-86.073-.043c-.127-.043-.422-.085-.422-.212 0-.085.168-.17.253-.17.295-.084.591-.084.886-.084 9.873 0 19.746-.043 29.619-.043h.465c0 .17 0 .382-.043.551v.042c-9.999.043-20.041.043-30.041.043-.211-.085-.464-.085-.717-.127zm119.533-1.06c18.86-.042 37.72-.085 56.538-.169h6.245c-.042.381-.042.72-.084 1.101-12.278.043-24.515.043-36.793.085-8.607 0-17.257.042-25.864.042 0-.339-.042-.678-.042-1.059z"/><path d="M351.266 695.434c9.156 0 18.312-.042 27.51-.084l59.324-.128c11.729-.042 23.501-.042 35.231-.084v.254c0 .297.042.551.042.847h-1.73c-21.434.043-42.826.085-64.26.17l-56.032.127c-.043-.381-.085-.72-.085-1.102zm222.653-.339v-.212c3.671 0 7.384 0 11.055-.042 0 .085 0 .169.042.212.042.296.042.593.084.889-3.713 0-7.426 0-11.139.043 0-.297 0-.593-.042-.89zm13.164-.126v-.085c4.515 0 8.988-.043 13.502-.043l56.075-.127 50.083-.127c3.207 0 6.456 0 9.662-.042h4.093c.675 0 1.35 0 1.983.339.127.085.296.212.211.381-.126.254-.591.339-.844.381-.379.085-.801.085-1.181.085-.127 0-.295-.042-.422-.042-11.519.042-22.995.042-34.514.085l-55.99.127c-14.135.042-28.312.084-42.447.084-.084-.381-.168-.677-.211-1.016zm-276.238 19.574c57.383-.043 114.723-.043 172.064-.085-.296.339-.591.72-.886 1.059l-.043.043c-43.501 0-87.002.042-130.503.042H310.93a8.786 8.786 0 01-.085-1.059zm177.422-.085h6.709c0 .381-.042.72-.042 1.102-2.237 0-4.515 0-6.751.042 0-.424.042-.763.084-1.144zm15.358-.042c11.561-.043 23.08-.043 34.641-.085 11.561-.043 23.164-.043 34.725-.085.042.381.042.72.084 1.102-8.776 0-17.552.042-26.329.042-13.965.042-27.889.042-41.855.085h-1.392c0-.339.042-.678.126-1.059zm71.265-.17c3.249 0 6.455-.001 9.704-.043h2.363c.042.381.042.72.084 1.102-4.05 0-8.059 0-12.109.042 0-.339 0-.72-.042-1.101zm15.485-.001c13.544-.042 27.088-.042 40.632-.084 15.484-.043 30.969-.085 46.454-.085 7.51 0 15.021-.042 22.573-.042h6.836c3.839 0 7.679 0 11.518-.043h2.152c.844 0 1.646 0 2.279.127.084 0 .168.043.253.043.169.042.633.127.633.339 0 .212-.38.296-.591.339-.042 0-.084.042-.127.042a6.875 6.875 0 01-1.603.169h-4.219c-2.658 0-5.317.043-8.017.043-7.552.042-15.147.042-22.7.042-15.231.043-30.421.085-45.653.085-15.189.042-30.421.085-45.61.085h-4.726a9.01 9.01 0 00-.084-1.06z"/><path d="M636.323 695.265c-.085-.043-.338-.085-.338-.212v-2.669c-.042-3.729-.042-7.499-.084-11.228l-.127-15.464-.126-15.973-.127-16.269-.126-16.058-.127-16.1-.127-16.1-.126-15.93c0-.89 0-1.822-.042-2.712v-.678c0-.084.126-.169.211-.169.211-.085.464-.085.717-.085.211 0 .422 0 .591.085.084.042.337.085.337.212l.127 15.507.126 16.311.127 16.185.126 15.93.127 16.27.127 15.973.126 15.676.127 14.447c0 .975 0 1.992.042 2.966 0 .085-.127.17-.211.17-.211.084-.464.084-.717.084-.211-.127-.422-.127-.633-.169zM527.76 677.936c-.211 0-.422 0-.591-.043-.084-.042-.337-.084-.337-.211V565.364c0-.085.126-.17.211-.17.21-.085.464-.085.717-.085.211 0 .422 0 .59.043.085.042.338.084.338.212v112.402c0 .085-.127.17-.211.17h-.717zm-53.839 5.127c-.211 0-.379 0-.59-.085-.085-.042-.338-.085-.338-.212v-48.469h.085c.59-.085 1.223-.127 1.814-.212v48.681c0 .085-.127.17-.211.17a2.4 2.4 0 01-.76.127zm-.464-75.84c-.126 0-.253-.042-.379-.042v-43.47c0-.085.126-.127.211-.169.211-.085.422-.085.632-.085.169 0 .38 0 .549.042.084.043.295.085.295.212v43.682c-.422-.043-.886-.085-1.308-.17z"/><path d="M720.54 565.449h-12.025c-8.438 0-16.919-.043-25.358-.043a859531.337 859531.337 0 01-100.968-.254l-47.763-.127-52.867-.127-55.695-.127-47.763-.127-45.611-.127c-14.43-.043-28.902-.127-43.374-.212-9.831-.043-19.662-.043-29.493-.085-5.19 0-10.422-.042-15.612-.042-.211 0-.422 0-.59-.085-.085-.042-.338-.085-.338-.212 0-.085.127-.169.211-.169.211-.085.464-.085.717-.085 8.228 0 16.456.042 24.683.042 5.063 0 10.127.043 15.148.043h20.801c14.641 0 29.282 0 43.923.042 15.189.042 30.421.085 45.611.085l51.981.127 54.641.127 51.138.127 46.201.127 53.332.127 50.505.127c6.16 0 12.279.043 18.439.043.295 0 .59.042.844.085.126.042.464.127.464.296 0 .127-.211.212-.296.254-.168.127-.506.17-.886.17.042 0 .042 0 0 0zm-463.322-3.941c-3.207 0-6.456 0-9.62-.084h-.338c-.801-.043-1.603-.043-2.194-.043h-.633c-.211 0-.464 0-.675-.084-.126-.043-.38-.085-.38-.255 0-.127.169-.169.254-.212.253-.084.548-.127.801-.127.928-.042 1.857-.042 2.743-.084h.253c2.152-.043 4.304-.085 6.456-.085 2.236-.042 4.472-.042 6.666-.042 4.768 0 9.493-.043 14.261-.043H722.27c.38 0 .76.043 1.139.127.169.043.633.17.633.424 0 .212-.295.297-.422.339-.421.169-.928.212-1.35.212H274.601c-5.822 0-11.603 0-17.383-.043zm302.567 9.449c-1.477-1.653 4.978-1.144 5.907-1.314 9.704-.084 19.408-.084 29.155-.042 1.266.085 20.59-.508 12.531 1.483-15.864 0-31.855.085-47.593-.127zm-44.261.169c-10.844-.169-21.308-.085-31.94-1.271-3.249-1.61 7.974-.847 8.776-.847 9.367.55 18.776.508 28.143.635 6.118 1.314-3.587 1.78-4.979 1.483zm-89.998.127c-13.924-.127-27.932.042-41.687-1.864-.928-.254-.169-.636.38-.678 6.286.339 12.615.72 18.902.805 9.705.381 19.409 0 29.071.381 4.431 1.653-5.696 1.441-6.666 1.356zm-121.854-1.228c-10.885-.466-22.32.72-32.91-.933 4.514-1.101 9.873-.084 14.641-.508 1.35-.169 29.535-.593 18.143 1.441h.126zm340.245 41.605c-.126-.042-.337-.084-.337-.211-.295-4.407-.211-8.813-.253-13.219 0-7.754 0-15.549.548-23.26.169-1.865.422-3.729.464-5.593.127-.381 1.561-.297 1.646 0-.253 4.279-.042 8.558-.127 12.838-.042 8.854-.126 17.709-.337 26.564 0 .89 0 1.78-.042 2.67 0 .084-.127.169-.211.169-.465.17-.929.127-1.351.042zm-277.546-53.088c-.084 0-.802-.084-.633-.296 1.814-2.966 3.713-5.847 5.612-8.77.844-1.314 1.687-2.627 2.531-3.898.296-.297.844-.254 1.266-.212.127 0 .38.085.422.212a.234.234 0 01-.127.212c-2.236 3.516-4.556 6.948-6.75 10.465-.422.677-.844 1.398-1.308 2.076-.296.254-.676.211-1.013.211z"/><path d="M468.943 558.797c-.928 0-1.857 0-2.785-.043-2.067-.042-4.093-.042-6.16-.042-4.093-.043-8.186-.043-12.278-.085l-12.658-.127-12.743-.127-11.982-.127-12.616-.127c-4.051-.043-8.143-.085-12.194-.085-4.051-.042-8.101-.085-12.109-.085-1.688 0-3.376-.042-5.064-.042-.168 0-.337 0-.506-.043-.084-.042-.295-.084-.295-.211 0-.085.126-.127.211-.17.211-.085.422-.085.633-.085 1.94 0 3.839.043 5.78.043 2.025 0 4.051.042 6.076.042 3.966.043 7.974.085 11.941.085l12.7.127c4.092.042 8.185.085 12.278.085 4.05.042 8.101.042 12.194.084l12.911.128 12.489.127 12.152.127h2.447c.801 0 1.645 0 2.447.042.169 0 .337.043.506.085.085.042.211.085.211.169 0 .085-.126.127-.211.17-.169.042-.337.085-.506.085h-2.869z"/><path d="M472.487 559.772c-.169-.043-.337-.085-.422-.212-1.181-1.441-2.236-2.966-3.418-4.449-2.278-3.008-4.725-5.889-6.877-8.939.084-.424 1.392-.339 1.603-.085 2.658 3.686 5.57 7.202 8.355 10.804.675.847 1.308 1.694 2.025 2.499.295.467-1.055.466-1.266.382zm222.484-11.863h-71.728c-.169 0-.338 0-.507-.043-.084-.042-.295-.084-.295-.211 0-.085.126-.128.211-.17.211-.085.422-.085.633-.085h80.293c.169 0 .338 0 .507.043.084.042.295.084.295.212 0 .084-.127.127-.211.169-.211.085-.422.085-.633.085h-8.565zm-55.062 8.134c-.169 0-.422-.043-.591-.128-1.603-.889-3.164-1.864-4.725-2.796-4.009-2.33-8.312-4.576-13.038-4.618-.211-.042-.464-.212-.084-.339 3.755-.424 7.51 1.059 10.843 2.669 2.912 1.441 5.696 3.178 8.523 4.83.422.339-.717.424-.928.382z"/><path d="M715.097 557.102c-2.11 0-4.219-.043-6.329-.043l-11.941-.127-12.32-.127-12.447-.127-12.616-.127-13.08-.127c-1.054 0-2.109-.043-3.164-.043h-3.08c-.169 0-.38-.042-.549-.084-.084-.043-.211-.085-.211-.17 0-.084.127-.127.211-.169.211-.085.464-.085.718-.085h.042l12.573.127 12.827.127c4.219.043 8.439.085 12.616.085l12.151.127c4.135.042 8.228.085 12.363.085l12.194.127c2.025 0 4.008.042 6.033.042.254 0 .507.043.76.085.126.042.422.085.422.254 0 .127-.169.17-.296.212-.295.085-.59.085-.886.085l-5.991-.127zm5.19-.932c-.253 0-.464-.042-.717-.169-1.814-.932-3.671-1.865-5.485-2.797-3.755-1.779-7.3-4.194-11.35-5.169-.844-.254.211-.55.548-.466 2.026.212 3.924 1.187 5.781 2.034 2.953 1.398 5.865 2.881 8.776 4.364 1.139.593 2.321 1.144 3.46 1.779.633.339-.76.424-1.013.424zm-51.391-21.015c-.085 0-.338-.085-.338-.212a3.763 3.763 0 01-.084-.72c-.084-1.695-.211-3.389-.253-5.084 0-.551 0-1.144.126-1.695.042-.127.169-.212.296-.254.675-.297 1.519-.297 2.236-.127.169.042.422.127.506.254.717 1.779.549 3.813.464 5.72-.168.381-.844.339-1.223.339-.085.55 0 1.144-.253 1.61-.38.339-1.013.254-1.477.169zm.253 3.093c-1.983-.169-3.924-.042-5.907-.084-1.519 0-1.561-.721 0-.721 2.743 0 5.485.212 8.228.509.084.042.295.084.295.212 0 .084-.127.127-.211.169-.759.212-1.603-.042-2.405-.085z"/><path d="M661.976 542.697c-.169-.043-.422-.127-.506-.254-.211-.424 1.012-.509 1.181-.551 2.869-.17 5.865-.085 8.65-.975.886-1.144-.38-2.627-1.604-2.923-.211.254-2.616.212-1.814-.339 1.983-1.271 7.384-.042 6.667 3.05-.338 1.865-10.802 2.288-12.574 1.992zm-4.43-.085c-.127-.042-.38-.085-.422-.297-.38-5.041-.464-10.168-.76-15.21-.211-4.915-.379-9.829-.211-14.786.38-5.042.085-14.194 5.106-16.905 2.194-.932 5.274-.551 6.497 1.737.76 1.356.887 2.923 1.055 4.449.169 2.16.296 4.321.464 6.482.043 1.017.043 2.076-.126 3.093-.042.084-.127.127-.211.169-.38.127-.76.127-1.139.043-.043 0-.338-.085-.296-.212.38-2.924-.084-5.889-.59-8.77-.549-2.331-.844-5.381-3.249-6.568-4.135 2.458-4.135 10.126-4.515 14.448-.422 7.457-.084 14.956.127 22.455.042 3.178.253 6.398.168 9.575 0 .127-.168.212-.253.212-.506.212-1.097.212-1.645.085z"/><path d="M655.057 539.773c-.127-.042-.338-.084-.38-.254-.127-2.203-.127-4.364-.211-6.567-.169-6.228-.295-12.414-.084-18.642.337-6.313.464-17.201 6.202-21.057 2.152-1.313 5.19-1.483 7.257.085 2.743 2.118 2.911 7.499 3.46 10.761.127 2.034.633 6.525-2.574 5.847-.548-.127-.169-.381.169-.424.38-.296.548-.762.675-1.186.549-2.796-.042-5.677-.464-8.431-.549-2.754-1.435-6.186-4.43-7.076-9.409.551-8.059 25.252-8.186 32.243.042 4.787.127 9.617.253 14.405 0 .127-.168.169-.253.212-.422.212-.928.211-1.434.084zm4.388 3.644c-2.026-.169-4.009-.042-6.034-.169-.422-.042-.928-.042-1.223-.381-.169-.721 2.447-.551 2.911-.594 2.827.043 5.738-.338 8.565 0 1.139.339.042.721-.548.721-.633.423-1.435.296-2.11.339-.506.169-1.055.084-1.561.084zm-174.849-23.345c-.084-.042-.295-.085-.295-.212-.042-4.364.042-8.77-.127-13.176.169-.382 1.351-.339 1.604-.043.126 1.695.042 3.39.084 5.084 0 2.712.042 5.424.042 8.093 0 .084-.126.127-.211.169-.337.212-.717.17-1.097.085zm57.678-1.059c-.084-.042-.295-.084-.295-.211-.127-3.856-.338-7.754-.338-11.609.084-.339 1.519-.339 1.646 0 0 3.347.168 6.736.295 10.083 0 .509.042 1.017.042 1.526 0 .084-.126.127-.211.169-.337.127-.759.127-1.139.042zm-.464 3.686h-.759c-.675 0-1.35-.042-2.025-.042-1.477 0-2.996-.042-4.473-.042l-9.831-.128a35049.401 35049.401 0 01-29.999-.381l-9.03-.127h-.759c-.169 0-.338 0-.506-.042-.085-.043-.296-.085-.296-.212 0-.085.127-.127.211-.17.211-.084.422-.084.633-.084 1.182 0 2.321.042 3.502.042 1.561 0 3.123.042 4.684.042l9.831.128 9.873.127 10.168.127 10.085.127c2.826.042 5.653.085 8.523.085h.464c.295 0 .59 0 .886.127.042.042.126.084.126.127 0 .085-.126.127-.211.169-.253.085-.506.085-.759.085-.127.042-.211.042-.338.042z"/><path d="M483.583 508.082c-.084-.042-.295-.084-.295-.212 0-.169.253-.211.38-.254.253-.085.506-.127.759-.212.464-.169 1.013-.254 1.519-.339.675-.127 1.35-.169 2.026-.211a97.759 97.759 0 013.544-.212c2.531-.085 5.105-.127 7.637-.127 5.063 0 10.126 0 15.147.042 1.814 0 3.629.042 5.19.085h1.055c.464 0 .928.042 1.139.042.337 0 .717 0 1.055.042h1.097c4.894.128 9.831.17 14.725.212h3.755c.253 0 .507 0 .76.085.126.042.337.085.422.212.168.339-.802.424-.971.424h-.464c-1.181.042-2.363 0-3.502 0h-3.629c-2.489 0-4.936 0-7.426-.043l-7.046-.127h-.337c-2.574-.042-5.106-.042-7.679-.042h-6.794c-2.742 0-5.442-.043-8.185 0-2.405 0-4.81.042-6.962.084-1.434.043-2.869.085-4.304.212-.253.043-.548.043-.801.085a6.77 6.77 0 00-.464.127.32.32 0 01-.169.085c-.211.085-.422.085-.633.085-.211.042-.38.042-.549-.043zm8.27 9.406c-1.434-.424-3.164-1.314-2.995-3.051.084-2.034 2.067-3.771 4.092-3.305.254.043.465.254.085.339-1.73.085-2.827 2.119-2.49 3.729.296 1.144 1.519 1.652 2.49 1.949 1.308-.89 1.73-2.754 1.392-4.237-.169-.593-.464-1.102-.802-1.61-.042-.127-.168-.339-.126-.466.169-.297 1.772-.297 1.645.169.76 1.229 1.351 2.627.886 4.067-.506 2.161-2.067 3.051-4.177 2.416zm14.515-.296c-2.869 0-4.219-3.559-2.067-5.466 1.265-1.144 3.206-1.271 4.81-1.101.084.042.295.084.295.211 0 .085-.127.128-.211.17-.633.212-1.35 0-1.983.169-2.152.424-3.165 3.305-1.603 4.915.886 1.102 2.489.466 3.333-.381 1.012-1.229.59-3.135-.085-4.449-.042-.381.971-.296 1.224-.254.591.042.675.805.802 1.271 1.181 3.474-1.351 4.999-4.515 4.915zm14.725-.467c-2.151 0-4.43-1.694-4.43-3.94.084-1.271.464-2.034 1.857-1.695.168.043.464.212.168.339-.97 1.525-.042 3.474 1.351 4.364.632.381 1.392.678 2.025.212 2.489-1.822.886-4.449-1.561-5.169-.169 0-.591-.169-.296-.339 1.73-.508 3.713.89 4.515 2.373.464.974.084 2.076-.591 2.838-.717.848-1.898 1.06-3.038 1.017zm12.574.297c-2.996-.042-4.726-2.754-2.067-4.83.801-.72 1.898-.89 2.953-.635.886.296-.506.508-.802.423-2.32 1.06-2.573 4.195.254 4.576 1.012-.169 1.814-.974 2.151-1.907.254-1.398-.21-3.304-1.518-4.024-.507-.424 1.139-.424 1.308-.297 1.139.508 1.645 1.779 1.856 2.923.549 2.373-1.941 3.983-4.135 3.771zm-348.684-27.709c-1.224-.169-3.291-.212-4.008-1.271-.253-1.059 1.561-1.525 2.363-1.567.21 0 .717 0 .801.254 0 .085-.126.127-.211.169-.548.085-1.73.466-1.308 1.229.886.678 2.279.678 3.333.72 2.026.212 7.258-1.271 2.827-2.881-1.223-.466-2.531-.254-3.797-.423-1.055-.339.295-.636.717-.594 2.11 0 4.388.212 6.076 1.61.422.339.422.932.085 1.314-1.646 1.483-4.768 1.525-6.878 1.44zM123.592 216.97c-.127-.042-.211-.127-.295-.254l-.296-.296c-.211-.255-.464-.467-.675-.721-.422-.466-.886-.932-1.308-1.356l-2.616-2.753-5.485-5.763c-3.755-3.94-7.51-7.88-11.265-11.778-3.798-3.94-7.595-7.923-11.392-11.863-3.84-3.983-7.68-8.008-11.52-11.99-3.965-4.152-7.974-8.304-11.94-12.414-4.008-4.195-8.059-8.347-12.067-12.541-3.882-4.067-7.806-8.092-11.688-12.16a3303.577 3303.577 0 00-11.771-12.244c-3.967-4.11-7.89-8.22-11.857-12.329-3.882-4.068-7.805-8.135-11.687-12.16-3.798-3.983-7.553-7.88-11.308-11.82a3.948 3.948 0 01-.38-.424c-.21-.212.38-.297.464-.34.211-.042.38-.042.591 0 .127 0 .38.043.506.128 3.924 4.067 7.806 8.135 11.73 12.202 3.924 4.11 7.89 8.219 11.814 12.287 3.924 4.067 7.848 8.177 11.772 12.244 3.924 4.11 7.89 8.177 11.814 12.287a3060.37 3060.37 0 0111.688 12.202c4.008 4.152 8.016 8.304 11.982 12.498 3.967 4.11 7.933 8.262 11.899 12.372 3.882 4.025 7.763 8.05 11.603 12.075 3.797 3.94 7.553 7.88 11.35 11.821l11.308 11.736 5.569 5.719c.886.932 1.815 1.865 2.701 2.797.422.423.843.889 1.265 1.313.211.212.422.466.675.678l.296.297c.084.084.211.169.211.296 0 .085-.085.127-.127.127a.952.952 0 01-.464.127c-.126 0-.295.043-.422.043-.211.084-.464.042-.675-.043z"/><path d="M70.471 611.334c-1.392-38.005-2.785-77.11-2.025-115.496.295-24.531 1.392-49.062 2.194-73.594.801-23.726 1.055-47.452 1.814-71.136.675-24.997 2.236-49.91 2.911-74.907.507-30.378.38-60.798-.506-91.176-.126-4.788-.38-9.575-.38-14.321 0-1.482 0-2.965.085-4.448 0-.085.126-.127.21-.17.38-.127.76-.127 1.14-.042.084.042.295.085.295.212-.042.381-.042.762-.042 1.144-.084 4.279 0 8.558.169 12.837 1.097 36.479 1.434 73.424.21 109.903-.885 21.354-1.94 42.665-2.53 64.019-.634 20.252-.887 40.504-1.478 60.713-2.362 59.189-3.881 118.462-1.054 177.693.168 4.406.337 8.77.422 13.176 0 1.779.253 3.601-.085 5.381 0 .085-.126.127-.21.169-.38.17-.76.127-1.14.043zM61.99 748.31c-.422-.17-.211-.424.126-.466.338-.085.465-.085.718-.254.717-.509 1.054-1.229 1.56-1.907.76-1.102 1.646-2.076 2.617-2.966 2.405-1.949 4.388-4.364 6.498-6.694 4.767-4.915 10.928-8.389 10.885-16.227.17-.339.718-.297 1.013-.339.295 0 .886 0 1.013.339.042 8.77-7.51 12.202-12.363 18.006-1.983 2.627-4.641 4.576-6.877 6.991-.76.89-1.266 1.907-2.068 2.754-.801.763-2.067 1.102-3.122.763zm-63.838 66.941c-.296 0-.59-.042-.844-.169-.084-.043-.464-.212-.338-.381.802-1.06 1.857-1.992 2.827-2.882 3.967-3.686 8.101-7.244 12.194-10.846 1.604-1.44 3.207-2.881 4.557-4.576 2.025-2.499 3.586-5.296 5.316-8.007a42.589 42.589 0 015.274-6.737c1.646-1.906 3.038-3.982 4.81-5.762 3.207-3.347 7.384-5.592 10.507-9.024.76-.848 1.35-1.78 1.898-2.754 1.477-2.246 3.418-4.576 6.118-5.296 1.308-.339 2.743-.381 3.882-1.059.042-.043.084-.085.084-.17.127-.254.549-.212.802-.254 1.181 0 .928.593 0 .932-3.713 1.229-4.852.424-7.763 3.856-.844.889-1.477 1.906-2.068 2.965-.844 1.399-1.94 2.542-3.122 3.644-3.713 3.178-7.933 5.847-10.802 9.872-1.687 2.584-3.628 4.787-5.4 7.245-2.87 4.152-4.895 8.897-8.397 12.625-4.472 4.449-9.409 8.432-14.008 12.753-1.308 1.229-2.7 2.415-3.924 3.771-.422.254-1.055.254-1.603.254zm120.166-136.976c-.085-.042-.296-.085-.296-.212.043-2.33-.042-4.66-.042-6.991-.211-17.371-.168-34.741 0-52.112.296-42.919-.168-85.838.633-128.715.422-21.099 1.224-42.199 1.182-63.34 0-17.965-.549-35.929-1.182-53.85-.928-22.837-.759-45.716-.126-68.595.675-20.845 1.687-41.69.337-62.493-.38-7.414-.886-14.829-1.35-22.201-.169-3.008-.38-6.016-.38-9.066 0-.085.127-.127.211-.17.38-.127.76-.127 1.139-.042.085.042.296.085.296.212.211 9.744 1.181 19.489 1.645 29.191 1.899 27.624-.337 55.291-.59 82.957-.718 31.226 1.265 62.409 1.603 93.634.253 22.54-.422 45.122-1.013 67.662-.675 30.717-.633 61.434-.675 92.151.169 27.158-.38 54.273-.211 81.431l.127 15.168c0 1.737.042 3.432 0 5.169 0 .085-.127.127-.211.17-.338.127-.717.127-1.097.042z"/><path d="M46.674 760.342c-.084-.042-.295-.084-.295-.211a331.59 331.59 0 01-.253-9.152c-.085-9.448-.338-18.896-.591-28.344-.338-20.718-1.688-41.352-1.772-62.07-.17-25.675-2.49-51.308-3.587-76.94-.844-26.226-.464-52.452-1.097-78.636-.633-34.233-2.827-68.424-4.261-102.615-2.026-45.25-.76-90.499-.802-135.791-.042-38.216-2.194-76.432-1.266-114.648.169-7.457.338-14.956.675-22.413.043-1.44.211-2.838.38-4.236 0-.085.127-.128.211-.17.38-.127.76-.127 1.14-.042.084.042.295.084.295.212-.085.762-.17 1.567-.254 2.33-.675 12.202-.801 24.404-1.012 36.606-.338 34.742 1.477 69.441 1.477 104.141-.085 47.664-1.266 95.371 1.139 142.993 1.56 31.733 3.333 63.425 3.924 95.159.633 25.124.253 50.248 1.012 75.373.76 20.379 2.448 40.673 3.25 61.01.548 13.812.295 27.624.927 41.393.97 23.049 1.52 46.055 1.857 69.103.042 2.246.127 4.491.211 6.737 0 .084-.127.127-.211.169-.295.169-.717.127-1.097.042zm78.395-543.456c-.084-.043-.295-.085-.295-.17a276.115 276.115 0 01-.211-10.253v-33.556c-.085-.466 1.603-.381 1.645-.084v10.168c.042 10.253-.084 20.506.127 30.802.042.974.042 1.949.084 2.966 0 .084-.126.127-.211.169a3.503 3.503 0 01-1.139-.042z"/><path d="M124.014 172.823c-.127-.043-.338-.043-.422-.17-.127-.169-.253-.296-.38-.466-.084-.085-.126-.169-.211-.254-3.628-4.195-7.257-8.431-10.886-12.626-4.008-4.66-8.016-9.278-12.025-13.939-4.177-4.83-8.354-9.66-12.489-14.532-4.177-4.873-8.396-9.745-12.573-14.575-4.135-4.83-8.312-9.66-12.447-14.49-4.262-4.957-8.566-9.914-12.827-14.913a3865.228 3865.228 0 00-12.573-14.575c-4.262-4.957-8.523-9.872-12.785-14.829-4.304-4.915-8.607-9.914-12.911-14.914-4.22-4.872-8.397-9.744-12.616-14.659-.76-.847-1.477-1.737-2.236-2.584-.169-.212.633-.297.717-.297.211 0 .422 0 .59.042.17.043.338.043.423.17 4.093 4.745 8.185 9.49 12.278 14.193 4.22 4.915 8.439 9.83 12.7 14.702a3874.43 3874.43 0 0012.574 14.575 3911.28 3911.28 0 0112.742 14.786c4.304 5 8.565 9.957 12.869 14.956 4.135 4.788 8.27 9.618 12.405 14.405 4.219 4.873 8.396 9.787 12.615 14.66 4.177 4.83 8.355 9.702 12.532 14.532 4.05 4.703 8.059 9.363 12.109 14.066 3.924 4.576 7.848 9.109 11.772 13.685.675.763 1.35 1.568 2.025 2.33.127.127.211.255.338.382.042.084-.042.169-.127.169a1.476 1.476 0 01-.59.127h-.169a.499.499 0 01-.422.043z"/><path d="M232.746 188.202l-14.768-.127a1811.15 1811.15 0 01-15.105-.169c-5.021-.043-10.084-.085-15.105-.17-5.063-.042-10.127-.085-15.19-.169-5.021-.043-10.042-.085-15.02-.17l-14.726-.127-14.472-.127c-1.055 0-2.11 0-3.165-.042-.168 0-.379 0-.548-.085-.084-.043-.295-.085-.295-.212 0-.085.126-.127.211-.169.21-.085.421-.085.632-.085l14.093.127 14.768.127c4.978.042 9.957.042 14.936.085 5.063.042 10.126.084 15.189.084 4.979.043 9.916.043 14.895.085 5.063.043 10.126.085 15.189.085l15.021.127 14.05.127c1.266 0 2.49.043 3.755.043.296 0 .591.042.844.084.127.043.464.127.464.297 0 .127-.211.212-.337.254-.338.127-.675.127-1.013.127-4.768.127-9.536.043-14.303 0z" stroke="#fff" stroke-opacity=".09" stroke-miterlimit="10"/><path d="M247.809 219.555c-.085-.042-.296-.085-.296-.254-.042-1.314-.126-2.669-.126-3.983-.043-3.643 0-7.33.042-10.973v-16.397c0-.127.126-.169.211-.212a1.52 1.52 0 011.139-.042c.084.042.295.085.295.254v14.109c0 5.762.085 11.524.085 17.244 0 .127-.127.169-.211.212-.338.169-.76.169-1.139.042z"/><path d="M717.966 198.625H334.642c-17.426 0-34.852 0-52.319-.042-6.287 0-12.532-.043-18.819-.085a447.137 447.137 0 00-7.594-.085h-7.595c-.169 0-.338 0-.506-.042-.085-.043-.296-.085-.296-.212 0-.085.127-.127.211-.17.211-.084.422-.084.633-.084h9.662c1.435 0 2.912-.043 4.346-.085 1.519-.042 3.038-.042 4.557-.042 8.312-.085 16.624-.085 24.936-.085h160.798c18.818 0 37.594 0 56.412.042 19.451 0 38.902.043 58.311.043 19.451 0 38.944.042 58.395.042h94.26c.253 0 .464 0 .717.042.253.043.549.085.802.255.126.084.084.211 0 .296-.422.297-1.013.297-1.519.297h-.591c-.464-.085-.97-.085-1.477-.085zm-358.683-18.049c-.127-.042-.422-.085-.422-.254.042-1.78.127-3.559 0-5.338-.295-3.432-.717-7.754-4.219-9.745-2.363.89-3.882 2.881-5.148 4.83-1.561 2.5-2.405 5.55-1.856 8.431 0 .127-.211.17-.296.212-.379.085-.886.085-1.223-.042-.633-.17-.296-2.5-.296-3.051.422-4.194 2.658-9.024 7.047-10.804 5.105-1.695 7.89 3.559 8.227 7.499.338 2.67.38 5.381.127 8.05 0 .127-.169.17-.253.212a3.787 3.787 0 01-1.688 0z"/><path d="M350.211 180.958c-.379.042-2.067-.255-1.054-.763 1.392-.381 2.911-.042 4.345-.17 1.224-.042 2.49-.127 3.713-.211.296-.085.76.042.929-.297-.76-.72-10.338-.381-10.084 1.017.042.381-.887.296-1.097.254-.085 0-.296-.042-.338-.169-.295-.721.886-1.017 1.308-1.144 1.603-.466 3.249-.805 4.894-.932 1.14-.128 7.89-.509 7.722 1.186-.633 1.483-8.608 1.186-10.338 1.229zm175.777 3.431c-.127-.042-.422-.085-.422-.297-.085-1.313-.211-2.584-.464-3.855-1.182-6.186-3.798-14.575-10.549-7.075-.717.889-1.434 1.864-1.772 2.965-.379 1.61-.379 3.305-.084 4.915 0 .085-.127.127-.211.169-.38.128-.76.128-1.139.043-.085-.043-.296-.085-.296-.212-.084-.508-.168-1.017-.168-1.525-.338-3.686 1.35-6.144 4.092-8.432 1.983-1.61 4.895-2.033 7.215-1.016 3.46 1.821 4.304 6.185 5.148 9.66.253 1.44.464 2.881.633 4.321 0 .127-.211.212-.296.254-.548.212-1.139.212-1.687.085z"/><path d="M521.937 184.982c-1.561-.169-3.165-.339-4.768-.339-1.266-.085-2.574.127-3.84-.169-1.645-.805 4.22-1.356 4.642-1.398 1.603-.17 3.206-.339 4.768-.594.59-.042 1.265-.042 1.814.212.591.339-.211.636-.549.636-2.109.339-4.261.466-6.413.72 2.447.212 4.852.508 7.257.72.085.043.296.085.296.212 0 .085-.127.127-.211.17-.929.169-1.983-.085-2.996-.17zm172.739-5.041c-.169-.043-.422-.128-.422-.297a50.845 50.845 0 00-1.182-5.72c-.675-2.457-2.827-7.838-5.78-7.838h.211c-1.393.085-2.447 1.102-3.418 1.991-2.7 2.754-4.683 6.906-3.755 10.847-.127.339-1.561.339-1.646 0-.421-1.483-.295-3.051.127-4.534.844-3.135 2.7-6.185 5.359-8.092 1.856-1.059 4.303-1.144 6.244-.339.802.424 1.477 1.059 2.11 1.737 2.658 3.008 3.713 7.16 4.177 11.101.042.296.042.593.042.889-.295.509-1.603.382-2.067.255z"/><path d="M683.495 181.254c-.718 0-1.477-.085-2.152-.339-.085-.042-.38-.169-.253-.296.295-.466.886-.509 1.392-.594 2.911-.423 5.949-.042 8.861 0 .886 0 1.814-.211 2.616-.677.295-.255.59-.509 1.012-.551a4.006 4.006 0 011.224-.043c.169 0 1.266.212.844.594a5.719 5.719 0 01-1.393.805c.253 0 .633.211.211.381-4.092.254-8.227.847-12.362.72zm-491.845-4.152c-.169-.042-.464-.127-.507-.339-.168-1.949-.253-3.855-.633-5.762-1.772-8.897-6.877-6.694-10.97-.763-1.055 1.737-1.308 3.856-1.266 5.847-.126.339-1.518.339-1.645 0-.127-3.262.97-6.482 3.249-8.77 1.266-1.525 2.996-2.627 4.936-2.966 5.95-.805 8.228 3.135 8.777 8.431.168 1.356.211 2.67.337 4.025-.211.509-1.772.424-2.278.297z"/><path d="M190.848 179.263c-3.165-.339-6.371-.636-9.536-1.017-.759-.127-1.477-.212-2.236-.509-.169-.084-.591-.169-.591-.593-.042-.762.928-.889 1.224-.974 2.785-.72 5.569-.975 8.396-1.017.844.042 1.983-.508 2.658.593.211.763-1.012.932-1.181.932-2.405.17-4.768.043-7.173.551 3.038.763 6.118.72 9.156 1.229 1.139.593-.38 1.059-.717.805zm115.82 397.964c-.295-.042-.717-.085-.971-.297-1.308-1.101-2.658-2.16-3.966-3.304-5.822-.636-.717-3.856-8.734-8.898-1.476-.127-2.953.509-4.388-.042-1.097-.339.675-1.822.928-2.33-.295-.212-.59-.466-.886-.678a8.23 8.23 0 01-3.797.254c-.338-.042-.97-.085-1.055-.466-.126-1.101.802-1.906 1.182-2.881l-1.646-1.525a14.161 14.161 0 01-.759-.805c-1.646.72-3.291 1.906-5.148 1.483-.253-.043-1.055-.212-.717-.593 1.266-1.271 2.658-2.373 3.797-3.729a5.463 5.463 0 01-.464-.847 14.965 14.965 0 01-.759-1.907c-2.026.424-4.178.763-6.245.297-.127-.043-.38-.127-.38-.297-.042-.423-.084-.932.296-1.228 1.561-1.271 3.417-2.161 5.147-3.22-.548-3.093-.591-6.271-.591-9.406-.717-.297-1.603-.593-1.729-1.483-.085-.975 1.054-1.356 1.687-1.822-.211-6.779-2.447-15.168-8.438-19.023-.76-.424-2.194-1.356-.718-1.949 4.768-1.78 9.831.593 13.882 3.008 1.899 1.441 4.177 3.983 4.219 6.482-.295 4.237-2.911 7.923-5.907 10.762 0 .169.042.296.042.466.085 1.144.085 2.288.085 3.432 1.772.55 10.126 1.144 9.746 3.516-.548 1.059-1.814 1.441-2.658 2.161-2.109 1.356-4.261 2.627-6.413 3.94.169.89.38 1.78.633 2.669a5.98 5.98 0 011.73-.127c.675-.254 1.434-.254 2.151-.127.296.043.591.127.802.339 1.097 1.398 1.941 2.966 2.996 4.407 3.375 4.872 6.877 9.659 10.422 14.362 1.308 1.695 2.531 3.517 4.008 5.042 2.152.043 4.641-.508 6.624.678.591.72.38 1.907 1.182 2.5.379 0 .844-.085 1.181.169.253.212-.422.339-.506.339-.844.085-1.73.085-2.447-.381-.507-.339-.844-.89-1.098-1.398-.21-.339-.295-.89-.717-1.017.042 0 .042 0 .127.085-1.055-.382-2.279-.043-3.418-.085 1.182 1.059 2.447 1.991 3.629 3.008.759.424-1.646.551-1.941.466zm-19.536-16.524c.085-.042.211-.042.296-.084a.737.737 0 01-.211-.17c0 .085-.042.17-.085.254zm1.477-1.991c-.042-.127-.126-.254-.169-.339-.042.043-.042.085-.084.127.084.043.169.127.253.212zm-2.574-2.415c.211-.593.507-1.186.296-1.822-.169.085-.296.127-.464.212-.296.127-.549.254-.844.382.253.381.675.889.928 1.143.042.043.084.043.084.085zm-1.898-2.584c.506-.254 1.055-.339 1.603-.466-.084-.212-.211-.382-.295-.593-.127-.212-.211-.424-.338-.636-.169.212-.38.424-.548.636v-.043c-.211.254-.422.466-.633.72.042.17.126.297.211.382zm-1.435-2.966c.127-.297.211-.593.338-.89-.169.043-.38.085-.591.127l.253.763zm-6.835-.593h.084c1.055-.17 2.068-.424 3.123-.636a5.557 5.557 0 01-.211-.805 5.557 5.557 0 01-.211-.805c-.675.382-1.519.932-2.11 1.314-.338.212-.759.466-.675.932zm5.063-8.898c.042 1.017.127 2.034.295 3.051 2.11-1.271 4.304-2.5 6.245-4.025 1.35-1.737-5.612-2.373-6.666-2.754.042 1.271.042 2.5.126 3.728zm-8.65-26.522c4.979 3.517 7.511 10.211 8.186 16.1 1.645-1.907 3.164-4.025 3.797-6.482.338-1.229.633-2.5.253-3.729-.801-1.949-2.194-3.728-3.923-4.957-2.659-1.44-5.443-3.093-8.566-3.178-.464 0-1.983.085-2.025.678.506.721 1.561 1.017 2.278 1.568z"/><path d="M316.583 576.507c-.126 0-.38-.043-.422-.17-.422-.974-.801-1.949-1.266-2.881-.295-.127-.633-.424-.379-.763-.085-.211-.169-.423-.296-.593-1.012-.042-5.147.339-5.021-.974-2.025-.763-4.008-1.652-6.075-2.373-.76-.084-1.519-.169-2.237-.508-.084-.043-.211-.127-.211-.212.591-.89 3.291-.297 4.262-.042 1.308.127 2.658.211 3.966.254-.253-1.864-.084-3.771.295-5.635a179.261 179.261 0 00-6.329-10.592c-.464-.297-.97-.593-1.392-.932-1.055-.297-2.194-.466-3.249-.805-.802-.382 1.308-.636 1.561-.678-.633-.636-1.139-1.441-1.35-2.288-.042-.085.042-.127.084-.17.465-.296 1.097-.381 1.646-.296 1.139.212 1.73 1.398 2.405 2.161.506-.127 1.013-.255 1.561-.382-.675-.889-1.519-2.076-.886-3.22.928-1.567 2.489-2.796 3.629-4.236-1.688-.297-3.46-.424-5.19-.594-1.688.212-3.418.382-5.148.212-.717-.084-1.434-.127-1.983-.593-.506-.508 2.237-.635 2.532-.593 1.266 0 2.489.212 3.755.212 1.477-.254 2.954-.509 4.346-1.017 2.363-1.186-.549-3.517-2.067-4.025a50.646 50.646 0 00-3.292-1.144c-1.476-.424-3.502-.678-4.134-2.203-.169-.89.421-1.737.843-2.5 1.266-2.33 3.291-4.237 4.22-6.694.379-1.398-.296-2.754-.971-3.983-.337-1.016.085-2.076.591-3.008 1.519-2.33 4.093-3.813 6.245-5.635.506-.296 1.139-.296 1.687-.212.085 0 .718.128.549.339-.422.424-.971.763-1.139 1.356-.254 1.271.886 2.458 1.898 3.22.549.127 1.013.466 1.139.975.127 1.228-.675 2.372-1.139 3.474-.633 1.356-1.308 2.711-1.772 4.109-1.392 3.814.422 7.669 2.7 10.762 2.321 2.754 1.519 5.127-.632 7.669 1.772.847 4.135 2.965 2.489 4.83-1.392 1.186-3.333 1.61-5.021 2.203 1.308 1.652 3.671 2.033 5.063 3.601 2.363 2.288 1.814 5.381.717 8.092a19.888 19.888 0 00-.928 4.661c.211.424.464.847.718 1.313.421.721.801 1.483 1.181 2.246 1.73.212 3.207.381.802 1.567.211.382.422.805.632 1.187 1.14 0 2.026-.17 3.081.085.337.084.632.169.843.423.085.085 0 .212-.084.254-.422.466-1.308.594-1.603 1.144.759.466-.591.721-.971.721.38.847.718 1.694 1.097 2.542-.042.466-1.139.381-1.35.339zm-3.544-5.466c0 .043 0 .042-.042.085h.801a7.17 7.17 0 00-.295-.551c-.169.085-.338.17-.464.254v.212zm-3.797-1.525c-.043-.17-.085-.254-.085-.381-.337 0-.675-.043-1.055-.043.38.127.76.297 1.14.424zm3.08-1.229c-.043-.085-.085-.127-.127-.212 0 .085 0 .127.042.212h.085zm-5.654-13.176c.675 1.144 1.392 2.245 2.067 3.432.338.635.717 1.271 1.055 1.864.211-.763.506-1.483.759-2.246.338-1.228.465-2.457.127-3.686-1.645.551-3.46-.169-4.937-.89.296.509.633 1.017.929 1.526zm2.574-1.017c.042-.085.084-.127.126-.212-1.181-1.186-3.122-1.483-4.599-1.949 1.435.847 2.869 1.822 4.473 2.161zm-4.853-2.966c1.815.551 3.671.975 5.401 1.737-1.181-1.779-3.586-2.203-5.105-3.686l-1.646.381c.085.128.169.212.253.339.296.382.549.805.802 1.187.127-.043.211 0 .295.042zm-3.966-1.017c-.042-.042-.084-.042-.084-.085-.042 0-.127.001-.169.043.084 0 .169.042.253.042zm6.118-2.838c.085.169.211.339.296.466l.042.042c3.713-1.102 6.329-2.669 2.405-5.72-.675.763-1.35 1.526-2.068 2.288-.759.805-1.308 1.907-.675 2.924zm-2.067-7.034c.97.128 1.941.212 2.869.382.506-.636.97-1.314 1.266-2.076-1.266 1.101-3.08 1.271-4.684 1.652.211 0 .38.042.549.042zm-1.604-6.99c2.279.805 5.359 1.61 6.076 4.109.296-1.525-.802-2.838-1.645-4.067-1.435-2.288-2.743-4.83-2.659-7.584.085-2.5 1.351-4.83 2.448-7.075.464-1.06 1.223-2.119 1.139-3.305-.085-.169-.169-.339-.295-.466-1.14-.339-1.899-1.398-2.363-2.373-1.604 1.398-3.502 3.22-3.038 5.466.506.974 1.35 1.779 1.434 2.881.422 1.779-.97 3.347-1.941 4.745-1.097 1.568-2.405 3.22-3.08 4.915-.084.296-.168.551-.126.847.759 1.441 2.742 1.398 4.05 1.907z"/><path d="M322.448 575.956c-.591-.127-.675-.296-.506-.89.295-1.652.042-3.304-.169-4.957-.38-.042-.928-.084-1.181-.381-.549-1.652.337-3.389.759-4.957-.675-1.864-.802-3.898-1.055-5.889-1.223-.805-1.392-1.907-.211-2.881-.042-3.347-1.434-6.483-3.628-8.982-.422-.509-1.182-.932-1.435-1.568-.126-1.144 2.152-1.059 2.911-1.101.043-.678.802-.89 1.351-1.017.042-3.983.253-6.822 4.894-7.415-2.067-.678-4.43-1.228-6.034-2.796-.97-1.525 1.013-1.737 2.11-1.78-6.498-6.143-3.797-5.592 3.038-4.279-.38-1.271-.633-2.923.295-4.067-2.489-1.186-3.417-5.593.085-5.889.97-.085 1.983.084 2.658.847 1.224 1.61 2.067 3.559 2.911 5.423 1.983-.296 2.912.72 3.291 2.627.422 1.652.718 3.347 1.013 5.042.97 6.143-7.046 2.839-10.084 1.822.169.296.211.678.211 1.059-.169.339-.886.254-1.224.254 1.604.636 3.249 1.102 4.895 1.483.843-.042 1.687 0 2.531.127.211.042.591.085.675.297.127.254-.337.381-.464.423-.928.212-1.856.212-2.827.085-4.768 0-4.725 2.754-4.81 6.652.591.127 7.089.847 6.245 1.695-.802.678-1.899.678-2.912.678a41.875 41.875 0 01-3.248 0c0 .169 0 .296.042.466 2.194 1.186 4.768 2.245 7.004 3.22.422.169.928.423 1.055.932.548 1.949-4.937 4.279-6.372 5.338.169.847.38 1.695.549 2.542.084.466.211.932.295 1.398.549.339 2.321.509 2.068 1.398-.253.297-.549.551-.802.805a6.701 6.701 0 00-.802 1.102c-.126.805-.168 1.949-1.012 2.288-.042.169-.127.381-.169.551.042.042.042.042.042.084.042.085.085.17.085.255.422 0 .886 0 1.265.127.127.042.591.169.591.381-.169 1.568-.337 3.093-.506 4.661-.169 1.482-.338 2.965-.717 4.406-.38.678-2.026.551-2.701.381zm.38-27.624c.084.593.169 1.144.253 1.695.253 1.186.506 2.415.76 3.601 1.054-.763 3.67-1.822 3.502-3.305-.211-.466-.844-.508-1.182-.72a80.523 80.523 0 01-3.375-1.483.385.385 0 01.042.212zm-3.376-1.737v-.212c-.379-.254-.801-.551-1.097-.932.043.085.085.17.169.212l-.084-.085 1.012 1.017zm4.684-1.949c-.549-.085-1.055-.169-1.603-.254v.212c.253 0 .548.042.801.042h.802zm6.287-10.507c2.067-.339 1.012-3.602.801-4.957-.211-1.017-.379-2.034-.675-3.051-.211-.72-.38-1.525-1.012-1.991.759 1.864 1.73 5.042-.591 6.186-2.068.889-4.388-.297-5.274-2.288-1.772-.382-3.587-.805-5.359-1.144.042.72.718 1.271 1.097 1.779.971 1.017 1.983 1.992 2.954 3.008 2.7.678 5.274 1.992 8.059 2.458zm-8.439-.127c.084-.763-.38-1.356-.928-1.822-.253-.043-.507-.17-.76-.043v-.042a.6.6 0 00-.084.127c-.042.975 1.055 1.356 1.772 1.78zm5.443-3.983c.844-.297 1.139-1.271 1.181-2.076a2.918 2.918 0 01-.548.212c-.802.254-1.646.212-2.447.127.422.763 1.012 1.44 1.814 1.737zm-.97-2.415c1.181-.635-.76-3.093-1.182-3.855-.084-.043-.169-.043-.253-.085-.506 1.228-.253 2.627.211 3.771.38.084.802.169 1.224.169zm.295-5.211c.126.042.211.085.337.127-.379-.805-.759-1.61-1.223-2.415-.464-.847-.886-1.907-1.772-2.373-1.519.89-.844 3.136.168 4.195.549-.085 1.097-.127 1.604.127.126.085.253.169.337.254.211 0 .38.042.549.085zm7.932 54.104c-.211 0-1.181-.085-1.055-.466.042-.128.042-.255.084-.339-.97 0-1.983.084-2.911-.127-1.139-.297-.844-.89.169-1.102 1.181-.212 2.152-.339 3.249-.508.169-.678.38-1.399.548-2.076 0-.043.042-.085.042-.128-.379-.466-.97-.381-1.476-.677-.127-.085-.253-.17-.169-.339.422-.975.928-1.949 1.35-2.924-.928-2.034-.928-3.643 1.561-4.152a49.784 49.784 0 001.224-4.279c-.928-1.822-2.236-3.601.886-3.729.127-.508.211-.974.337-1.44-1.012-2.627-2.025-5.677-.97-8.431.633-1.271 2.278-1.61 3.586-1.737.085-.339.169-.636.296-.975-1.055-.72-2.236-1.271-3.165-2.203-.379-.381.464-.551.718-.593 1.054-.212 2.194-.127 3.206.296.169-.423.338-.932.76-1.144-.928-1.186-4.726-4.872-1.899-5.719-.675-.678.084-1.229.802-1.314-.886-1.398-1.688-2.838-2.49-4.321-.59-.932-1.35-2.076.38-2.203 1.435-.212 2.911.254 4.304-.127 1.856-1.102.464-3.771-.675-4.915-.591-.848-1.73-.932-2.49-1.568-.59-.593-.337-.89.422-1.017 1.561-.296 3.165.339 4.177 1.526.971.381 1.983.762 2.996 1.016.338.043.76.212 1.097 0a47.466 47.466 0 01-1.139-3.177c-.464-.297-1.097-.509-.211-.805-.295-1.229-.971-3.135.422-3.94 1.856-.636 3.502.72 4.641 2.033.802.932 1.857 1.737 2.279 2.966.042.127.126.381.042.508-.844 1.017-2.49.678-3.629.467.717.974.802 2.033-.422 2.542 1.182 2.965 2.321 5.931 3.544 8.897.38.974.802 1.907 1.224 2.881.295.636.591 1.313.295 1.991-.126.297-.59.254-.844.254-2.025.212-3.923-.635-5.696-1.482-2.658-1.271-5.232-2.67-7.848-4.025.718 1.271 2.026 2.16 3.038 3.22 1.857.847 3.502 2.16 5.19 3.347.506.381 1.055.762 1.35 1.313.169.212-.422.339-.548.381-.802.17-1.604-.042-2.321-.423-1.983.423-3.755-.636-5.274-1.822 1.055 1.695 2.405 3.22 3.84 4.66 1.012 1.06 2.236 2.076 2.658 3.517.084.297-.338.424-.549.466-1.223.297-2.531 0-3.671-.424-.295.551-1.012.636-1.561.763a339.311 339.311 0 00-2.405 9.363c.633 1.441 1.351 2.881 2.405 4.068.085.084 0 .212-.084.254-1.013.551-2.363.424-3.376-.127-.084.296-.126.593-.21.889 1.561 2.839 3.333 4.407-1.224 5-.084.339-.169.636-.253.974-.296 1.144-.549 2.246-.844 3.39.295.042.97.127.844.424-.085.254-.211.466-.296.72 1.393 1.949 2.743 3.432-.379 4.448-.127.933-1.224 1.06-1.941 1.229-.085.254-.169.466-.253.72-.507.339-1.224.255-1.688.255zm10.844-34.361a2.443 2.443 0 00-.465-.466c-.042.085-.042.169-.084.212.211.085.38.169.549.254zm9.282-7.287c.253-.721-.253-1.398-.506-2.034a77.577 77.577 0 01-1.182-2.754c-1.139-2.754-2.236-5.55-3.333-8.346-1.013.084-2.025 0-3.038-.212.844 1.186 1.224 3.093 0 4.194-1.772 1.314-4.177.805-6.244.72-.169.933.632 1.738 1.012 2.543 2.11.338 3.84 1.694 5.781 2.542 2.447 1.186 4.894 2.838 7.51 3.347zm-1.308-16.354c1.224-.551-3.122-4.703-3.797-5.085-.675 1.102-.085 2.415.168 3.602.422.212.802.466 1.14.805.801.254 1.645.593 2.489.678z"/><path d="M345.781 575.914c-.169 0-1.223-.085-1.055-.467.422-.889.844-1.821 1.224-2.711-.591.042-1.139 0-1.688-.17-.126-.042-.38-.127-.38-.296-.084-.805-.126-1.652.169-2.415 1.097-3.135 2.658-6.059 4.093-9.067 3.544-7.118 7.173-14.236 10.97-21.226-2.405-3.178-1.603-4.788 2.405-4.322.296-.508.591-1.059.886-1.568-1.266-1.059-2.447-2.203-3.502-3.474-.675-.762-.886-1.737-1.055-2.711 0-.085.085-.17.169-.17 2.447-1.652 5.317-.254 7.764.678.633-.932 1.097-1.949 1.814-2.839a102.541 102.541 0 01-2.743-3.262c-.379-.551-1.223-1.313-.759-1.991a66.448 66.448 0 01-2.363-2.5c-.422-.466-.97-.89-1.055-1.568.338-2.372 5.443.043 6.836.424-.127-1.652-.76-3.305-2.11-4.364-.591-.678-1.392-1.313-1.561-2.203-.085-.593 2.025-.593 2.405-.508 1.73.339 2.236 2.288 2.911 3.686.76.72 1.519 1.398 2.279 2.033 1.434 1.356 3.08 2.458 4.472 3.856.169.169-.042.296-.211.339-2.025.508-4.05-.551-5.991-1.144-.675 1.313-2.237 1.483-3.502 1.864 1.392 1.398 2.827 2.839 4.261 4.195 1.139.127 1.266.169 1.35 1.313a141.156 141.156 0 005.19 4.83c.464.381.886.763 1.181 1.313.169.255-.59.382-.675.382-2.405.466-4.767-.424-7.046-1.102-.675 1.907-1.308 3.813-1.983 5.677.506.466 1.181.636 1.646 1.102.337.551.084.763-.465.847-.59.127-1.223.043-1.814-.127a72.207 72.207 0 01-1.055 2.754 42.24 42.24 0 01-1.055 2.458c4.515 5.973-4.683 13.134-8.733 16.693-1.055.932-2.152 1.821-3.207 2.711a60.323 60.323 0 01-2.194 4.364c-1.477 2.712-2.701 5.593-4.262 8.262-.422.466-1.055.424-1.561.424zm6.624-17.371c-.717 1.525-1.476 3.008-2.194 4.533 1.562-1.864 2.194-4.364 3.207-6.567l-1.013 2.034zm10.549-9.703c-1.646 2.881-3.502 5.635-5.443 8.304 2.911-2.753 6.329-5.973 6.54-10.21-.38.635-.718 1.271-1.097 1.906zm-2.827-4.745c.084.042.506.127.464.297-.506 2.626-1.477 5.084-2.363 7.584 1.688-2.67 3.291-5.424 4.599-8.305-.422-.423-.886-.847-1.308-1.271-.211-.169-.38-.381-.548-.593l-.886 1.653c-.085.169-.211.381-.296.55.127.043.253.085.338.085zm3.586-2.5a56.915 56.915 0 001.393-3.77c.042-.085.042-.17.084-.255-.127-.042-.211-.084-.338-.127-.421-.127-.843-.296-1.308-.466a.915.915 0 01-.126.212c-.422.763-.844 1.568-1.308 2.373.38.55.759 1.059 1.181 1.567.169.212.296.339.422.466zm-3.122-5.041c-.042.127 0 .254 0 .338.127-.254.295-.508.422-.762-.085-.043-.169-.043-.295-.085l-.127.254c0-.042 0-.042.042-.084 0 .127-.042.254-.042.339zm3.924-.424c.38.127.717.254 1.097.381.042-.085.042-.127.084-.212-.084-.084-.168-.127-.253-.212a13.331 13.331 0 00-.886-.72c-.126.212-.253.424-.337.636.084.042.168.084.295.127zm1.519-1.525c.084.042.126.127.211.169.084-.212.169-.424.211-.636.506-1.398.97-2.838 1.434-4.236-.042-.043-.126-.043-.168-.085a68.371 68.371 0 00-1.73 3.008c-.211.424-.464.805-.675 1.229.253.169.464.339.717.551zm-2.785-2.331c.591-1.059 1.224-2.076 1.814-3.093.043-.084.127-.211.169-.296-1.477-.593-2.996-1.229-4.557-1.61-.211.127-.422.212-.633.339.254 1.991 1.815 3.347 3.207 4.66zm12.616-.932c-1.308-1.483-2.954-2.711-4.346-4.109a43.372 43.372 0 01-.717 2.499c0 .043-.043.085-.043.127 1.646.636 3.46 1.229 5.106 1.483zm-10.337-12.202c.97-.212 1.814-.89 1.94-1.906a158.833 158.833 0 00-4.177-1.441l-.506-.127c-.127.381.211.763.38 1.017.801.762 1.561 1.652 2.363 2.457zm6.835-1.228c-.802-.551-1.519-1.187-2.236-1.78.042.339 0 .678-.043.975.76.254 1.519.55 2.279.805zM318.398 531.3c-2.532-.339-5.148-1.314-6.583-3.559-2.362-3.983-1.139-9.321 1.815-12.668 2.7-3.263 7.637-4.873 11.476-2.797 2.405 1.398 3.629 4.152 4.262 6.737.295 1.059.38 2.203.801 3.22 1.055.424-1.35.635-1.561.296-.211-.169-.295-.466-.337-.72-.338-1.186-.507-2.415-.844-3.559-.802-2.796-2.7-5.762-5.781-6.186h.169c-2.194-.169-4.135 1.356-5.569 2.924-4.895 5.423-3.966 15.888 4.894 15.549 3.207.085 4.43-4.915 4.135-7.499 0-.17.253-.254.38-.297.38-.127.801-.169 1.181-.169.338 0 .675.042 1.013.127.169.042.506.127.548.381.38 2.5-.464 5.169-2.194 6.991-2.152 1.779-5.232 1.483-7.805 1.229z"/><path d="M364.261 527.19c-3.797-.762-8.902-2.203-9.535-6.736-.211-3.517 2.7-6.483 5.907-7.372 2.995-.89 6.751-.509 8.776 2.076 1.856 2.288 2.742 5.508 1.772 8.346.422-.169 2.743-.254 2.616.466-.844 1.441-2.11 2.839-3.755 3.305-1.857.593-3.924.339-5.781-.085zm3.46-.55c.506-.128.928-.466 1.308-.805-.169-.043-.548-.043-.633-.255 1.435-1.567 1.35-4.152.844-6.101-1.645-4.914-5.358-8.346-9.747-3.728-2.573 2.923-2.236 6.694 1.14 8.77 2.109 1.271 4.641 1.737 7.088 2.119zm-93.837 7.753c-3.502-.508-7.679-2.415-8.27-6.313-.506-3.686 2.954-6.694 6.413-6.779 2.448-2.711 6.751-3.686 10.127-2.372 1.519.805 2.995 1.864 3.966 3.347 2.067 3.05.97 7.287-1.772 9.533-2.827 2.457-6.836 3.093-10.464 2.584zm2.405-.72c5.907-.212 10.422-7.075 6.118-11.99-1.013-.975-2.068-1.907-3.376-2.288-1.687.127-2.911 1.356-4.134 2.288 2.447.805 4.219 3.432 3.755 6.058-.085.551-.296 1.102-.338 1.653 0 .085-.126.127-.211.169-.38.127-.844.127-1.223.043-.085-.043-.338-.085-.296-.212.042-.339.127-.72.211-1.059.717-2.585-.844-5.551-3.417-6.356-.718-.211-1.435-.084-2.11.212-2.405 1.017-3.797 3.94-2.996 6.44 1.097 3.305 4.726 5.042 8.017 5.042zm40.125 43.85c-4.135-.212-8.354-.508-12.362-1.61.464-1.144 3.713-.339 4.852-.296 5.401.678 10.379.72 15.738.593a175.128 175.128 0 0020.126-1.864c1.561-.085 4.388-1.187 5.232.423-10.717 2.585-22.404 2.839-33.586 2.754z"/><path d="M350.085 617.181c.337-12.838-.338-27.37-.971-40.801-13.881 2.076-28.733 2.542-42.446-.339-.211-.339 1.013-.424 1.139-.424.422 0 .844 0 1.182.255 11.56 1.864 23.543 1.313 35.146.042 3.038-.127 5.865-3.178 8.903-1.398 1.35 5.931.422 12.414.591 18.472-.464 2.924.675 26.862-3.544 24.193z"/><path d="M328.946 622.01c-7.3-.424-15.063-.508-21.814-3.771-3.544-2.033-3.418-6.821-3.671-10.507-.126-8.092.127-16.185.591-24.277.38-1.525-.127-6.736 1.477-6.906.379-.042 1.476-.127 1.476.424-.464 2.711-.675 5.508-.801 8.262.422 7.244-3.587 30.801 4.008 33.216 9.578 3.135 20.042 3.474 29.957 2.119 2.49-.382 4.979-.933 7.384-1.738 1.392-.423 2.954-1.737 4.346-.677-6.835 3.347-15.401 3.897-23.038 3.897-.042-.042.085-.042.085-.042z"/><path d="M327.849 621.375c-.929.593-29.198-2.542-20.464-3.05 10.084.805 20.211 2.499 30.379 1.44 2.827-.254 5.654-.635 8.396-1.483 2.195-.678 4.515-2.33 6.794-1.059-4.557 4.322-18.608 4.11-25.105 4.152z"/><path d="M168.697 626.416c-17.384-6.44 2.7-10.761 10.041-12.202 16.076-3.813 32.447-4.999 48.818-6.567 21.054-2.203 42.193-3.601 63.374-2.33 4.515.339 9.367.254 13.966.762-.042.339-.042.678-.084 1.017-.929-.127-1.857-.296-2.743-.254-7.553-.593-15.105-.678-22.658-.763-38.691-.889-194.341 16.355-55.484 24.659 74.682 5.38 149.406-.721 224.088-1.907 18.143-.805 36.244-2.5 54.26-4.872 2.827-.763 7.047-.17 8.65-3.008-1.35-9.067-40.21-10.931-48.86-12.202-36.497-2.966-73.247-2.754-109.828-3.22-7.426-2.373 13.712-1.865 29.366-1.399 8.017.255 14.599.509 15.232.339 22.109.128 44.218.678 66.243 2.585 15.4 1.652 31.181 2.669 45.948 7.626 9.916 3.559 10 9.025-1.266 10.296-31.813 5.126-64.049 5.635-96.158 6.355-39.282 1.737-78.563 3.008-117.845 3.262-41.645-.593-84.133-.72-125.06-8.177z"/><path d="M309.199 606.758c.169.042.338.085.549.127-.211.085-.38.169-.591.254 0-.127.042-.254.042-.381zm35.443 31.945c-44.05-.084-88.099-.805-132.065-3.304-14.388-1.356-28.564-1.568-42.573-4.957-2.784-.805-6.118-1.738-7.468-4.491-.675-1.949 1.73-2.288 2.954-1.483-1.182 7.541 34.387 8.092 40.463 9.236 26.793 2.245 53.67 2.542 80.504 3.474 51.096 1.102 102.234.932 153.246-2.627 19.451-.974 38.986-1.694 58.226-5.042 3.418-.805 6.793-1.948 9.789-3.813 1.603-1.61 3.713-2.711 5.992-1.652.253.127.464.381.168.593-5.654 3.94-12.489 5.677-19.24 6.567-14.261 1.907-28.607 2.966-42.995 3.771-35.695 1.949-71.306 4.194-107.001 3.728zm-271.471 9.999c-1.35 0-2.49-.762-2.87-2.033-.252-.721-.463-1.441-.716-2.204-.338-1.059-.675-2.076-1.013-3.135-.253-.762-.464-1.525-.675-2.245-.211-.721-.422-1.398-.633-2.119-.253-.932-.506-1.864-.76-2.838-.253-1.017-.464-2.034-.717-3.051-.169-.805-.337-1.568-.506-2.373-.169-.847-.38-1.737-.549-2.584v-.254c-.042-.848-.126-1.653-.168-2.5-.043-.974-.085-1.991-.127-2.966v.085c0-1.017.042-2.034.042-3.05 0-.085 0-.212.042-.297v-.127c1.815-3.347 4.98-5.762 9.452-6.186 6.708-1.356 13.502-2.669 20.379-2.542 21.139 1.271 16.919 10.38 4.936 22.201-5.4 4.788-18.944 18.261-25.864 18.261-.126-.043-.21-.043-.253-.043zm5.232-34.615c-5.063 4.534 3.84 8.855 4.936 13.177 1.098 7.88-13.121 11.651-9.198 20.252 7.215-3.94 35.485-25.336 31.519-34.022-3.84-1.567-8.06-2.245-12.32-2.245-5.148.042-10.338 1.059-14.937 2.838zm-.76-2.669c-14.472 1.483-11.392 18.854-7.383 28.514.126.339.253.72.38 1.059 1.772-4.787 7.932-8.219 7.257-13.685-1.097-3.135-4.304-4.999-5.486-8.134-3.586-9.787 25.274-9.364 30.717-7.839-3.164-1.61-6.54-2.16-9.957-2.16-5.232.042-10.549 1.313-15.528 2.245zm31.857 92.575c-8.65-.339-18.059-.297-25.95-3.983-.716-7.923 7.47-12.202 13.63-14.913 14.556-6.525 30.8-7.5 46.454-8.516 6.793.042 43.206-2.627 38.733 9.193-11.476 18.515-52.994 17.583-72.867 18.219zm7.721-1.102c15.316-.593 30.674-1.44 45.4-5.804 13.67-4.025 26.75-17.837 3.46-18.981-17.426-1.356-77.382-1.059-79.619 21.692 9.747 3.856 20.633 3.008 30.928 3.093h-.169z"/><path d="M111.82 707.848c-7.468-.55-25.61 1.526-28.733-6.439-.253-.763-.127-1.483.844-1.441 3.881-.593-.465 4.067 8.65 5.847 14.134 2.033 28.606 1.101 42.783.551 15.78-2.034 36.666-2.5 43.501-19.829 0-.932.844-1.144 1.604-1.101.506.042 1.223 0 1.434.466-4.472 13.812-19.873 18.303-32.868 19.659-12.321 2.118-24.768 2.372-37.215 2.287zM47.138 816.819c-.127-.042-.549-.127-.506-.339.928-6.567 1.856-13.134 2.784-19.743l2.912-20.718c1.012-7.034 1.983-14.067 2.995-21.1 1.013-7.118 2.026-14.278 3.038-21.396a3829.746 3829.746 0 013.08-21.692c1.013-7.076 1.983-14.194 2.996-21.269 1.013-7.076 1.983-14.193 2.996-21.269a3711.909 3711.909 0 002.995-21.353c.127-.933.254-1.907.38-2.839.042-.17.211-.254.338-.297.337-.127.76-.169 1.097-.169.295 0 .633.042.928.084.127.043.549.128.506.339-.928 6.737-1.898 13.431-2.827 20.125-1.012 7.118-2.025 14.194-2.995 21.312l-3.038 21.607c-1.013 7.203-2.025 14.363-3.038 21.566-1.013 7.118-2.025 14.278-3.038 21.396-1.013 7.033-1.983 14.108-2.996 21.141-.97 6.906-1.94 13.855-2.953 20.761-.97 6.863-1.941 13.685-2.912 20.548a3.723 3.723 0 00-.084.678c-.084.466-.127.932-.21 1.398-.043.255-.085.466-.085.721-.042.169-.211.212-.338.296-.337.127-.76.17-1.097.17a1.399 1.399 0 01-.928.042zm5.063 1.017c-.042 0-.295-.084-.253-.169l.127-1.017c.675-4.915 1.35-9.829 2.067-14.744.928-6.652 1.857-13.261 2.785-19.913.97-6.864 1.899-13.727 2.869-20.549.97-7.033 1.94-14.108 2.953-21.141.971-7.034 1.941-14.067 2.912-21.057.97-6.864 1.898-13.728 2.869-20.549.97-6.906 1.94-13.854 2.87-20.76l2.91-21.1c.38-2.838.802-5.677 1.182-8.516 0-.085.084-.127.169-.127.168-.085.38-.085.548-.085.169 0 .338 0 .464.043.042 0 .296.084.253.169-.928 6.779-1.898 13.558-2.826 20.295-.971 6.863-1.9 13.727-2.87 20.591-.97 6.906-1.898 13.769-2.869 20.675-.97 7.033-1.94 14.024-2.911 21.057-.97 6.991-1.941 14.024-2.911 21.015-.97 6.991-1.941 13.939-2.912 20.887-.928 6.822-1.899 13.601-2.827 20.422-.886 6.228-1.73 12.498-2.616 18.727-.21 1.525-.422 3.05-.633 4.618-.042.381-.126.762-.168 1.144 0 .084-.085.127-.17.127-.168.084-.379.084-.548.084-.168-.084-.337-.084-.464-.127z"/><path d="M48.404 817.074c-.549-.127-.549-.424 0-.551 1.139-.423 2.405-.551 3.502-1.101.337-.127.717-.085 1.055-.043.084 0 .253.085.253.17 0 .127-.253.212-.338.254-1.476.508-2.869 1.695-4.472 1.271zM82.116 712.89c-.084 0-.253-.085-.253-.17.169-2.754.38-5.55.548-8.304.211-2.881.38-5.804.591-8.685.211-2.839.38-5.678.59-8.516.212-3.136.423-6.271.634-9.364.21-3.093.421-6.228.633-9.321l.632-9.533.633-9.448c.17-2.499.338-4.999.507-7.499 0-.085.126-.127.168-.169.17-.085.38-.085.549-.085.169 0 .337 0 .464.042.084 0 .253.085.253.17-.21 3.093-.422 6.143-.633 9.236-.21 3.178-.422 6.355-.633 9.533-.21 3.135-.422 6.27-.633 9.363l-.632 9.279-.633 9.278c-.211 2.797-.38 5.635-.549 8.432-.21 2.923-.38 5.889-.59 8.812-.17 2.246-.296 4.491-.465 6.737 0 .085-.126.127-.168.169-.17.085-.38.085-.549.085-.126 0-.295 0-.464-.042zm4.177-1.271c-.126 0-.675-.042-.59-.339.042-.085.042-.17.084-.297.422-2.245.464-4.575.633-6.863.464-7.076.97-14.151 1.308-21.227.548-9.617 1.266-19.193 2.025-28.768.464-5.719 1.055-11.566.507-17.328-.085-.043-.212-.127-.212-.212.043-.127.043-.297.127-.382.295-.254.717-.211 1.055-.169.337.042.464.297.464.678.253 2.33.253 4.66.169 6.991-.59 12.117-1.52 24.192-2.11 36.309-.422 9.406-.886 18.812-2.067 28.133-.127 1.059-.296 2.16-.591 3.177-.127.339-.506.297-.802.297zm-9.873 71.475c-.085 0-.296-.042-.296-.169.254-2.797.465-5.593.718-8.389.253-2.966.506-5.974.76-8.94.252-3.05.506-6.058.759-9.109l.76-9.024c.252-2.966.505-5.89.759-8.855.253-2.966.506-5.974.76-8.94.252-2.924.505-5.889.759-8.813 0-.254.042-.508.042-.762 0-.085.126-.127.21-.127.212-.043.423-.085.676-.085.169 0 .38 0 .548.042.085 0 .296.085.296.17a594.764 594.764 0 00-.718 8.643l-.759 8.897c-.253 2.966-.506 5.889-.76 8.855-.253 2.966-.506 5.974-.759 8.94-.253 3.05-.506 6.101-.76 9.194-.253 3.008-.506 5.974-.759 8.982-.253 2.881-.506 5.762-.76 8.685 0 .212-.042.466-.042.678 0 .085-.126.127-.21.127a3.224 3.224 0 01-.676.085c-.168-.042-.337-.042-.548-.085zm4.641 1.271a3.3 3.3 0 01-.38-.085c-.21-.084-.21-.254-.253-.423-.042-.17-.042-.297-.042-.466 0-.424.042-.89.042-1.314l.127-2.796.253-5.72a583.3 583.3 0 01.76-12.117c.295-3.983.59-8.008 1.012-11.99.38-3.983.802-7.966 1.266-11.948.211-2.034.338-4.067.464-6.059.127-2.076.296-4.152.422-6.186.127-1.694.253-3.389.338-5.041 0-.085.126-.127.21-.127.212-.085.423-.085.676-.085.168 0 .38 0 .548.042.085 0 .338.043.296.17-.254 3.982-.549 7.965-.802 11.947-.085 1.017-.127 2.077-.211 3.093-.042.509-.084 1.017-.084 1.526 0 .508-.043.974-.043 1.482a292.393 292.393 0 01-.21 6.186c-.043 1.907-.127 3.771-.212 5.678-.084 1.991-.21 3.94-.295 5.931-.21 4.067-.506 8.135-.802 12.202-.295 3.898-.675 7.796-1.012 11.651-.085.848-.127 1.653-.211 2.5-.042.381-.085.763-.127 1.102a.685.685 0 01-.126.381c-.043.085-.043.169-.085.212-.042.085-.168.127-.295.169a2.44 2.44 0 01-.802.127c-.084-.042-.253-.042-.422-.042z"/><path d="M77.56 784.238c-.507-.127-.043-.338.252-.338.929-.128 1.815-.424 2.7-.763.465-.085 1.098-.127 1.478.127.042.127-.127.169-.338.212-1.266.424-2.7 1.059-4.093.762zm-8.777-71.518c-.084 0-.295-.042-.337-.169-.085-.212.464-.254.548-.254.886-.043 1.772-.085 2.616-.17.633-.042 1.266-.127 1.73-.169a348.1 348.1 0 0111.519-.805c3.882-.255 7.764-.509 11.645-.721 3.966-.254 7.933-.508 11.899-.72 4.008-.254 7.974-.508 11.983-.72 3.966-.254 7.932-.466 11.94-.72 3.882-.212 7.764-.466 11.645-.678l2.405-.127a21.12 21.12 0 011.646-.085h.253a2.7 2.7 0 01.844.127c.084.042.338.127.253.297-.042.084-.169.127-.253.169a6.932 6.932 0 01-.464.127c-.675.085-1.392.085-2.068.127-.843.043-1.729.127-2.573.17l-5.57.381c-4.008.254-7.974.508-11.983.763-3.966.254-7.974.508-11.94.72-4.009.254-8.059.508-12.068.72-3.84.212-7.72.466-11.56.72-3.924.212-7.848.466-11.73.678l-5.359.255h-.168c-.422 0-.844.042-1.224.042h-.127a65.67 65.67 0 00-2.869.169h-.126c-.254-.084-.38-.127-.507-.127zm-2.025 8.559c-.127 0-.338-.043-.38-.17-.127-.254.549-.296.633-.296 4.05-.255 8.143-.509 12.194-.763 4.43-.297 8.818-.636 13.248-.932 4.304-.297 8.608-.636 12.869-.932l13.418-.89 13.881-.89c4.388-.296 8.776-.55 13.164-.805.633-.042 1.224-.084 1.857-.127.675-.042 1.392-.127 2.067-.085.296 0 .633.043.929.212.168.085.253.212.084.382-.169.169-.422.211-.633.254-.464.085-.97.085-1.434.127-.422.042-.802.042-1.224.085-.97.084-1.899.127-2.869.212-2.152.127-4.262.296-6.413.423-4.642.297-9.325.593-13.966.89-4.515.297-8.988.551-13.502.847l-13.291.763c-4.43.254-8.903.508-13.333.72-4.472.254-8.903.551-13.375.848-1.14.084-2.237.127-3.376.211h-.168c-.127-.042-.254-.042-.38-.084z"/><path d="M159.667 812.074c-.084-.042-.295-.085-.295-.212-.38-3.898-.718-7.838-1.097-11.736-.464-4.406-.886-8.855-1.308-13.303-.422-4.407-.802-8.813-1.224-13.262-.422-4.448-.802-8.897-1.223-13.346-.422-4.575-.844-9.151-1.266-13.769-.422-4.534-.76-9.067-1.182-13.6-.422-4.491-.844-8.982-1.265-13.431-.38-4.279-.802-8.516-1.182-12.795-.042-.509-.084-1.06-.126-1.568 0-.085.126-.127.211-.169.21-.085.421-.085.632-.085.169 0 .338 0 .507.042.084.043.295.085.295.212.38 4.152.76 8.262 1.139 12.414l1.266 13.473c.422 4.533.886 9.024 1.308 13.558.422 4.576.886 9.151 1.308 13.727.422 4.449.844 8.94 1.266 13.388.422 4.449.844 8.855 1.223 13.304.422 4.406.802 8.855 1.182 13.261.169 2.119.337 4.195.548 6.313.169 1.907.338 3.771.549 5.678.042.55.084 1.101.169 1.652 0 .085-.127.127-.211.169-.211.085-.422.085-.633.085-.253.085-.422.042-.591 0zm5.19-.381c-.084-.043-.295-.085-.295-.212s-.043-.297-.043-.424c-.295-3.982-.633-7.923-.928-11.905-.337-4.491-.675-8.94-1.055-13.431-.337-4.449-.675-8.94-1.055-13.388-.337-4.491-.717-9.025-1.054-13.516-.338-4.576-.718-9.151-1.055-13.685-.338-4.491-.717-8.982-1.055-13.473-.338-4.491-.717-9.024-1.055-13.515l-1.012-13.219v-.085c0-.085.126-.127.21-.169.211-.085.422-.085.633-.085.169 0 .338 0 .507.042.084.043.295.085.295.212l1.013 13.092c.337 4.449.675 8.94 1.055 13.388.337 4.576.717 9.109 1.054 13.685.338 4.576.718 9.109 1.055 13.685.338 4.449.675 8.897 1.055 13.388.338 4.534.717 9.025 1.055 13.558.337 4.491.717 8.982 1.055 13.473.337 4.152.633 8.305.97 12.457v.084c0 .085-.126.127-.211.17-.211.085-.422.085-.633.085-.169-.17-.337-.17-.506-.212z"/><path d="M160.638 812.497c-.338-.127-.169-.296.084-.339.886-.254 1.772-.508 2.658-.847.296-.127.591-.296.844-.551.296-.169.717-.169 1.055-.169.084 0 .717.127.464.339-1.097.974-2.658 1.101-3.966 1.61-.38.085-.802.084-1.139-.043zm15.316-26.734c-.338-.127-.169-.297.084-.339.886-.254 1.772-.508 2.658-.847a2.63 2.63 0 00.844-.551c.295-.17.717-.17 1.055-.17.084 0 .717.128.464.339-1.097.975-2.658 1.102-3.966 1.61-.338.043-.76.043-1.139-.042zm-18.228-72.111c-.717-.084-.38-.55-.084-.889.97-1.102 2.109-2.076 3.164-3.136 2.574-2.626 5.105-5.296 7.721-7.838 2.321-2.288 4.642-4.576 6.372-7.287.211-.339 1.856-.254 1.729.085-3.164 4.745-7.594 8.558-11.518 12.71-1.393 1.441-2.912 2.754-4.346 4.152-.591.636-1.35 1.187-1.73 1.949 0 .085-.042.127-.127.17-.337.169-.801.169-1.181.084z"/><path d="M175.827 786.229c-.085-.042-.296-.084-.296-.212l-.886-9.659c-.337-3.475-.632-6.991-.97-10.465-.338-3.517-.633-6.991-.97-10.508-.338-3.474-.633-6.906-.971-10.38-.295-3.389-.633-6.779-.928-10.211a899.692 899.692 0 01-.971-10.592c-.337-3.516-.675-7.033-.97-10.549a772.622 772.622 0 00-.97-10.254v-.084c0-.085.126-.127.21-.17.211-.084.422-.084.633-.084.169 0 .338 0 .507.042.084.042.295.085.295.212.295 3.347.633 6.736.928 10.083.338 3.517.675 7.076.971 10.592.337 3.517.633 7.034.97 10.508.338 3.432.633 6.906.971 10.338.295 3.389.633 6.821.97 10.21.338 3.517.633 7.033.971 10.55.337 3.517.632 6.991.97 10.507l.886 9.576c0 .084 0 .169.042.254 0 .084-.126.127-.211.169-.211.085-.422.085-.633.085a.829.829 0 01-.548.042zm3.46-2.076c-.084-.042-.295-.085-.295-.212-.591-8.261-.971-16.566-1.477-24.827-.464-8.177-1.224-16.312-1.899-24.447-.886-10.168-1.308-20.379-1.856-30.59-.127-2.288-.338-4.575-.296-6.906 0-.084.127-.169.211-.169.38-.127.76-.127 1.14-.043.084.043.295.085.295.212.253 8.008.802 15.973 1.224 23.938 1.054 16.566 2.869 33.048 3.502 49.613.253 4.407.506 8.813.801 13.177 0 .085-.126.169-.211.169-.379.17-.801.17-1.139.085zm72.994-96.514c-8.65-.043-17.299-1.568-25.4-4.576-4.009-1.483-7.848-3.432-11.561-5.508-5.063-2.712-9.916-5.805-14.43-9.363-6.92-5.169-14.177-10.084-19.578-16.948-.38-.084-.886-.042-1.055-.466-.211-.805 0-1.652.296-2.415 1.898-5.084 9.198-4.025 13.628-4.491 15.569-.72 30.843-.89 46.328-1.144 17.763-.169 35.527-.296 53.29-.423 5.907.042 19.704-.721 24.261 2.415 1.645 1.398 1.35 3.897.928 5.804-1.898 5.847-7.046 9.702-11.687 13.304-8.355 6.312-17.173 11.99-26.54 16.693-8.776 4.533-18.523 7.456-28.48 7.118zm2.531-.721c9.41-.127 18.27-3.728 26.456-8.134a164.444 164.444 0 0026.539-17.329c4.177-3.22 11.899-10.634 8.523-16.269-2.911-2.881-16.455-2.161-20.928-2.204-14.767.128-29.493.382-44.26.509-15.485.127-30.97.508-46.455.89-5.232.169-10.422.339-15.654.72-1.265.085-2.531.212-3.628.932-1.477 1.017-2.405 2.881-2.194 4.703.042.169-.296.296-.422.339 5.443 7.033 13.248 11.524 20.21 16.82 4.346 3.347 8.903 6.355 13.713 8.94 3.882 2.203 7.848 4.279 12.067 5.804 8.355 3.135 17.215 4.491 26.033 4.279z"/><path d="M239.961 648.659c-16.709-.127-33.544.297-50.084-1.864-2.067-.339-.168-.974.675-.466 12.194 1.568 24.515 1.78 36.793 1.78 14.894-.043 29.788.212 44.64-1.102 6.582-.635 13.122-.974 19.704-1.271 7.215-.339 14.473-.974 21.688-.678 1.476.127 2.953.297 4.345.763.549.212 1.14.381 1.477.89.085.127-.084.254-.169.338-.632.297-1.392.255-2.109.17-.253-.042-.591-.127-.718-.339-.337-.381-.97-.466-1.434-.636-2.574-.508-5.401-.296-7.932-.254-2.616.085-5.232.17-7.848.297-8.101.508-16.202.635-24.304 1.313-11.603.932-23.164 1.187-34.724 1.059zm-32.953 82.789a36.305 36.305 0 01-1.857-.805 8.11 8.11 0 00.085-1.017c3.08 1.483 6.287 2.754 9.578 3.559 6.919 1.44 14.05 1.356 21.096 1.483 17.173.169 34.514-1.187 51.096-5.932a36.52 36.52 0 004.683-1.737c0 .212 0 .424.043.678 0 .212.042.424.042.635-5.949 2.246-12.278 3.432-18.523 4.534-11.476 2.076-23.164 2.627-34.809 2.669-10.591-.254-21.561.381-31.434-4.067zm89.28-5.466a44.733 44.733 0 007.637-4.83c1.899-1.483 3.671-2.881 4.937-4.873 2.025-2.838 1.181-6.609-1.477-8.727-3.586-2.839-8.27-3.729-12.7-4.407-.042-.296-.042-.551-.084-.847.422.042.843.127 1.265.169 4.853.763 9.916 1.78 13.882 4.83 6.202 5.551 1.603 10.719-3.713 14.448-2.996 2.415-6.287 4.237-9.705 5.677 0-.466-.042-.932-.042-1.44zm-89.787-21.396c0-.169.042-.339.042-.508.887-.424 1.73-.763 2.616-.975 2.363-.593 4.81-.593 7.215-.593h.38c4.599 0 9.283 0 13.84-.127 9.788-.254 19.577-1.314 29.366-1.144 2.658.042 5.358.042 8.059.042 7.806 0 15.653 0 23.333.721 0 .254 0 .55.042.805-8.397-.848-16.835-.721-25.232-.805h-3.966c-2.869 0-5.738-.043-8.607.042-4.81.212-9.578.508-14.388.763-7.764.466-15.443.508-23.206.508-2.026 0-4.093.042-6.076.636a17.178 17.178 0 00-3.376 1.779c-.084-.424-.042-.763-.042-1.144zm-8.227 21.396c-1.984.296-2.532-2.161-2.785-3.644-.549-3.474.211-7.16 1.983-10.211 1.645-2.584 4.135-5.084 6.92-6.863-.043.678-.085 1.313-.127 1.991a21.604 21.604 0 00-2.236 2.161c-3.798 3.94-4.684 9.829-3.502 15.04 1.35 1.61 2.953 3.051 4.725 4.153 0 .381-.042.72-.084 1.101-1.73-1.017-3.46-2.203-4.894-3.728z"/><path d="M243.42 741.997c-8.649-.085-17.299-.636-25.906-1.822-4.473-.678-9.072-1.356-13.122-3.432v-.042c0-.127.042-.255.042-.382v-.042c.042-.212.042-.381.084-.593.591.423 1.266.805 1.941 1.144 6.751 2.754 14.135 3.093 21.265 3.898 17.173 1.228 34.768 1.228 51.603-2.542 4.81-1.017 9.155-2.331 12.953-4.28l.126 1.144c-2.151.975-4.388 1.737-6.624 2.331-12.953 3.643-26.455 4.702-39.83 4.702-.844-.084-1.688-.084-2.532-.084zm53.375-8.77c0-.17 0-.339-.043-.509 5.612-3.389 9.747-8.473 12.068-16.481.168-.551.295-1.144.464-1.695.211-.423.844-.338 1.223-.381.254 0 .549.043.802.085.084.042.464.127.422.296a24.306 24.306 0 01-.464 1.653c-1.561 4.915-3.924 9.702-7.721 13.176-2.026 1.865-4.304 3.39-6.751 4.661.042-.254 0-.509 0-.805zm-97.72-1.737c-1.308-2.161-2.489-4.576-2.363-7.161 0-.084.127-.127.211-.169.38-.127.76-.127 1.14-.042.084.042.295.084.295.211-.042.975.042 1.949.338 2.882.928 2.542 2.278 5.126 4.219 7.075 0 .169 0 .297-.042.466 0 .339-.043.72-.043 1.059-1.561-1.144-2.784-2.669-3.755-4.321z"/><path d="M192.029 866.856c-.084 0-.295-.085-.295-.169.464-7.245.97-14.49 1.434-21.735.549-7.923 1.055-15.846 1.604-23.726.548-7.923 1.055-15.846 1.603-23.769.549-7.881 1.055-15.803 1.561-23.684.507-7.838 1.055-15.634 1.561-23.472.507-7.711.971-15.422 1.435-23.175.253-3.898.506-7.796.717-11.652.211-3.474.422-6.99.675-10.464.254-3.348.464-6.652.76-9.999.084-.763.126-1.568.211-2.331.084-.889.169-1.737.253-2.626l.38-5.72c.168-2.458.337-4.915.506-7.33l.38-5.72c0-.084.126-.127.211-.169.211-.085.422-.085.633-.085.168 0 .337 0 .506.043.084 0 .295.084.295.169v.127l-.253 3.94c-.126 1.695-.211 3.39-.337 5.042l-.38 5.847c-.085 1.017-.127 1.991-.211 3.008-.042.805-.085 1.568-.127 2.373-.295 6.821-.717 13.6-1.223 20.421l-1.646 22.752c-.548 7.753-1.097 15.507-1.603 23.303-.506 7.838-1.055 15.676-1.561 23.514-.549 8.007-1.055 16.015-1.604 24.023-.506 7.88-1.054 15.761-1.561 23.641-.506 7.838-1.055 15.676-1.561 23.514-.295 4.661-.633 9.321-.928 13.982 0 .085-.127.127-.211.169-.211.085-.422.085-.633.085-.253-.042-.422-.085-.591-.127zm6.16-.084c-.126 0-.211 0-.337-.043-.042 0-.211-.042-.169-.127.338-5.592.633-11.227.928-16.82l1.266-22.243c.464-7.923.886-15.846 1.35-23.769.464-8.007.886-15.973 1.35-23.98.465-7.965.886-15.931 1.351-23.896.464-8.007.886-16.057 1.35-24.065.211-3.898.422-7.796.675-11.694a.912.912 0 00.169-.508c0-.678.042-1.356.042-2.034 0-.508 0-1.017.042-1.525.127-2.584.295-5.169.422-7.796.169-2.796.295-5.592.464-8.389.127-.72.211-1.44.295-2.203.085-.805.169-1.652.254-2.499.042-.424.084-.805.084-1.229.042-.381.084-.763.042-1.144 0-.212-.126-.381-.253-.509l.38-6.863c.211-4.11.464-8.262.717-12.372v-.296c0-.043.084-.085.127-.085.126-.042.253-.042.422-.042.126 0 .21 0 .337.042.042 0 .211.042.169.127v.254c-.38 7.288-.802 14.533-1.224 21.82l-1.266 22.794c-.464 7.965-.886 15.973-1.35 23.938-.464 7.965-.886 15.973-1.35 23.938-.464 8.05-.886 16.1-1.35 24.108-.464 7.922-.886 15.845-1.35 23.768-.422 7.711-.886 15.422-1.308 23.133l-1.266 22.328c-.127 2.542-.295 5.127-.422 7.669 0 .042-.084.085-.127.085a.963.963 0 01-.464.127zm20.886-91.304c-.042 0-.211-.042-.211-.169.127-2.67.296-5.339.38-8.008.211-5.508.38-11.058.633-16.566.126-3.686.422-7.33.211-11.016-.169-.254.464-.254.591-.254.211 0 .506 0 .632.17.211 1.186.085 2.457.085 3.686-.169 6.863-.591 13.769-.76 20.633-.126 3.813-.337 7.584-.548 11.397-.127.254-.76.127-1.013.127zm3.544-.509c-.042 0-.253-.042-.211-.127v-.042c.169-2.288.296-4.576.465-6.864.168-2.584.337-5.169.548-7.753.169-2.543.338-5.085.506-7.669.169-2.585.338-5.127.549-7.711.084-1.483.211-2.923.295-4.406 0-.085.085-.085.169-.127.169-.043.338-.085.506-.085.127 0 .296 0 .422.042.042 0 .253.043.211.127-.169 2.542-.337 5.084-.506 7.669-.169 2.542-.338 5.042-.506 7.584-.169 2.584-.338 5.169-.549 7.753l-.506 7.584-.253 3.813c0 .085-.085.085-.169.127a2.085 2.085 0 01-.507.085h-.042a.719.719 0 01-.422 0z"/><path d="M219.497 775.256c-1.308-.127-.253-.593.38-.466.97.212 1.941-.636 2.911-.254.549.381-3.038.805-3.291.72z"/></g><defs><clipPath id="clip0_110_33"><path fill="#fff" transform="translate(-4)" d="M0 0h728v843H0z"/></clipPath></defs></svg>