<svg width="1920" height="358" fill="none" xmlns="http://www.w3.org/2000/svg"><mask id="a" style="mask-type:luminance" maskUnits="userSpaceOnUse" x="0" y="0" width="1920" height="358"><path d="M1920 0H0v358h1920V0z" fill="#fff"/></mask><g mask="url(#a)" fill="#191816"><path d="M85.056 379.412c-.038-.181-1.997-18.724-7.296-46.437-1.613-8.351.077-22.454 2.227-40.312 5.069-42.104 12.71-105.749-14.515-164.832-8.87-19.193-14.362-38.507-16.358-57.387-1.613-15.102-.999-29.975 1.804-44.199 4.8-24.21 14.477-38.338 14.554-38.482l1.882.132c-.116.145-9.754 14.223-14.516 38.398-4.416 22.31-5.49 58.025 14.554 101.441 27.264 59.144 19.622 122.813 14.554 164.941-2.15 17.846-3.84 31.937-2.228 40.252 5.3 27.725 7.296 46.268 7.296 46.46l-1.958.025z"/><path d="M88.474 111.693c-4.685 0-8.755-1.889-12.403-5.776-7.834-8.255-12.672-19.157-14.438-32.418-1.421-10.589-.884-22.694 1.612-35.98C67.47 14.91 75.995-3.537 76.071-3.717l1.882.084c-.077.18-8.602 18.603-12.826 41.19-3.878 20.83-4.838 49.577 12.787 68.181 4.3 4.524 8.256 5.403 10.829 5.342 6.989-.156 19.238-6.762 37.709-37.29 12.595-20.806 23.961-45.595 32.294-63.705 6.72-14.68 10.061-21.769 11.558-22.479l1.613.337c-1.344.674-5.721 10.18-11.251 22.226-8.294 18.11-19.699 42.923-32.294 63.729-6.912 11.407-13.44 20.312-19.431 26.497-7.219 7.449-13.747 11.143-20.044 11.287a4.99 4.99 0 01-.423.012zM231.36 402.996l-.691-.096c-.307-.108-1.306-.421-1.766-7.641-.538-8.857-.039-23.971 1.497-44.909 2.227-30.3-31.257-74.173-63.59-116.615-23.194-30.396-45.082-59.095-51.226-79.865-3.341-11.275-1.229-27.027 6.259-46.822 5.991-15.823 15.399-34.258 28.032-54.787 21.466-34.957 45.005-64.258 45.236-64.547l1.843.144c-.231.29-23.77 29.578-45.197 64.511-19.776 32.225-41.779 75.99-34.253 101.441 6.144 20.721 27.994 49.409 51.149 79.781 15.936 20.878 32.371 42.466 44.582 62.633 13.824 22.828 20.045 40.529 19.047 54.126-3.533 48.29-.538 51.924-.154 52.177-.077-.048-.345-.144-.806-.144v.613h.038z"/><path d="M214.656 423.633h-1.92c0-.156-.077-16.125-6.144-78.084-2.381-24.211-17.779-56.328-42.278-88.12-9.946-12.9-20.698-24.717-30.259-33.272-13.556-12.106-19.392-13.057-20.89-13.057-.653 0-2.842.289-3.341 3.899-1.997 14.512-2.035 71.31-.077 159.947.077 2.684.077 4.308.077 4.537h-1.92c0-.229-.038-1.853-.077-4.537-1.958-88.637-1.92-145.459.077-159.971.423-3.044 2.074-4.464 5.261-4.464h.038c1.728 0 4.608.385 9.984 3.682 3.725 2.286 7.988 5.571 12.672 9.771 9.6 8.58 20.391 20.421 30.336 33.332 24.538 31.829 39.975 63.994 42.317 88.241 6.067 61.971 6.144 77.94 6.144 78.096z"/><path d="M194.688 379.471l-1.92-.012c.691-11.432-9.101-44.307-23.232-78.169-7.027-16.798-14.054-31.286-20.352-41.888-3.418-5.764-6.566-10.252-9.331-13.345-4.032-4.5-6.259-4.933-6.874-4.957-.345-.012-1.19.228-2.073 1.263-9.984 11.648-.538 67.784 5.107 101.321 2.457 14.596 4.07 24.247 3.379 25.486l-1.882-.108c.653-1.179-1.113-11.841-3.417-25.354-5.645-33.573-15.091-89.757-5.031-101.501.653-.783 1.844-1.805 4.224-1.697 1.767.072 4.301.758 8.448 5.391 2.804 3.116 5.952 7.629 9.37 13.405 6.298 10.613 13.325 25.101 20.352 41.912 12.096 29.061 24 65.269 23.232 78.253z"/><path d="M160.896 337.608c-4.07 0-7.488-3.67-9.638-6.763-2.458-3.526-5.875-9.976-8.026-20.673-.422-1.649-9.945-39.698-5.337-44.752.345-.385.921-.566 1.728-.53 1.152.048 2.688.109 6.912 8.724 2.342 4.826 5.107 11.54 7.987 19.398 5.529 15.126 10.253 31.13 10.982 37.219.384 3.321-.077 7.292-4.493 7.365-.038.012-.076.012-.115.012zm-21.273-71.875c-4.224 5.511 5.414 44.005 5.529 44.391 2.151 10.661 5.53 17.075 7.987 20.577 3.61 5.162 6.797 6.281 7.757 6.281.883-.012 3.303-1.288 2.688-6.739-.691-6.028-5.184-21.383-10.713-36.485-6.682-18.375-11.175-26.413-13.248-28.025zm40.857 102.065c0-.192-1.728-19.819-17.818-25.932-.922-.361-2.688-.926-3.917-.77-1.536.205-5.03 1.745-3.801 11.6.691 5.488 2.496 10.903 2.534 10.963l-1.92.06c0-.06-1.843-5.487-2.534-10.999-.384-3.249-.308-5.884.23-7.845.73-2.624 2.227-4.007 4.762-4.344 1.804-.241 3.878.072 6.144.938 6.95 2.636 12.172 7.87 15.436 15.559 2.42 5.692 2.842 10.698 2.842 10.746l-1.958.024zm25.805-127.456c-13.056 0-32.141-19.182-39.744-27.424-15.744-17.088-29.069-37.135-35.559-53.621-3.763-9.554-1.805-24.067 5.799-43.163 6.105-15.259 15.82-33.465 28.915-54.114 22.272-35.15 46.848-65.582 47.117-65.883l1.843.145c-.231.3-24.845 30.72-47.079 65.858-20.544 32.406-43.2 75.557-34.675 97.085 6.49 16.462 19.776 36.473 35.52 53.524 7.411 8.026 14.784 14.765 21.427 19.494 9.101 6.522 14.247 7.497 16.474 7.497 1.69 0 4.8-.65 6.451-4.946 2.842-7.304-7.411-16.173-20.352-27.4-13.593-11.804-30.566-26.485-39.168-45.161-10.137-21.937-6.72-44.619 10.368-69.348 29.53-42.706 52.416-68.65 66.394-82.885 15.168-15.44 23.462-20.854 23.539-20.902l1.728.264c-.077.049-8.333 5.451-23.462 20.866-13.94 14.224-36.788 40.131-66.317 82.802-38.631 55.798 1.92 90.923 28.723 114.172 13.056 11.299 23.347 20.24 20.467 27.676-1.459 3.671-4.224 5.464-8.409 5.464zm-93.773-33.177c-1.382 0-2.649-.108-3.801-.337-8.256-1.624-8.832-8.892-9.408-16.594-.346-4.368-.692-8.892-2.535-12.274-2.88-5.331-7.757-19.674-10.406-32.538-2.381-11.612-3.802-25.968 2.88-28.399.806-.288 1.728-.433 2.765-.421a10.08 10.08 0 012.956.458c5.415 1.792 8.602 9.614 9.447 23.248.614 10.036-.307 19.686-.307 19.915-.154 6.257 5.568 14.452 11.059 22.37 8.333 11.949 15.513 22.274 1.805 24.235-1.613.217-3.072.337-4.455.337zm-20.62-89.961c-.193 0-.653.012-1.191.217-4.877 1.768-5.76 11.696-2.42 27.965 2.65 12.84 7.489 27.159 10.407 32.478 1.843 3.417 2.227 7.966 2.535 12.358.537 7.196 1.113 14.645 8.524 16.089 1.728.337 3.84.325 6.413-.036 12.288-1.757 4.915-12.347-2.88-23.55-5.529-7.954-11.289-16.172-11.097-22.502v-.012c0-.096.921-9.807.307-19.891-1.037-16.787-5.415-21.684-8.909-22.851a5.39 5.39 0 00-1.613-.277c-.038.012-.038.012-.077.012zm.575-13.765c-2.956 0-5.376-1.215-7.564-3.79-5.261-6.198-8.18-15.451-8.602-27.485-.346-9.614.845-21.022 3.571-33.91C84.52 16.319 92.083-2.563 92.16-2.755l1.92.073c-.077.193-7.641 19.049-12.288 40.974-4.3 20.216-6.912 47.242 4.954 61.189 2.611 3.093 4.953 3.369 5.837 3.345 2.726-.072 8.716-2.442 17.894-17.556 5.683-9.326 11.904-22.286 18.432-38.531 11.174-27.653 19.584-55.594 19.661-55.87l1.92.06c-.077.276-8.487 28.23-19.661 55.894-6.566 16.257-12.787 29.23-18.47 38.567-9.716 15.956-15.86 17.942-19.623 18.038-.077.012-.153.012-.269.012z"/><path d="M93.312 95.328h-.154c-2.573-.072-3.187-2.034-4.454-8.098-.768-3.598-1.613-7.69-3.418-10.217-2.342-3.285-.269-7.424 2.15-12.226 2.842-5.655 6.068-12.069 3.61-19.337-4.57-13.49 17.472-47.17 17.664-47.508l1.882.12c-.23.338-22.195 33.922-17.664 47.316 2.496 7.34-.768 13.802-3.61 19.494-2.38 4.74-4.416 8.832-2.15 11.997 1.843 2.575 2.688 6.69 3.456 10.312.653 3.057 1.42 6.835 2.726 7.485.423-.168 1.421-.746 3.11-2.767 4.532-5.5 5.722-12.936 6.951-20.806 1.037-6.57 2.112-13.357 5.299-19.121 1.421-2.563 2.765-4.79 4.071-6.955 4.992-8.231 8.909-14.73 10.137-29.831 1.498-18.724.039-22.659 0-22.695l1.92-.072c.077.156 1.536 3.971 0 22.791-1.228 15.15-5.184 21.672-10.176 29.927-1.305 2.154-2.649 4.38-4.07 6.943-3.149 5.728-4.224 12.503-5.261 19.049-1.267 7.906-2.419 15.367-7.027 20.926-2.266 2.695-3.571 3.273-4.992 3.273zM34.79 230.523h-.383c-8.794-.18-14.016-6.089-15.936-18.05-4.07-25.402-19.162-61.418-27.303-80.768-3.494-8.254-5.76-13.693-5.76-14.801h1.92c0 1.071 2.381 6.787 5.722 14.717 8.102 19.35 23.232 55.378 27.302 80.804 2.42 15.006 9.907 17.4 14.17 17.485h.269c11.097 0 27.033-13.033 32.025-21.612 7.45-12.792-7.987-52.911-24.96-86.183-9.139-17.93-8.333-50.66-6.067-74.968 2.458-26.329 7.142-48.699 7.22-48.927l1.92.036c-.04.228-4.724 22.586-7.182 48.903-2.265 24.284-3.072 56.966 6.03 74.848 16.972 33.32 32.447 73.511 24.96 86.375-2.497 4.296-7.911 9.831-13.786 14.091-5.07 3.706-12.634 8.05-20.16 8.05zm29.338 163.99l-1.92-.012c0-.168 1.075-16.895-6.144-43.043-2.38-8.616-.153-23.61 2.227-39.481 2.228-15.054 4.57-30.613 3.648-43.573-1.075-14.705-6.22-23.273-15.82-26.185-2.65-.806-5.607-1.155-8.948-1.083-8.601.217-16.281 3.574-22.732 9.988-5.568 5.523-10.33 13.417-14.132 23.453-6.912 18.23-9.37 40.131-10.867 53.223-.806 7.04-1.305 11.685-2.112 12.972l-1.92-.108c.768-1.239 1.306-6.125 2.074-12.876 1.459-13.092 3.955-35.017 10.867-53.271 3.802-10.084 8.602-18.014 14.208-23.574 6.835-6.762 14.822-10.168 24.422-10.396 3.879-.097 7.412.325 10.445 1.251 22.234 6.751 17.203 40.468 12.787 70.215-2.38 15.847-4.608 30.817-2.227 39.397 7.22 26.184 6.144 42.935 6.144 43.103zm238.464-20.577l-1.92-.012c1.843-33.248-16.435-63.488-32.141-83.006-18.701-23.285-38.707-38.026-45.235-40.745-1.382-.566-3.379-1.191-5.184-.927-3.341.494-7.027 3.959-6.413 12.13.615 8.086 5.338 18.423 13.287 29.096 20.889 28.098 30.259 76.821 30.374 77.303l-1.92.036c-.077-.494-9.446-49.156-30.298-77.206-16.896-22.731-16.627-40.336-5.836-41.912 1.612-.241 4.262-.241 7.526 1.119 6.643 2.755 26.803 17.593 45.581 40.961 15.705 19.554 34.022 49.854 32.179 83.163z"/><path d="M330.24 370.602c-.115-.288-12.019-29.686-30.951-63.62-17.472-31.298-44.659-72.958-74.956-93.691-32.372-22.13-47.655-45.197-53.914-56.99-9.254-17.436-10.522-32.165-3.264-37.544 1.574-1.167 3.533-1.889 5.875-2.154a16.881 16.881 0 014.992.168c11.789 2.178 20.122 17.87 29.76 36.04 7.219 13.586 14.669 27.641 24.461 38.11 3.994 4.284 9.869 9.963 16.627 16.546 17.895 17.364 42.394 41.154 63.437 68.096 11.52 14.753 20.736 28.904 27.379 42.069 7.795 15.39 12.327 29.951 13.517 43.284l-1.92.012c-5.146-57.038-69.619-119.648-104.256-153.281-6.797-6.582-12.634-12.274-16.666-16.558-9.83-10.505-17.318-24.572-24.537-38.182-9.178-17.279-17.818-33.597-28.839-35.63a11.331 11.331 0 00-3.379-.121c-1.805.205-3.417.819-4.761 1.817-7.104 5.271-5.76 19.88 3.417 37.208 6.221 11.756 21.504 34.764 53.76 56.833 13.44 9.181 27.341 23.188 41.395 41.599 11.213 14.729 22.58 32.31 33.677 52.237 18.931 33.934 30.835 63.343 30.951 63.644l-1.805.108zm-39.475-172.749c-3.879 0-10.675-1.89-24.96-14.055-.192-.157-18.163-16.101-33.946-35.884-9.293-11.624-16.013-22.286-20.045-31.696-4.992-11.768-5.721-21.587-2.112-29.193 2.228-4.692 4.34-9.975 6.605-15.57 7.027-17.4 14.976-37.111 30.835-53.38 8.717-8.93 18.701-15.704 30.567-20.722 13.517-5.728 29.529-9.037 47.616-9.843 17.971-.806 31.833-1.035 41.203-.674 8.026.313 12.979 1.071 14.669 2.25 3.725 2.636-9.946 6.258-10.56 6.402l-.269.06h-.307c-.231 0-23.808.361-48.077 5.078-22.426 4.356-49.997 13.441-54.336 31.937-3.072 13.128 6.336 45.979 15.398 77.747 6.029 21.107 12.288 42.923 14.976 59.24 4.032 24.368-1.305 27.893-6.412 28.254a6.103 6.103 0 01-.845.049zm-23.194-14.272c14.439 12.31 20.967 13.838 23.578 13.646 1.766-.121 4.915-1.3 5.99-7.786.768-4.584.423-11.082-1.037-19.855-2.726-16.305-8.947-38.121-14.976-59.216-9.062-31.792-18.47-64.679-15.398-77.843 1.92-8.28 8.602-15.415 19.853-21.191 8.985-4.633 20.928-8.411 35.443-11.227 23.078-4.489 45.581-5.09 48.614-5.15 1.767-.482 12.711-3.586 9.792-5.644-2.227-1.564-13.363-3.044-53.798-1.227-75.149 3.369-93.811 49.637-107.443 83.427-2.266 5.595-4.378 10.878-6.605 15.583-8.102 17.111 7.565 42.429 22.118 60.648 15.706 19.698 33.6 35.57 33.869 35.835z"/><path d="M280.435 173.521c-1.766 0-3.801-.915-10.099-8.845-4.454-5.583-10.138-13.501-17.357-23.525-3.533-4.922-7.526-10.505-11.827-16.365-15.475-21.239-14.669-40-12.826-49.3 2.458-12.323 9.524-22.275 16.436-23.153.921-.12 2.688-.193 4.262.626 10.714 5.523 13.44 35.98 13.594 37.435.345.987 16.55 49.614 19.968 73.055.499 3.333.614 5.752.46 7.364-.268 2.19-1.075 2.647-2.38 2.696-.039.012-.116.012-.231.012zM245.914 52.874c-.154 0-.308.012-.384.024-4.455.566-12.365 8.147-15.245 22.623-1.843 9.266-2.65 27.954 12.787 49.132 4.262 5.86 8.294 11.444 11.827 16.366 6.989 9.71 12.48 17.376 16.858 22.935 5.145 6.486 7.526 8.46 8.678 8.893.615-.47 1.306-2.383.307-9.362-3.417-23.549-19.814-72.537-19.968-73.03v-.025c-.038-.312-2.803-31.756-13.286-37.159-.691-.324-1.229-.397-1.574-.397zm-66.433 54.355a4.15 4.15 0 01-.883-.084c-1.075-.229-2.15-.999-1.881-4.982.23-3.285 1.382-8.255 3.34-14.777 6.951-22.72 26.535-45.282 41.741-60.215C238.272 10.998 253.325.036 253.478-.072l1.767.24c-.154.109-15.168 11.035-31.604 27.196-15.129 14.897-34.713 37.423-41.625 60.082-1.959 6.414-3.072 11.323-3.341 14.584-.269 3.49.538 4.344.883 4.561.499-.144 1.882-.77 4.416-3.393 1.882-1.926 3.994-4.525 6.106-7.521 4.147-5.836 7.257-11.66 7.257-13.562 0-2.936 7.834-18.555 20.621-37.315 8.871-13.008 26.496-36.762 45.12-49.686l1.767.253c-33.293 23.068-65.588 81.069-65.588 86.76 0 1.95-3.072 7.69-7.257 13.622-2.112 2.996-4.263 5.608-6.144 7.557-2.995 3.093-4.57 3.682-5.607 3.863-.23.036-.499.06-.768.06zm214.004 262.302c-1.459 0-4.263-.325-10.483-1.697a271.697 271.697 0 01-8.256-1.961l-.308-.072-.038-.121c-.115-.313-12.403-31.84-32.218-66.977-11.635-20.637-23.5-38.471-35.328-52.995-14.784-18.134-29.452-31.13-43.699-38.627l-.077-.048c-.076-.06-7.142-6.294-13.516-12.527-3.725-3.67-6.528-6.618-8.218-8.784-3.149-3.971-2.227-4.477-.96-4.657 1.267-.181 3.034-.084 9.485 3.333 13.248 7.04 36.134 22.43 57.331 40.949 17.702 15.439 40.627 38.627 49.536 61.455 11.52 29.602 26.65 58.47 33.946 72.344 3.11 5.969 4.838 9.254 4.838 9.759 0 .373-.653.53-1.075.59-.231.012-.538.036-.96.036zm-17.203-4.055c7.872 2.009 15.859 3.598 17.318 3.453v-.048c0-.457-1.92-4.115-4.838-9.663-7.258-13.874-22.426-42.754-33.946-72.368-15.59-40.059-78.144-87.037-106.637-102.163-4.569-2.431-6.374-2.948-6.989-3.057-.422.41-.23 2.515 10.599 13.057 6.029 5.884 12.557 11.648 13.056 12.093 14.323 7.545 29.069 20.589 43.853 38.759 11.827 14.537 23.731 32.382 35.366 53.031 19.2 34.067 31.334 64.728 32.218 66.906zm12.94-87.914c-3.264 0-8.717-2.01-22.464-13.754-.537-.47-51.917-46.955-56.486-56.858-1.959-4.26.461-12.731 3.264-22.538 3.84-13.418 8.179-28.628 2.88-38.11l-.192-.373c-4.608-8.267-14.247-25.45-19.738-40.865-6.95-19.386-5.414-29.698 4.685-31.527a11.054 11.054 0 013.725-.025c4.723.758 9.523 4.922 14.63 12.72 4.263 6.462 8.794 15.559 13.517 27.014 8.563 20.842 15.974 45.39 20.928 61.647 1.574 5.211 2.957 9.699 3.955 12.84 1.92 5.872 7.143 16.522 13.171 28.868 6.49 13.273 13.863 28.314 18.317 40.035 6.835 17.893 4.071 20.601.499 20.89-.23.024-.46.036-.691.036zm-20.621-13.959c5.568 4.777 10.292 8.327 13.94 10.553 4.646 2.816 6.528 2.816 6.835 2.792.653-.048 2.649-.614 2.15-5.74-.345-3.393-1.689-8.134-4.109-14.5-4.454-11.709-11.827-26.738-18.316-40.011-6.029-12.346-11.252-23.008-13.172-28.892-1.036-3.141-2.38-7.641-3.955-12.852-4.915-16.245-12.365-40.805-20.889-61.622-12.672-30.878-21.735-38.399-27.111-39.265a5.2 5.2 0 00-1.881.012c-6.336 1.143-12.135 7.437-3.725 30.938 5.529 15.39 15.129 32.562 19.737 40.817l.192.373c5.338 9.554.999 24.813-2.88 38.266-2.803 9.771-5.222 18.206-3.264 22.394 4.57 9.843 55.834 56.208 56.448 56.737zM295.603 67.422c-.845 0-1.843-.084-2.995-.337-9.063-1.973-9.869-16.401-9.754-22.514.154-11.083 3.111-22.61 7.104-27.388 4.224-5.102 15.783-9.59 24.768-12.455 9.677-3.092 18.547-5.03 18.624-5.041l1.075.493c-.345.072-34.752 7.629-42.624 17.16-3.916 4.74-6.873 16.196-7.027 27.243-.153 12.346 3.264 20.782 8.947 22.009 1.46.313 2.304.24 2.804.156 2.534-.433 5.76-2.767 6.681-11.443.653-6.137 0-13.755-.499-19.867l-.115-1.432C301.44 20.096 326.976 2.972 340.224-.29l1.19.469c-6.489 1.6-16.166 6.883-23.501 12.84-5.299 4.283-14.054 12.707-13.363 20.974l.115 1.431c1.383 16.534 1.805 30.349-7.18 31.865-.538.06-1.152.132-1.882.132z"/><path d="M422.861 369.376c-10.829-7.004-23.424-19.915-34.521-35.402-10.099-14.079-16.627-27.159-16.627-33.32 0-7.088 6.374-7.618 13.708-8.231 5.991-.494 12.788-1.059 18.202-5.475 11.712-9.531-4.646-49.867-23.846-84.438-20.544-36.979-26.727-58.121-28.416-65.486-1.805-7.894-2.765-9.29-6.759-15.174-1.881-2.804-4.493-6.654-8.217-12.707-5.453-8.881-5.069-13.285-4.685-17.942.422-5.162.883-10.493-6.835-22.49-10.752-16.738-6.375-27.893-2.189-38.687 1.536-3.935 2.995-7.641 3.686-11.564 1.383-7.714 9.024-12.6 15.207-15.33 6.72-2.985 13.056-4.116 13.324-4.164l.922.53c-.115.023-6.336 1.142-12.787 4.018-5.991 2.672-13.402 7.437-14.784 14.982-.73 3.947-2.151 7.665-3.687 11.612-4.185 10.746-8.524 21.853 2.151 38.495 7.757 12.057 7.296 17.424 6.873 22.622-.384 4.633-.729 9.001 4.647 17.81 3.725 6.052 6.297 9.891 8.217 12.695 3.994 5.92 4.954 7.328 6.797 15.258 1.69 7.365 7.872 28.483 28.416 65.437 19.277 34.644 35.635 75.112 23.77 84.751-5.799 4.705-13.402 5.343-19.507 5.848-7.143.59-12.288 1.023-12.288 7.642 0 12.334 26.995 52.946 50.995 68.457l-1.767.253z"/><path d="M484.647 383.394c-.269-.325-26.803-32.526-51.84-66.075-10.406-13.935-17.741-22.587-22.195-22.719-1.843-.048-4.224 1.637-6.797 3.43-2.189 1.54-4.915 3.441-8.448 5.186-6.758 3.321 1.037 15.74 22.579 35.944 16.32 15.318 34.944 29.818 35.136 29.963l-1.766.228c-.192-.144-18.816-14.656-35.175-29.999-22.003-20.673-29.529-32.935-22.348-36.461 3.494-1.709 6.144-3.598 8.332-5.114 3.303-2.335 5.53-3.875 8.717-3.779 2.419.073 4.915.987 9.216 5.247 3.456 3.429 7.949 8.953 14.669 17.942 25.037 33.537 51.571 65.738 51.84 66.051l-1.92.156zm-.001-15.763c-.576-.698-56.908-69.842-61.862-92.344-3.418-15.595-14.707-42.73-22.963-62.549-3.802-9.134-6.797-16.341-8.141-20.228-1.459-4.32-7.488-18.195-14.477-34.271-12.979-29.879-30.72-70.792-31.219-78.024-.23-3.285-2.227-7.28-4.531-11.901-5.376-10.746-12.096-24.103.384-36.329 7.603-7.46 13.44-13.838 18.125-18.977 6.374-6.967 10.598-11.564 14.553-13.922l1.69.277c-3.879 2.298-8.295 7.123-14.4 13.814-4.685 5.138-10.56 11.528-18.163 18.989-12.327 12.081-5.645 25.366-.308 36.051 2.343 4.645 4.34 8.664 4.57 11.986.499 7.196 18.24 48.097 31.219 77.952 6.989 16.076 13.018 29.963 14.477 34.283 1.306 3.886 4.339 11.094 8.141 20.216 8.256 19.818 19.545 46.966 23.001 62.585 4.916 22.454 61.21 91.55 61.786 92.247l-1.882.145zM368.909 251.966c-1.958 0-4.57-.998-9.83-7.075-3.418-3.959-7.988-7.75-12.365-11.408-11.405-9.494-23.194-19.313-17.626-33.597 4.57-11.757 1.421-24.379-.921-33.597-1.613-6.378-2.65-10.589-.538-11.877.922-.553 2.035-.614 2.765-.553 1.075.072 2.573.421 4.685 2.394 1.305 1.24 2.649 2.972 3.916 5.006 2.496 4.007 4.301 8.7 4.647 11.937.691 6.859 15.974 59.373 28.761 73.452l.039.036v.036c0 .012.077 1.227-.192 2.443-.538 2.358-1.882 2.731-3.111 2.779-.038.024-.153.024-.23.024zm-38.899-97.518c-.039 0-.307.048-.653.253-1.882 1.131-.73 5.728.73 11.552 2.304 9.241 5.491 21.901.921 33.717-5.491 14.127 6.183 23.886 17.511 33.309 4.416 3.67 8.947 7.472 12.403 11.455 5.145 5.933 7.449 6.558 7.987 6.631 1.037-.229 1.805-2.347 1.651-4.573-12.825-14.175-28.109-66.689-28.8-73.56-.345-3.285-2.189-8.002-4.723-12.033-3.494-5.511-6.298-6.751-7.027-6.751zm717.31 221.715l-1.88-.133c.11-.144 9.75-14.223 14.51-38.398 4.42-22.31 5.5-58.025-14.55-101.441-27.26-59.144-19.62-122.812-14.55-164.941 2.15-17.846 3.84-31.937 2.22-40.252-5.29-27.724-7.29-46.268-7.29-46.46l1.92-.024c0 .18 2 18.724 7.29 46.436 1.62 8.351-.07 22.454-2.22 40.312-5.07 42.105-12.71 105.749 14.51 164.833 8.87 19.193 14.36 38.506 16.36 57.386 1.61 15.102 1 29.976-1.8 44.199-4.77 24.223-14.44 38.35-14.52 38.483z"/><path d="M942.528 376.331l-1.612-.337c1.344-.674 5.721-10.18 11.251-22.225 8.294-18.111 19.699-42.923 32.294-63.729 6.912-11.408 13.44-20.312 19.429-26.497 7.22-7.449 13.75-11.143 20.05-11.288 4.83-.108 9.02 1.781 12.82 5.776 7.84 8.255 12.67 19.157 14.44 32.418 1.42 10.59.88 22.695-1.61 35.98-4.23 22.61-12.75 41.058-12.83 41.238l-1.88-.084c.08-.181 8.6-18.604 12.83-41.19 3.87-20.83 4.83-49.578-12.79-68.181-4.3-4.525-8.26-5.403-10.83-5.343-6.99.156-19.24 6.763-37.709 37.291-12.595 20.806-23.961 45.595-32.294 63.705-6.759 14.668-10.061 21.756-11.559 22.466zm-24.845-.097l-1.843-.144c.231-.289 23.77-29.578 45.197-64.511 19.776-32.225 41.783-75.99 34.253-101.441-6.144-20.721-27.994-49.409-51.149-79.781-15.936-20.878-32.371-42.466-44.582-62.633-13.824-22.828-20.045-40.529-19.047-54.126 3.533-48.29.538-51.924.154-52.177.076.048.345.145.806.145v-.602l.691.096c.308.108 1.306.421 1.767 7.641.537 8.857.038 23.97-1.498 44.909-2.227 30.3 31.258 74.173 63.591 116.615 23.193 30.384 45.081 59.095 51.225 79.865 3.342 11.275 1.229 27.027-6.259 46.822-5.991 15.823-15.399 34.259-28.032 54.787-21.466 34.945-45.005 64.246-45.274 64.535z"/><path d="M999.667 153.462c-.038 0-.038 0 0 0-1.728 0-4.646-.386-10.022-3.683-3.725-2.286-7.987-5.571-12.672-9.771-9.6-8.579-20.39-20.42-30.336-33.332-24.538-31.828-39.974-63.993-42.317-88.24-6.067-61.984-6.144-77.952-6.144-78.109h1.92c0 .157.077 16.125 6.144 78.084 2.381 24.212 17.78 56.329 42.279 88.109 9.945 12.899 20.697 24.716 30.259 33.272 13.555 12.105 19.392 13.056 20.889 13.056.653 0 2.843-.277 3.343-3.899 2-14.512 2.03-71.31.08-159.947-.08-2.684-.08-4.308-.08-4.537h1.92c0 .229.04 1.854.08 4.537 1.95 88.638 1.92 145.459-.08 159.971-.46 3.057-2.11 4.489-5.263 4.489z"/><path d="M979.853 123.439c-.115 0-.231 0-.346-.012-1.766-.072-4.301-.758-8.448-5.391-2.803-3.117-5.952-7.629-9.369-13.405-6.298-10.614-13.325-25.102-20.352-41.912-12.135-29.06-24-65.27-23.271-78.253l1.92.012c-.691 11.432 9.101 44.307 23.232 78.168 7.027 16.799 14.055 31.287 20.352 41.888 3.418 5.764 6.567 10.253 9.331 13.345 4.032 4.501 6.26 4.934 6.874 4.958.346.012 1.19-.229 2.074-1.263 9.984-11.649.537-67.784-5.108-101.321-2.457-14.596-4.07-24.247-3.379-25.487l1.882.109c-.653 1.179 1.113 11.84 3.417 25.354 5.645 33.573 15.092 89.757 5.031 101.501-.576.746-1.651 1.709-3.84 1.709z"/><path d="M973.325 99.059h-.153c-1.152-.048-2.688-.108-6.912-8.724-2.343-4.826-5.108-11.54-7.988-19.398-5.529-15.126-10.252-31.13-10.982-37.22-.384-3.32.077-7.291 4.493-7.363h.115c4.07 0 7.488 3.67 9.638 6.762 2.458 3.526 5.876 9.976 8.026 20.673.422 1.65 9.946 39.698 5.338 44.752-.308.337-.845.518-1.575.518zm-21.427-72.116c-.922.012-3.341 1.288-2.688 6.739.691 6.029 5.184 21.383 10.714 36.485 6.681 18.399 11.174 26.425 13.248 28.037 4.224-5.51-5.415-44.005-5.53-44.39-2.15-10.662-5.53-17.076-7.987-20.577-3.61-5.175-6.797-6.294-7.757-6.294zm1.728-3.479c-1.498 0-3.149-.336-4.954-1.01-6.95-2.636-12.173-7.87-15.437-15.56-2.419-5.691-2.841-10.697-2.841-10.745l1.92-.012c0 .192 1.728 19.819 17.817 25.932.922.36 2.688.926 3.917.77 1.536-.205 5.03-1.745 3.802-11.6-.692-5.488-2.496-10.903-2.535-10.963l1.92-.06c0 .06 1.843 5.487 2.535 10.998.384 3.25.307 5.885-.231 7.846-.729 2.623-2.227 4.007-4.761 4.344-.346.036-.768.06-1.152.06zm-94.349 351.387l-1.728-.265c.077-.048 8.333-5.451 23.462-20.866 13.939-14.223 36.787-40.131 66.317-82.801 38.63-55.799-1.92-90.924-28.723-114.172-13.056-11.3-23.347-20.241-20.467-27.677 1.42-3.682 4.185-5.475 8.371-5.475 13.056 0 32.141 19.181 39.744 27.424 15.744 17.087 29.069 37.135 35.558 53.62 3.763 9.555 1.805 24.067-5.798 43.164-6.106 15.258-15.821 33.464-28.915 54.114-22.272 35.149-46.848 65.581-47.117 65.882l-1.843-.144c.23-.301 24.844-30.721 47.078-65.859 20.544-32.405 43.2-75.557 34.675-97.085-6.489-16.461-19.776-36.473-35.52-53.524-7.411-8.026-14.784-14.765-21.427-19.494-9.101-6.522-14.246-7.497-16.474-7.497-1.689 0-4.8.65-6.451 4.946-2.841 7.304 7.411 16.173 20.352 27.4 13.594 11.805 30.567 26.485 39.168 45.161 10.138 21.937 6.72 44.62-10.368 69.348-29.568 42.719-52.416 68.65-66.393 82.886-15.13 15.451-23.424 20.866-23.501 20.914zM1020.9 247.345h-.07a10.076 10.076 0 01-2.96-.457c-5.41-1.793-8.6-9.615-9.45-23.248-.61-10.036.31-19.687.31-19.916.15-6.257-5.57-14.452-11.059-22.37-8.333-11.949-15.513-22.273-1.805-24.235 3.149-.457 5.914-.457 8.214 0 8.26 1.625 8.84 8.893 9.41 16.594.35 4.368.69 8.893 2.54 12.274 2.88 5.331 7.75 19.675 10.4 32.538 2.38 11.613 3.8 25.968-2.88 28.399-.77.277-1.65.421-2.65.421zm-20.62-89.961c-1.073 0-2.302.096-3.646.289-12.288 1.757-4.915 12.346 2.88 23.549 5.526 7.954 11.286 16.173 11.096 22.502v.012c0 .097-.92 9.808-.31 19.892 1.04 16.786 5.42 21.684 8.91 22.851.54.18 1.08.265 1.62.277.15 0 .65 0 1.26-.217 4.88-1.769 5.76-11.696 2.42-27.965-2.65-12.84-7.49-27.16-10.4-32.478-1.85-3.418-2.23-7.966-2.54-12.359-.54-7.196-1.11-14.644-8.52-16.088-.81-.181-1.73-.265-2.77-.265zm-36.094 215.673l-1.92-.06c.076-.277 8.486-28.23 19.66-55.895 6.567-16.257 12.788-29.229 18.474-38.567 9.71-15.956 15.86-17.941 19.62-18.038 3.07-.084 5.61 1.119 7.87 3.791 5.26 6.197 8.18 15.451 8.6 27.484.35 9.615-.84 21.022-3.57 33.91-4.64 21.937-12.21 40.817-12.29 41.009l-1.92-.072c.08-.192 7.65-19.049 12.29-40.973 4.3-20.216 6.91-47.243-4.95-61.19-2.61-3.092-4.96-3.369-5.84-3.345-2.73.072-8.72 2.443-17.89 17.557-5.686 9.325-11.907 22.285-18.435 38.53-11.213 27.641-19.623 55.582-19.699 55.859z"/><path d="M987.994 371.504c-.077-.156-1.536-3.971 0-22.791 1.228-15.15 5.184-21.672 10.176-29.927 1.305-2.154 2.65-4.38 4.07-6.943 3.15-5.728 4.22-12.502 5.26-19.049 1.27-7.905 2.42-15.366 7.03-20.926 2.3-2.791 3.65-3.309 5.14-3.261 2.58.073 3.19 2.034 4.46 8.099.77 3.598 1.61 7.689 3.42 10.216 2.34 3.285.26 7.425-2.15 12.226-2.85 5.656-6.07 12.069-3.61 19.338 4.57 13.489-17.48 47.17-17.67 47.507l-1.88-.12c.23-.337 22.2-33.922 17.66-47.315-2.49-7.341.77-13.802 3.61-19.494 2.38-4.741 4.42-8.833 2.15-11.997-1.84-2.576-2.68-6.691-3.45-10.313-.65-3.056-1.42-6.835-2.73-7.485-.42.169-1.42.746-3.11 2.768-4.53 5.499-5.72 12.936-6.95 20.806-1.04 6.57-2.11 13.357-5.3 19.121-1.42 2.563-2.76 4.789-4.07 6.943-4.991 8.231-8.908 14.729-10.136 29.83-1.498 18.724-.039 22.659 0 22.695l-1.92.072zm-94.196-256.128c-1.536 0-3.533-.276-5.837-1.239-6.643-2.756-26.803-17.593-45.58-40.962-15.706-19.554-34.023-49.854-32.18-83.174l1.92.012c-1.843 33.248 16.436 63.488 32.141 83.006 18.701 23.284 38.707 38.025 45.235 40.745 1.383.565 3.38 1.191 5.184.926 3.341-.493 7.028-3.959 6.413-12.129-.614-8.087-5.337-18.423-13.286-29.097-20.89-28.098-30.259-76.82-30.375-77.302l1.92-.036c.077.493 9.447 49.156 30.298 77.206 16.896 22.73 16.627 40.336 5.837 41.912a9.659 9.659 0 01-1.69.132z"/><path d="M937.805 247.442c-1.037 0-2.036-.096-3.072-.277-11.789-2.178-20.122-17.869-29.76-36.04-7.22-13.585-14.669-27.64-24.461-38.109-3.994-4.284-9.869-9.964-16.627-16.546-17.895-17.364-42.394-41.154-63.437-68.097-11.52-14.753-20.736-28.904-27.379-42.068-7.796-15.39-12.327-29.951-13.517-43.284l1.92-.012c5.145 57.038 69.619 119.647 104.256 153.28 6.797 6.583 12.633 12.274 16.665 16.558 9.831 10.505 17.319 24.572 24.538 38.182 9.178 17.28 17.817 33.597 28.838 35.631 1.114.204 2.228.252 3.38.12 1.804-.204 3.417-.818 4.761-1.817 7.104-5.271 5.76-19.879-3.417-37.207-6.221-11.757-21.504-34.764-53.76-56.833-13.44-9.182-27.341-23.189-41.396-41.6-11.212-14.728-22.579-32.31-33.676-52.236-18.932-33.934-30.836-63.344-30.951-63.645l1.92-.072c.115.289 12.019 29.686 30.951 63.62 17.472 31.299 44.659 72.958 74.956 93.692 32.371 22.129 47.655 45.197 53.914 56.99 9.254 17.436 10.522 32.165 3.264 37.544-1.574 1.167-3.533 1.889-5.875 2.154-.73.036-1.383.072-2.035.072zM756.212 377.304c-3.725 0-7.027-.06-9.907-.168-8.026-.313-12.98-1.071-14.669-2.25-3.725-2.636 9.945-6.258 10.56-6.402l.269-.06h.307c.23 0 23.808-.361 48.077-5.078 22.387-4.356 49.958-13.429 54.297-31.937 3.072-13.128-6.336-45.979-15.398-77.747-6.029-21.107-12.288-42.923-14.976-59.24-4.032-24.368 1.305-27.893 6.413-28.254 3.724-.265 10.444.914 25.804 14.03.192.157 18.164 16.101 33.946 35.884 9.293 11.624 16.013 22.286 20.045 31.696 4.992 11.768 5.721 21.587 2.112 29.192-2.227 4.693-4.339 9.976-6.605 15.572-7.027 17.4-14.976 37.11-30.835 53.379-8.717 8.929-18.701 15.704-30.567 20.722-13.517 5.728-29.529 9.037-47.616 9.843-12.403.53-22.886.818-31.257.818zm-13.018-8.315c-1.766.482-12.71 3.586-9.792 5.644 2.227 1.564 13.363 3.044 53.799 1.227 75.11-3.381 93.772-49.649 107.404-83.439 2.266-5.595 4.378-10.878 6.605-15.583 8.102-17.111-7.565-42.429-22.118-60.648-15.744-19.686-33.6-35.558-33.907-35.835-14.439-12.31-20.967-13.826-23.578-13.646-1.766.12-4.915 1.3-5.99 7.786-.768 4.584-.423 11.082 1.036 19.855 2.727 16.305 8.947 38.121 14.976 59.216 9.101 31.792 18.509 64.679 15.399 77.843-1.92 8.279-8.602 15.415-19.853 21.191-8.986 4.633-20.928 8.411-35.443 11.227-23.04 4.501-45.504 5.102-48.538 5.162z"/><path d="M866.88 311.676c-.922 0-2.073-.145-3.149-.698-10.713-5.523-13.44-35.98-13.593-37.436-.346-.987-16.551-49.613-19.968-73.054-.5-3.333-.615-5.752-.461-7.365.269-2.19 1.075-2.647 2.381-2.695 1.804-.072 3.724.529 10.368 8.832 4.454 5.584 10.137 13.502 17.357 23.525 3.532 4.922 7.526 10.506 11.827 16.366 15.475 21.239 14.669 39.999 12.825 49.3-2.457 12.323-9.523 22.274-16.435 23.153-.346.036-.73.072-1.152.072zm-34.483-120.574c-.615.469-1.306 2.382-.307 9.362 3.417 23.549 19.814 72.537 19.968 73.03v.024c.038.313 2.803 31.756 13.286 37.159.96.493 1.651.409 1.92.385 4.454-.566 12.365-8.147 15.245-22.623 1.843-9.265 2.649-27.953-12.787-49.132a3151.124 3151.124 0 01-11.827-16.365c-6.989-9.711-12.481-17.376-16.858-22.936-5.107-6.498-7.527-8.483-8.64-8.904zm17.279 177.719l-1.766-.253c33.293-23.068 65.587-81.068 65.587-86.76 0-1.949 3.072-7.689 7.258-13.622 2.112-2.996 4.262-5.607 6.144-7.557 2.995-3.092 4.569-3.682 5.606-3.862a4.925 4.925 0 011.69.012c1.075.228 2.15.998 1.881 4.982-.23 3.285-1.382 8.254-3.34 14.776-6.951 22.719-26.535 45.282-41.741 60.215-16.474 16.173-31.526 27.135-31.68 27.244l-1.767-.241c.154-.108 15.169-11.035 31.604-27.195 15.168-14.898 34.713-37.424 41.664-60.083 1.958-6.413 3.072-11.323 3.34-14.584.269-3.49-.537-4.344-.883-4.561-.499.145-1.881.77-4.416 3.394-1.881 1.925-3.993 4.524-6.105 7.52-4.147 5.837-7.258 11.661-7.258 13.562 0 2.936-7.834 18.555-20.621 37.315-8.909 13.02-26.534 36.774-45.197 49.698zm22.043-185.866c-1.306 0-3.418-.554-8.755-3.394-13.248-7.039-36.135-22.43-57.332-40.949-17.702-15.439-40.627-38.627-49.536-61.454-11.52-29.602-26.649-58.47-33.945-72.345-3.111-5.968-4.839-9.253-4.839-9.759 0-.373.653-.53 1.076-.59 1.113-.168 3.456-.132 11.443 1.637a274.67 274.67 0 018.256 1.962l.307.072.038.12c.116.313 12.404 31.84 32.218 66.978 11.635 20.637 23.501 38.47 35.328 52.994 14.784 18.135 29.453 31.131 43.699 38.627l.077.049c.077.06 7.143 6.293 13.517 12.526 3.725 3.67 6.528 6.619 8.217 8.785 3.149 3.971 2.228 4.476.96 4.657-.23.072-.46.084-.729.084zM719.232-4.982v.048c0 .458 1.92 4.116 4.839 9.663 7.257 13.875 22.425 42.755 33.945 72.368 15.591 40.06 78.144 87.038 106.637 102.164 4.57 2.43 6.375 2.948 6.989 3.056.422-.409.231-2.515-10.598-13.056-6.029-5.884-12.557-11.648-13.056-12.094-14.323-7.545-29.069-20.589-43.853-38.759-11.827-14.536-23.731-32.382-35.367-53.03C749.607 31.31 737.434.65 736.589-1.517c-7.91-2.022-15.897-3.61-17.357-3.466zm90.509 295.539c-.615 0-1.191-.048-1.805-.145-4.723-.758-9.523-4.921-14.63-12.719-4.263-6.462-8.794-15.559-13.517-27.015-8.563-20.841-15.975-45.389-20.928-61.646a1023.91 1023.91 0 00-3.955-12.84c-1.92-5.872-7.143-16.522-13.172-28.868-6.489-13.273-13.862-28.314-18.316-40.035-6.836-17.893-4.071-20.613-.5-20.89 3.188-.252 8.41 1.18 23.079 13.73.537.47 51.917 46.954 56.486 56.858 1.959 4.26-.461 12.731-3.264 22.538-3.84 13.418-8.179 28.628-2.88 38.11l.192.373c4.608 8.267 14.247 25.45 19.738 40.865 6.95 19.386 5.414 29.698-4.685 31.527-.538.097-1.19.157-1.843.157zM723.533 86.989h-.115c-.653.048-2.65.614-2.151 5.74.346 3.393 1.69 8.134 4.109 14.5 4.454 11.709 11.827 26.738 18.317 40.011 6.029 12.346 11.251 23.008 13.171 28.892 1.037 3.141 2.381 7.641 3.955 12.852 4.915 16.245 12.365 40.805 20.89 61.622 12.672 30.878 21.734 38.399 27.11 39.265a5.221 5.221 0 001.882-.012c6.336-1.143 12.134-7.437 3.725-30.938-5.53-15.39-15.13-32.562-19.738-40.817l-.192-.373c-5.338-9.554-.998-24.813 2.88-38.266 2.803-9.771 5.222-18.206 3.264-22.394-4.531-9.843-55.795-56.208-56.41-56.737-5.568-4.777-10.291-8.327-13.939-10.553-4.262-2.563-6.221-2.792-6.758-2.792zm55.91 277.272l-1.075-.493c.346-.073 34.752-7.63 42.624-17.16 3.917-4.741 6.874-16.197 7.027-27.243.154-12.347-3.264-20.782-8.947-22.009-1.459-.313-2.304-.241-2.803-.157-2.534.433-5.76 2.768-6.682 11.444-.652 6.137 0 13.754.5 19.867l.115 1.432c1.152 13.91-24.384 31.034-37.632 34.295l-1.191-.469c6.49-1.601 16.167-6.884 23.501-12.84 5.299-4.284 14.055-12.707 13.363-20.974l-.115-1.432c-1.382-16.534-1.805-30.348 7.181-31.864.998-.169 2.65-.277 4.8.192 9.062 1.974 9.869 16.402 9.754 22.515-.154 11.082-3.111 22.61-7.104 27.387-4.224 5.103-15.783 9.591-24.768 12.455-9.6 3.105-18.432 5.03-18.548 5.054z"/><path d="M757.862 364.995l-.921-.529c.115-.024 6.336-1.143 12.787-4.019 5.99-2.672 13.402-7.437 14.784-14.982.73-3.947 2.15-7.665 3.686-11.612 4.186-10.746 8.525-21.852-2.15-38.495-7.757-12.057-7.296-17.424-6.874-22.622.384-4.633.73-9.001-4.646-17.81-3.725-6.052-6.298-9.891-8.218-12.695-3.993-5.92-4.953-7.328-6.796-15.258-1.69-7.364-7.872-28.483-28.416-65.437-19.277-34.644-35.636-75.112-23.77-84.751 5.798-4.705 13.402-5.343 19.507-5.848 7.143-.59 12.288-1.023 12.288-7.641 0-12.335-26.995-52.947-50.995-68.458l1.728-.265c10.829 7.004 23.424 19.915 34.522 35.402 10.099 14.08 16.627 27.16 16.627 33.32 0 7.088-6.375 7.618-13.709 8.231-5.99.494-12.787 1.06-18.202 5.476-11.712 9.53 4.647 49.866 23.847 84.437 20.544 36.979 26.726 58.121 28.416 65.486 1.804 7.894 2.765 9.29 6.758 15.174 1.882 2.804 4.493 6.654 8.218 12.707 5.452 8.881 5.068 13.285 4.684 17.942-.422 5.162-.883 10.493 6.836 22.49 10.752 16.739 6.374 27.893 2.188 38.687-1.536 3.935-2.995 7.641-3.686 11.564-1.382 7.714-9.024 12.599-15.206 15.331-6.682 2.996-13.018 4.127-13.287 4.175z"/><path d="M702.297 69.95h-.269c-2.419-.073-4.915-.987-9.216-5.247-3.456-3.43-7.948-8.953-14.668-17.942-25.037-33.537-51.571-65.738-51.84-66.05l1.843-.157c.269.325 26.803 32.526 51.84 66.075 10.406 13.934 17.741 22.586 22.195 22.719 1.843.06 4.224-1.637 6.797-3.43 2.189-1.54 4.915-3.441 8.448-5.186 6.758-3.321-1.037-15.74-22.579-35.944C678.528 9.47 659.904-5.03 659.712-5.175l1.766-.228c.192.144 18.816 14.656 35.174 29.999 22.004 20.673 29.53 32.935 22.349 36.46-3.494 1.71-6.144 3.599-8.333 5.115-3.148 2.25-5.337 3.778-8.371 3.778zm35.981 294.925l-1.689-.277c3.878-2.298 8.294-7.124 14.4-13.814 4.685-5.138 10.56-11.528 18.163-18.989 12.326-12.081 5.645-25.366.307-36.052-2.342-4.644-4.339-8.664-4.569-11.985-.5-7.196-18.24-48.097-31.22-77.952-6.988-16.076-13.017-29.963-14.476-34.283-1.306-3.886-4.34-11.094-8.141-20.216-8.256-19.819-19.546-46.966-23.002-62.585-4.915-22.454-61.209-91.55-61.785-92.248l1.843-.144c.576.698 56.909 69.841 61.862 92.344 3.418 15.595 14.707 42.73 22.963 62.549 3.802 9.133 6.797 16.341 8.141 20.228 1.459 4.32 7.488 18.195 14.477 34.271 12.979 29.879 30.72 70.792 31.219 78.024.231 3.285 2.227 7.28 4.531 11.901 5.376 10.746 12.096 24.103-.384 36.329-7.603 7.46-13.44 13.838-18.124 18.976-6.298 6.956-10.522 11.564-14.516 13.923zm44.544-154.785c-.153 0-.307-.012-.461-.012-1.075-.073-2.572-.422-4.684-2.395-1.306-1.239-2.65-2.972-3.917-5.006-2.496-4.007-4.301-8.7-4.647-11.937-.691-6.859-15.974-59.372-28.761-73.451l-.039-.037v-.036c0-.012-.076-1.227.192-2.442.538-2.359 1.882-2.732 3.111-2.78 1.997-.084 4.608.71 10.099 7.063 3.418 3.959 7.987 7.75 12.365 11.408 11.405 9.494 23.193 19.314 17.625 33.597-4.569 11.757-1.42 24.38.922 33.597 1.613 6.378 2.65 10.59.538 11.877-.768.433-1.652.554-2.343.554zm-40.589-92.934c12.826 14.175 28.109 66.689 28.8 73.56.346 3.285 2.189 8.002 4.724 12.033 3.456 5.5 6.297 6.739 7.027 6.739.038 0 .307-.048.614-.253 1.882-1.131.73-5.728-.729-11.552-2.304-9.241-5.492-21.9-.922-33.717 5.491-14.127-6.182-23.886-17.51-33.308-4.416-3.671-8.948-7.473-12.404-11.456-5.145-5.933-7.449-6.558-7.987-6.63-.96.24-1.728 2.358-1.613 4.584zM1890.59 376.163l-1.89-.133c.12-.144 9.76-14.223 14.52-38.398 4.41-22.31 5.49-58.025-14.55-101.441-27.27-59.144-19.63-122.812-14.56-164.941 2.15-17.846 3.84-31.937 2.23-40.252-5.3-27.724-7.3-46.268-7.3-46.46l1.92-.024c0 .18 2 18.724 7.3 46.436 1.61 8.351-.08 22.454-2.23 40.312-5.07 42.105-12.71 105.749 14.52 164.833 8.87 19.193 14.36 38.506 16.36 57.386 1.61 15.102.99 29.976-1.81 44.199-4.76 24.223-14.44 38.35-14.51 38.483z"/><path d="M1785.79 376.331l-1.61-.337c1.34-.674 5.72-10.18 11.25-22.225 8.29-18.111 19.7-42.923 32.29-63.729 6.92-11.408 13.44-20.312 19.44-26.497 7.21-7.449 13.74-11.143 20.04-11.288 4.84-.108 9.02 1.781 12.83 5.776 7.83 8.255 12.67 19.157 14.43 32.418 1.42 10.59.89 22.695-1.61 35.98-4.22 22.61-12.75 41.058-12.82 41.238l-1.89-.084c.08-.181 8.61-18.604 12.83-41.19 3.88-20.83 4.84-49.578-12.79-68.181-4.3-4.525-8.25-5.403-10.83-5.343-6.99.156-19.23 6.763-37.71 37.291-12.59 20.806-23.96 45.595-32.29 63.705-6.76 14.668-10.06 21.756-11.56 22.466zm-24.84-.097l-1.85-.144c.23-.289 23.77-29.578 45.2-64.511 19.78-32.225 41.78-75.99 34.25-101.441-6.14-20.721-27.99-49.409-51.15-79.781-15.93-20.878-32.37-42.466-44.58-62.633-13.82-22.828-20.04-40.529-19.04-54.126 3.53-48.29.53-51.924.15-52.177.08.048.34.145.81.145v-.602l.69.096c.3.108 1.3.421 1.76 7.641.54 8.857.04 23.97-1.49 44.909-2.23 30.3 31.25 74.173 63.59 116.615 23.19 30.384 45.08 59.095 51.22 79.865 3.34 11.275 1.23 27.027-6.26 46.822-5.99 15.823-15.4 34.259-28.03 54.787-21.46 34.945-45 64.246-45.27 64.535z"/><path d="M1842.93 153.462c-.04 0-.04 0 0 0-1.73 0-4.65-.386-10.02-3.683-3.73-2.286-7.99-5.571-12.67-9.771-9.6-8.579-20.39-20.42-30.34-33.332-24.54-31.828-39.97-63.993-42.32-88.24-6.06-61.984-6.14-77.952-6.14-78.109h1.92c0 .157.08 16.125 6.14 78.084 2.38 24.212 17.78 56.329 42.28 88.109 9.95 12.899 20.7 24.716 30.26 33.272 13.56 12.105 19.39 13.056 20.89 13.056.65 0 2.84-.277 3.34-3.899 2-14.512 2.04-71.31.08-159.947-.08-2.684-.08-4.308-.08-4.537h1.92c0 .229.04 1.854.08 4.537 1.96 88.638 1.92 145.459-.08 159.971-.46 3.057-2.11 4.489-5.26 4.489z"/><path d="M1823.12 123.439c-.12 0-.23 0-.35-.012-1.77-.072-4.3-.758-8.45-5.391-2.8-3.117-5.95-7.629-9.37-13.405-6.29-10.614-13.32-25.102-20.35-41.912-12.13-29.06-24-65.27-23.27-78.253l1.92.012c-.69 11.432 9.1 44.307 23.23 78.168 7.03 16.799 14.06 31.287 20.35 41.888 3.42 5.764 6.57 10.253 9.34 13.345 4.03 4.501 6.26 4.934 6.87 4.958.35.012 1.19-.229 2.07-1.263 9.99-11.649.54-67.784-5.1-101.321-2.46-14.596-4.07-24.247-3.38-25.487l1.88.109c-.65 1.179 1.11 11.84 3.42 25.354 5.64 33.573 15.09 89.757 5.03 101.501-.58.746-1.65 1.709-3.84 1.709z"/><path d="M1816.59 99.059h-.15c-1.16-.048-2.69-.108-6.92-8.724-2.34-4.826-5.1-11.54-7.98-19.398-5.53-15.126-10.26-31.13-10.99-37.22-.38-3.32.08-7.291 4.5-7.363h.11c4.07 0 7.49 3.67 9.64 6.762 2.46 3.526 5.88 9.976 8.03 20.673.42 1.65 9.94 39.698 5.33 44.752-.3.337-.84.518-1.57.518zm-21.43-72.116c-.92.012-3.34 1.288-2.69 6.739.69 6.029 5.19 21.383 10.72 36.485 6.68 18.399 11.17 26.425 13.25 28.037 4.22-5.51-5.42-44.005-5.53-44.39-2.15-10.662-5.53-17.076-7.99-20.577-3.61-5.175-6.8-6.294-7.76-6.294zm1.73-3.479c-1.5 0-3.15-.336-4.95-1.01-6.95-2.636-12.18-7.87-15.44-15.56-2.42-5.691-2.84-10.697-2.84-10.745l1.92-.012c0 .192 1.73 19.819 17.81 25.932.93.36 2.69.926 3.92.77 1.54-.205 5.03-1.745 3.8-11.6-.69-5.488-2.49-10.903-2.53-10.963l1.92-.06c0 .06 1.84 5.487 2.53 10.998.39 3.25.31 5.885-.23 7.846-.73 2.623-2.22 4.007-4.76 4.344-.34.036-.77.06-1.15.06zm-94.35 351.387l-1.73-.265c.08-.048 8.34-5.451 23.47-20.866 13.93-14.223 36.78-40.131 66.31-82.801 38.63-55.799-1.92-90.924-28.72-114.172-13.06-11.3-23.35-20.241-20.47-27.677 1.42-3.682 4.19-5.475 8.37-5.475 13.06 0 32.14 19.181 39.75 27.424 15.74 17.087 29.07 37.135 35.56 53.62 3.76 9.555 1.8 24.067-5.8 43.164-6.11 15.258-15.82 33.464-28.92 54.114-22.27 35.149-46.85 65.581-47.11 65.882l-1.85-.144c.23-.301 24.85-30.721 47.08-65.859 20.54-32.405 43.2-75.557 34.68-97.085-6.49-16.461-19.78-36.473-35.52-53.524-7.42-8.026-14.79-14.765-21.43-19.494-9.1-6.522-14.25-7.497-16.47-7.497-1.69 0-4.81.65-6.46 4.946-2.84 7.304 7.41 16.173 20.36 27.4 13.59 11.805 30.56 26.485 39.16 45.161 10.14 21.937 6.72 44.62-10.36 69.348-29.57 42.719-52.42 68.65-66.4 82.886-15.13 15.451-23.42 20.866-23.5 20.914zm161.63-127.506h-.08a10.076 10.076 0 01-2.96-.457c-5.41-1.793-8.6-9.615-9.44-23.248-.62-10.036.3-19.687.3-19.916.16-6.257-5.56-14.452-11.06-22.37-8.33-11.949-15.51-22.273-1.8-24.235 3.15-.457 5.91-.457 8.22 0 8.25 1.625 8.83 8.893 9.41 16.594.34 4.368.69 8.893 2.53 12.274 2.88 5.331 7.76 19.675 10.41 32.538 2.38 11.613 3.8 25.968-2.88 28.399-.77.277-1.65.421-2.65.421zm-20.62-89.961c-1.08 0-2.31.096-3.65.289-12.29 1.757-4.92 12.346 2.88 23.549 5.53 7.954 11.29 16.173 11.1 22.502v.012c0 .097-.93 9.808-.31 19.892 1.04 16.786 5.41 21.684 8.91 22.851.53.18 1.07.265 1.61.277.15 0 .65 0 1.27-.217 4.87-1.769 5.76-11.696 2.42-27.965-2.65-12.84-7.49-27.16-10.41-32.478-1.84-3.418-2.23-7.966-2.53-12.359-.54-7.196-1.12-14.644-8.53-16.088-.81-.181-1.73-.265-2.76-.265zm-36.1 215.673l-1.92-.06c.08-.277 8.49-28.23 19.66-55.895 6.57-16.257 12.79-29.229 18.47-38.567 9.72-15.956 15.86-17.941 19.62-18.038 3.07-.084 5.61 1.119 7.87 3.791 5.27 6.197 8.18 15.451 8.61 27.484.34 9.615-.85 21.022-3.57 33.91-4.65 21.937-12.22 40.817-12.29 41.009l-1.92-.072c.07-.192 7.64-19.049 12.29-40.973 4.3-20.216 6.91-47.243-4.96-61.19-2.61-3.092-4.95-3.369-5.84-3.345-2.72.072-8.71 2.443-17.89 17.557-5.68 9.325-11.9 22.285-18.43 38.53-11.21 27.641-19.62 55.582-19.7 55.859z"/><path d="M1831.26 371.504c-.08-.156-1.54-3.971 0-22.791 1.23-15.15 5.18-21.672 10.17-29.927 1.31-2.154 2.65-4.38 4.07-6.943 3.15-5.728 4.23-12.502 5.26-19.049 1.27-7.905 2.42-15.366 7.03-20.926 2.31-2.791 3.65-3.309 5.15-3.261 2.57.073 3.18 2.034 4.45 8.099.77 3.598 1.61 7.689 3.42 10.216 2.34 3.285.27 7.425-2.15 12.226-2.84 5.656-6.07 12.069-3.61 19.338 4.57 13.489-17.47 47.17-17.66 47.507l-1.89-.12c.23-.337 22.2-33.922 17.67-47.315-2.5-7.341.77-13.802 3.61-19.494 2.38-4.741 4.41-8.833 2.15-11.997-1.85-2.576-2.69-6.691-3.46-10.313-.65-3.056-1.42-6.835-2.72-7.485-.43.169-1.43.746-3.11 2.768-4.54 5.499-5.73 12.936-6.96 20.806-1.03 6.57-2.11 13.357-5.29 19.121-1.43 2.563-2.77 4.789-4.07 6.943-5 8.231-8.91 14.729-10.14 29.83-1.5 18.724-.04 22.659 0 22.695l-1.92.072zm81.79-5.786l-1.92-.036c.04-.229 4.72-22.587 7.18-48.904 2.27-24.283 3.07-56.966-6.03-74.847-16.97-33.32-32.45-73.512-24.96-86.375 2.5-4.296 7.91-9.832 13.79-14.091 5.14-3.743 12.86-8.171 20.54-8.015 8.79.181 14.02 6.089 15.94 18.05 4.07 25.403 19.16 61.418 27.3 80.768 3.46 8.243 5.72 13.682 5.72 14.789h-1.92c0-1.071-2.38-6.787-5.72-14.717-8.1-19.361-23.23-55.389-27.3-80.816-2.42-15.005-9.91-17.4-14.17-17.484h-.27c-11.1 0-27.03 13.032-32.03 21.612-7.45 12.791 7.99 52.91 24.96 86.183 9.14 17.929 8.34 50.66 6.07 74.967-2.46 26.305-7.14 48.687-7.18 48.916zm4.95-242.305c-3.45 0-6.6-.421-9.37-1.263-22.23-6.751-17.2-40.468-12.78-70.215 2.38-15.848 4.6-30.817 2.22-39.397-7.22-26.184-6.14-42.947-6.14-43.115l1.92.012c0 .168-1.08 16.895 6.14 43.043 2.38 8.616.16 23.61-2.22 39.481-2.23 15.054-4.57 30.613-3.65 43.573 1.07 14.705 6.22 23.273 15.82 26.185 2.65.806 5.61 1.155 8.95 1.083 8.6-.217 16.28-3.574 22.73-9.988 5.57-5.523 10.33-13.417 14.13-23.453 6.91-18.23 9.37-40.131 10.87-53.223.8-7.04 1.3-11.685 2.11-12.972l1.88.108c-.77 1.24-1.3 6.125-2.07 12.876-1.46 13.092-3.96 35.017-10.87 53.271-3.8 10.084-8.6 18.014-14.21 23.574-6.83 6.762-14.82 10.168-24.42 10.396-.31.024-.69.024-1.04.024zm-180.94-8.037c-1.53 0-3.53-.276-5.83-1.239-6.65-2.756-26.81-17.593-45.59-40.962-15.7-19.554-34.02-49.854-32.17-83.174l1.92.012c-1.85 33.248 16.43 63.488 32.14 83.006 18.7 23.284 38.7 38.025 45.23 40.745 1.38.565 3.38 1.191 5.19.926 3.34-.493 7.02-3.959 6.41-12.129-.62-8.087-5.34-18.423-13.29-29.097-20.89-28.098-30.26-76.82-30.37-77.302l1.92-.036c.07.493 9.44 49.156 30.29 77.206 16.9 22.73 16.63 40.336 5.84 41.912-.46.084-1.04.132-1.69.132z"/><path d="M1781.07 247.442c-1.04 0-2.04-.096-3.07-.277-11.79-2.178-20.12-17.869-29.76-36.04-7.22-13.585-14.67-27.64-24.46-38.109-4-4.284-9.87-9.964-16.63-16.546-17.9-17.364-42.39-41.154-63.44-68.097-11.52-14.753-20.73-28.904-27.38-42.068-7.79-15.39-12.32-29.951-13.51-43.284l1.92-.012c5.14 57.038 69.62 119.647 104.25 153.28 6.8 6.583 12.64 12.274 16.67 16.558 9.83 10.505 17.32 24.572 24.54 38.182 9.17 17.28 17.81 33.597 28.83 35.631 1.12.204 2.23.252 3.38.12 1.81-.204 3.42-.818 4.76-1.817 7.11-5.271 5.76-19.879-3.41-37.207-6.22-11.757-21.51-34.764-53.76-56.833-13.44-9.182-27.34-23.189-41.4-41.6-11.21-14.728-22.58-32.31-33.67-52.236-18.94-33.934-30.84-63.344-30.96-63.645l1.92-.072c.12.289 12.02 29.686 30.96 63.62 17.47 31.299 44.65 72.958 74.95 93.692 32.37 22.129 47.66 45.197 53.92 56.99 9.25 17.436 10.52 32.165 3.26 37.544-1.57 1.167-3.53 1.889-5.88 2.154-.73.036-1.38.072-2.03.072zm-181.6 129.862c-3.72 0-7.02-.06-9.9-.168-8.03-.313-12.98-1.071-14.67-2.25-3.73-2.636 9.94-6.258 10.56-6.402l.27-.06h.3c.24 0 23.81-.361 48.08-5.078 22.39-4.356 49.96-13.429 54.3-31.937 3.07-13.128-6.34-45.979-15.4-77.747-6.03-21.107-12.29-42.923-14.98-59.24-4.03-24.368 1.31-27.893 6.42-28.254 3.72-.265 10.44.914 25.8 14.03.19.157 18.17 16.101 33.95 35.884 9.29 11.624 16.01 22.286 20.04 31.696 4.99 11.768 5.72 21.587 2.11 29.192-2.22 4.693-4.33 9.976-6.6 15.572-7.03 17.4-14.98 37.11-30.84 53.379-8.71 8.929-18.7 15.704-30.56 20.722-13.52 5.728-29.53 9.037-47.62 9.843-12.4.53-22.88.818-31.26.818zm-13.01-8.315c-1.77.482-12.71 3.586-9.79 5.644 2.22 1.564 13.36 3.044 53.79 1.227 75.11-3.381 93.78-49.649 107.41-83.439 2.26-5.595 4.38-10.878 6.6-15.583 8.11-17.111-7.56-42.429-22.12-60.648-15.74-19.686-33.6-35.558-33.9-35.835-14.44-12.298-20.97-13.826-23.58-13.646-1.77.12-4.92 1.3-5.99 7.786-.77 4.584-.42 11.082 1.04 19.855 2.72 16.305 8.94 38.121 14.97 59.216 9.1 31.792 18.51 64.679 15.4 77.843-1.92 8.279-8.6 15.415-19.85 21.191-8.99 4.633-20.93 8.411-35.45 11.227-23.04 4.501-45.5 5.102-48.53 5.162z"/><path d="M1710.14 311.676c-.92 0-2.07-.145-3.14-.698-10.72-5.523-13.44-35.98-13.6-37.436-.34-.987-16.55-49.613-19.97-73.054-.5-3.333-.61-5.752-.46-7.365.27-2.19 1.08-2.647 2.38-2.695 1.81-.072 3.73.529 10.37 8.832 4.46 5.584 10.14 13.502 17.36 23.525 3.53 4.922 7.52 10.506 11.83 16.366 15.47 21.239 14.66 39.999 12.82 49.3-2.46 12.323-9.52 22.274-16.43 23.153-.35.036-.73.072-1.16.072zm-34.48-120.574c-.61.469-1.3 2.382-.31 9.362 3.42 23.549 19.82 72.537 19.97 73.03v.024c.04.313 2.8 31.756 13.29 37.159.96.493 1.65.409 1.92.385 4.45-.566 12.36-8.147 15.24-22.623 1.85-9.265 2.65-27.953-12.78-49.132-4.27-5.86-8.3-11.443-11.83-16.365-6.99-9.711-12.48-17.376-16.86-22.936-5.11-6.498-7.53-8.483-8.64-8.904zm17.28 177.719l-1.77-.253c33.3-23.068 65.59-81.068 65.59-86.76 0-1.949 3.07-7.689 7.26-13.622 2.11-2.996 4.26-5.607 6.14-7.557 3-3.092 4.57-3.682 5.61-3.862a4.927 4.927 0 011.69.012c1.07.228 2.15.998 1.88 4.982-.23 3.285-1.38 8.254-3.38 14.776-6.95 22.719-26.53 45.282-41.74 60.215-16.47 16.173-31.53 27.135-31.68 27.244l-1.77-.241c.16-.108 15.17-11.035 31.61-27.195 15.16-14.898 34.71-37.424 41.66-60.083 1.96-6.413 3.07-11.323 3.34-14.584.27-3.49-.54-4.344-.88-4.561-.5.145-1.88.77-4.42 3.394-1.88 1.925-3.99 4.524-6.1 7.52-4.15 5.837-7.26 11.661-7.26 13.562 0 2.936-7.83 18.555-20.62 37.315-8.87 13.02-26.5 36.774-45.16 49.698zm22.04-185.866c-1.3 0-3.42-.554-8.75-3.394-13.25-7.039-36.14-22.43-57.33-40.949-17.71-15.439-40.63-38.627-49.54-61.454-11.52-29.602-26.65-58.47-33.95-72.345-3.11-5.968-4.83-9.253-4.83-9.759 0-.373.65-.53 1.07-.59 1.11-.168 3.46-.132 11.44 1.637 4.27.939 8.22 1.95 8.26 1.962l.31.072.04.12c.11.313 12.4 31.84 32.21 66.978 11.64 20.637 23.5 38.47 35.33 52.994 14.79 18.135 29.45 31.131 43.7 38.627l.08.049c.07.06 7.14 6.293 13.51 12.526 3.73 3.67 6.53 6.619 8.22 8.785 3.15 3.971 2.23 4.476.96 4.657-.23.072-.46.084-.73.084zM1562.5-4.982v.048c0 .458 1.92 4.116 4.83 9.663 7.26 13.875 22.43 42.755 33.95 72.368 15.59 40.06 78.14 87.038 106.64 102.164 4.57 2.43 6.37 2.948 6.99 3.056.42-.409.23-2.515-10.6-13.056-6.03-5.884-12.56-11.648-13.06-12.094-14.32-7.545-29.07-20.589-43.85-38.759-11.83-14.536-23.73-32.382-35.37-53.03C1592.87 31.31 1580.7.65 1579.85-1.517c-7.91-2.022-15.89-3.61-17.35-3.466zm90.51 295.539c-.62 0-1.2-.048-1.81-.145-4.72-.758-9.52-4.921-14.63-12.719-4.26-6.462-8.79-15.559-13.52-27.015-8.56-20.841-15.97-45.389-20.92-61.646-1.58-5.211-2.96-9.699-3.96-12.84-1.92-5.872-7.14-16.522-13.17-28.868-6.49-13.273-13.86-28.314-18.32-40.035-6.83-17.893-4.07-20.613-.5-20.89 3.19-.252 8.41 1.18 23.08 13.73.54.47 51.92 46.954 56.49 56.858 1.96 4.26-.46 12.731-3.27 22.538-3.84 13.418-8.18 28.628-2.88 38.11l.2.373c4.6 8.267 14.24 25.45 19.73 40.865 6.95 19.386 5.42 29.698-4.68 31.527-.54.097-1.19.157-1.84.157zM1566.8 86.989h-.12c-.65.048-2.65.614-2.15 5.74.35 3.393 1.69 8.134 4.11 14.5 4.45 11.709 11.83 26.738 18.32 40.011 6.03 12.346 11.25 23.008 13.17 28.892 1.03 3.141 2.38 7.641 3.95 12.852 4.92 16.245 12.37 40.805 20.89 61.622 12.68 30.878 21.74 38.399 27.11 39.265.66.108 1.23.108 1.89-.012 6.33-1.143 12.13-7.437 3.72-30.938-5.53-15.39-15.13-32.562-19.74-40.817l-.19-.373c-5.34-9.554-1-24.813 2.88-38.266 2.8-9.771 5.22-18.206 3.26-22.394-4.53-9.843-55.79-56.208-56.41-56.737-5.56-4.777-10.29-8.327-13.93-10.553-4.27-2.563-6.23-2.792-6.76-2.792zm55.91 277.272l-1.08-.493c.35-.073 34.75-7.63 42.63-17.16 3.91-4.741 6.87-16.197 7.02-27.243.16-12.347-3.26-20.782-8.94-22.009-1.46-.313-2.31-.241-2.81-.157-2.53.433-5.76 2.768-6.68 11.444-.65 6.137 0 13.754.5 19.867l.12 1.432c1.15 13.91-24.39 31.034-37.64 34.295l-1.19-.469c6.49-1.601 16.17-6.884 23.5-12.84 5.3-4.284 14.06-12.707 13.37-20.974l-.12-1.432c-1.38-16.534-1.8-30.348 7.18-31.864 1-.169 2.65-.277 4.8.192 9.07 1.974 9.87 16.402 9.76 22.515-.16 11.082-3.11 22.61-7.11 27.387-4.22 5.103-15.78 9.591-24.77 12.455-9.6 3.105-18.43 5.03-18.54 5.054z"/><path d="M1601.13 364.995l-.93-.529c.12-.024 6.34-1.143 12.75-4.019 5.99-2.672 13.41-7.437 14.79-14.982.73-3.947 2.15-7.665 3.72-11.612 4.19-10.746 8.53-21.852-2.15-38.495-7.75-12.057-7.29-17.424-6.87-22.622.38-4.633.73-9.001-4.65-17.81-3.72-6.052-6.3-9.891-8.22-12.695-3.99-5.92-4.95-7.328-6.79-15.258-1.69-7.364-7.87-28.483-28.42-65.437-19.28-34.644-35.63-75.112-23.77-84.751 5.8-4.705 13.4-5.343 19.51-5.848 7.14-.59 12.29-1.023 12.29-7.641 0-12.335-27-52.947-51-68.458l1.73-.265c10.83 7.004 23.42 19.915 34.52 35.402 10.1 14.08 16.63 27.16 16.63 33.32 0 7.088-6.38 7.618-13.71 8.231-5.99.494-12.79 1.06-18.2 5.476-11.71 9.53 4.64 49.866 23.84 84.437 20.55 36.979 26.73 58.121 28.42 65.486 1.81 7.894 2.77 9.29 6.76 15.174 1.88 2.804 4.49 6.654 8.22 12.707 5.45 8.881 5.07 13.285 4.68 17.942-.42 5.162-.88 10.493 6.84 22.49 10.75 16.739 6.37 27.893 2.19 38.687-1.54 3.935-3 7.641-3.69 11.564-1.38 7.714-9.02 12.599-15.21 15.331-6.68 2.996-13.01 4.127-13.28 4.175z"/><path d="M1545.56 69.95h-.27c-2.42-.073-4.91-.987-9.21-5.247-3.46-3.43-7.95-8.953-14.67-17.942-25.04-33.537-51.57-65.738-51.84-66.05l1.84-.157c.27.325 26.8 32.526 51.84 66.075 10.41 13.934 17.74 22.586 22.2 22.719 1.84.06 4.22-1.637 6.79-3.43 2.19-1.54 4.92-3.441 8.45-5.186 6.76-3.321-1.04-15.74-22.58-35.944-16.32-15.318-34.94-29.818-35.13-29.963l1.76-.228c.19.144 18.82 14.656 35.18 29.999 22 20.673 29.53 32.935 22.35 36.46-3.5 1.71-6.15 3.599-8.34 5.115-3.15 2.25-5.33 3.778-8.37 3.778zm35.98 294.925l-1.69-.277c3.88-2.298 8.3-7.124 14.4-13.814 4.69-5.138 10.56-11.528 18.17-18.989 12.32-12.081 5.64-25.366.3-36.052-2.34-4.644-4.34-8.664-4.57-11.985-.5-7.196-18.24-48.097-31.22-77.952-6.98-16.076-13.01-29.963-14.47-34.283-1.31-3.886-4.34-11.094-8.14-20.216-8.26-19.819-19.55-46.966-22.97-62.585-4.91-22.454-61.21-91.55-61.78-92.248l1.84-.144c.58.698 56.91 69.841 61.86 92.344 3.42 15.595 14.71 42.73 22.97 62.549 3.8 9.133 6.79 16.341 8.14 20.228 1.46 4.32 7.49 18.195 14.47 34.271 12.98 29.879 30.72 70.792 31.22 78.024.23 3.285 2.23 7.28 4.54 11.901 5.37 10.746 12.09 24.103-.39 36.329-7.6 7.46-13.44 13.838-18.12 18.976-6.34 6.956-10.56 11.564-14.56 13.923zm44.55-154.785c-.16 0-.31-.012-.46-.012-1.08-.073-2.58-.422-4.69-2.395-1.3-1.239-2.65-2.972-3.92-5.006-2.49-4.007-4.3-8.7-4.64-11.937-.69-6.859-15.98-59.372-28.76-73.451l-.04-.037v-.036c0-.012-.08-1.227.19-2.442.54-2.359 1.88-2.732 3.11-2.78 2-.084 4.61.71 10.1 7.063 3.42 3.959 7.99 7.75 12.36 11.408 11.41 9.494 23.2 19.314 17.63 33.597-4.57 11.757-1.42 24.38.92 33.597 1.61 6.378 2.65 10.59.54 11.877-.77.433-1.65.554-2.34.554zm-40.59-92.934c12.82 14.175 28.11 66.689 28.8 73.56.34 3.285 2.19 8.002 4.72 12.033 3.46 5.5 6.3 6.739 7.03 6.739.04 0 .31-.048.61-.253 1.88-1.131.73-5.728-.73-11.552-2.3-9.241-5.49-21.9-.92-33.717 5.49-14.127-6.18-23.886-17.51-33.308-4.41-3.671-8.95-7.473-12.4-11.456-5.15-5.933-7.45-6.558-7.99-6.63-.96.24-1.73 2.358-1.61 4.584zm-1206.377-6.377c-1.267 0-2.342-.541-3.916-1.961-9.677-8.748-16.436-29.83-21.351-45.21-1.958-6.148-3.686-11.455-5.184-14.885-2.265-5.078 3.341-15.258 16.627-30.251 9.869-11.143 20.544-20.938 20.66-21.035l1.804.193c-.422.385-42.47 39.06-37.209 50.997 1.536 3.442 3.225 8.76 5.184 14.91 4.915 15.354 11.635 36.388 21.273 45.076.999.915 1.652 1.3 1.997 1.456.538-.469 1.037-2.154.192-7.689-.691-4.524-2.073-10.565-3.571-16.955-3.034-13.188-6.49-28.134-5.107-35.57 2.381-12.816 20.352-38.435 27.993-49.373 2.151-3.057 3.84-5.475 3.879-5.728h1.92c0 .265-1.114 1.89-3.917 5.86-7.642 10.926-25.613 36.497-27.955 49.277-1.383 7.388 2.073 22.322 5.107 35.486 1.536 6.63 2.957 12.876 3.648 17.46 1.037 7.148-.192 7.822-1.805 7.918-.077.012-.153.024-.269.024z"/><path d="M557.184 373.972c0-.024-1.229-2.984-6.144-21.07-4.378-16.041-52.493-40.601-78.336-53.789a1225.513 1225.513 0 01-9.101-4.681c-12.019-6.294-20.506-20.337-25.536-31.01-5.76-12.262-9.869-26.389-10.714-36.894-.96-11.697-13.017-32.274-22.732-48.807-6.183-10.53-11.52-19.627-12.98-24.573-3.84-12.899-3.072-20.42 0-31.455 2.228-8.002 8.909-36.364 1.92-65.172-3.379-13.899 3.072-28.76 9.101-38.784C409.19 6.883 416.563-.794 416.64-.866l1.843.18c-.077.072-7.45 7.726-13.939 18.556-5.991 9.987-12.403 24.788-9.063 38.615 7.028 28.844.308 57.254-1.92 65.268-3.072 11.011-3.84 18.508 0 31.359 1.46 4.922 6.797 14.007 12.98 24.524 9.715 16.558 21.811 37.159 22.732 48.904.845 10.469 4.954 24.584 10.676 36.81 4.992 10.613 13.44 24.572 25.267 30.781 2.496 1.312 5.568 2.876 9.101 4.681 25.92 13.237 74.188 37.869 78.604 54.054 4.916 18.05 6.144 21.022 6.144 21.046l-1.881.06zm-49.497-5.127c-1.652-1.564-40.359-38.326-39.591-49.673.154-2.563 1.421-5.644 6.413-5.812 5.568-.193 13.133 3.585 22.426 11.227 11.059 9.085 23.961 23.031 38.323 41.454l-1.882.145c-39.168-50.275-55.757-52.321-58.675-52.225-2.112.072-4.454 1.48-4.723 5.235-.768 11.251 39.091 49.096 39.513 49.481l-1.804.168z"/><path d="M486.182 294.636c-.384 0-.768-.036-1.114-.109-7.564-1.516-10.752-7.184-16.012-16.582-3.956-7.039-8.832-15.787-17.434-26.196-11.443-13.863-17.933-34.825-23.616-53.308-4.262-13.814-7.949-25.751-12.864-32.009-9.446-12.057-7.565-31.816-6.144-46.232.307-3.2.614-6.221.73-8.832.768-14.584.384-72.188 0-81.093-.384-8.844 21.696-33.645 21.926-33.898l1.843.157c-.23.253-22.233 24.969-21.849 33.73.384 8.904.768 66.52 0 81.116-.154 2.623-.423 5.644-.73 8.844-1.382 14.392-3.302 34.091 6.106 46.076 4.953 6.306 8.64 18.255 12.902 32.093 5.683 18.471 12.173 39.397 23.578 53.211 8.601 10.421 13.516 19.194 17.472 26.233 4.992 8.917 8.294 14.813 15.168 16.185a.285.285 0 00.076.012c.039 0 .231-.024.5-.144 5.26-2.142 11.443-19.591 12.71-45.101 1.344-28.05-3.994-53.2-14.746-69.012a332.434 332.434 0 00-2.38-3.477c-12.864-18.905-28.877-42.418-37.978-71.767-10.675-34.355-9.907-69.805 2.304-108.36l1.92.06c-27.571 87.05 8.947 140.73 35.635 179.934.807 1.18 1.575 2.335 2.381 3.478 15.514 22.887 15.475 56.785 14.707 70.299-1.113 20.384-6.374 42.923-13.824 44.559a7.161 7.161 0 01-1.267.133z"/><path d="M477.312 264.18c-1.766 0-3.187-.722-4.109-1.299-16.166-10.024-45.619-98.722-48.499-109.732-2.65-10.229-6.144-58.603-6.144-68.735 0-3.646 1.843-4.296 3.456-4.44 1.69-.156 3.533.265 5.76 1.324 3.149 1.504 4.954 3.273 5.299 5.138 3.418 20.18 27.264 90.322 36.941 108.757 4.493 8.544 9.293 25.174 11.712 40.444 1.229 7.906 1.69 14.645 1.344 19.494-.576 7.593-2.995 8.809-5.03 9.013-.308.036-.5.036-.73.036zM422.669 80.54h-.115c-.346.036-2.112.373-2.112 3.862 0 10.132 3.494 58.458 6.144 68.687 1.382 5.39 9.6 30.576 19.161 54.932 12.365 31.563 22.426 50.431 29.146 54.583 1.382.866 2.265.999 2.457.975.5-.049 3.111-.71 3.725-8.46.384-4.837-.077-11.564-1.305-19.458-2.381-15.258-7.22-31.864-11.674-40.384-9.677-18.459-33.523-88.637-36.979-108.83-.307-1.756-2.035-3.429-4.992-4.837-2.035-.974-3.111-1.07-3.456-1.07zM597.85 368.822l-1.882-.133c2.612-3.525-15.206-24.03-32.409-43.873-12.672-14.597-25.767-29.674-30.183-37.472-4.684-8.267-2.88-19.626-1.267-29.662 1.92-11.937 3.725-23.225-6.413-25.379-.96-.204-1.804-.216-2.649-.012-6.797 1.601-11.175 14.079-10.637 30.336.461 13.61 4.57 31.66 14.746 41.528 20.121 19.518 46.617 56.328 46.886 56.701l-1.882.132c-.268-.373-26.726-37.159-46.809-56.653-10.253-9.927-14.362-28.062-14.823-41.708-.422-12.887 2.304-28.687 11.405-30.829 1.536-.361 3.226-.361 4.877 0 11.021 2.347 9.254 13.261 7.219 25.908-1.613 10-3.417 21.323 1.229 29.53 4.416 7.773 17.472 22.839 30.144 37.423 18.086 20.83 35.174 40.492 32.448 44.163z"/><path d="M617.127 364.887c-.153-.145-15.552-14.067-31.027-30.697-14.285-15.355-31.565-36.233-32.755-48.446-.269-2.563-.461-5.163-.73-7.918-1.958-22.394-4.185-47.773-19.046-54.126-12.25-5.235-19.277-17.593-26.112-29.542-2.65-4.645-5.146-9.025-7.872-12.804-4.877-6.774-19.853-31.671-32.41-57.134-10.982-22.322-22.886-50.817-17.126-59.83 4.608-7.22 9.062-9.373 12.288-10.95 4.224-2.045 6.528-3.177 4.569-14.356-3.379-19.12-.192-42.225 6.26-45.774l1.651.3c-2.842 1.565-5.299 7.762-6.528 16.57-1.267 9.146-1.075 19.663.537 28.868 1.997 11.372-.422 12.563-4.876 14.717-3.149 1.54-7.488 3.646-12.02 10.746-10.521 16.51 38.823 101.838 49.536 116.723 2.727 3.791 5.223 8.183 7.872 12.828 6.452 11.335 13.786 24.175 25.767 29.289 15.245 6.51 17.472 31.996 19.43 54.475.231 2.755.461 5.355.73 7.906 1.19 12.153 18.432 32.971 32.678 48.301 15.475 16.618 30.835 30.529 30.989 30.673l-1.805.181z"/><path d="M638.4 396.258v-.602c-.46 0-.729.096-.768.132.308-.216 2.996-3.261-.192-41.467-2.265-27.099-30.72-42.598-51.494-53.909-10.906-5.932-19.507-10.613-20.314-15.03-.921-4.957 2.189-8.435 6.106-12.827 5.952-6.679 14.093-15.812 12.71-36.16-1.382-20.325-5.798-22.803-18.854-30.156-8.64-4.861-20.467-11.528-37.555-26.437-44.007-38.447-63.783-101.044-63.783-112.728 0-5.716 3.226-8.315 7.335-11.6 4.608-3.67 10.329-8.255 13.017-19.35 4.954-20.469 14.9-40.733 14.976-40.937l1.882.096c-.115.204-10.022 20.444-14.976 40.89-2.688 11.19-8.486 15.81-13.133 19.53-4.032 3.224-7.219 5.763-7.219 11.37 0 11.673 19.738 74.15 63.706 112.536 17.011 14.85 28.8 21.492 37.401 26.341 13.248 7.449 17.703 9.964 19.085 30.433 1.421 20.444-6.797 29.626-12.787 36.34-3.879 4.344-6.912 7.762-6.029 12.623.806 4.272 9.293 8.905 20.045 14.765 10.061 5.487 22.617 12.31 32.717 21.059 11.827 10.24 18.048 21.082 19.046 33.139 1.382 16.582 1.843 28.567 1.344 35.631-.384 5.824-1.267 6.113-1.613 6.209l-.269.096-.384.013z"/><path d="M594.164 207.707h-.039c-4.531-.024-9.292-3.851-23.5-15.21-4.992-3.983-11.175-8.941-18.74-14.837-36.518-28.411-64.204-84.607-67.276-90.924-3.149-6.558-3.111-14.236.192-22.803 2.572-6.679 6.528-12.479 9.446-16.173 1.613-2.058 3.533-3.032 6.029-3.069h.115c3.878 0 6.643 2.48 7.219 3.02.768.53 18.893 12.949 38.362 28.424 18.278 14.536 41.549 34.812 48.499 48.891 13.286 26.906 9.83 77.085 3.763 81.393-.883.602-2.112 1.288-4.07 1.288zM500.391 45.293c-.038 0-.038 0 0 0-.538 0-2.419.217-4.262 2.611-5.261 6.715-16.704 23.935-9.6 38.748 3.033 6.305 30.72 62.429 67.123 90.779 7.603 5.896 13.785 10.854 18.739 14.837 6.528 5.235 11.29 9.025 14.784 11.444 3.226 2.238 5.568 3.369 6.95 3.381.384 0 1.152-.12 2.266-.914 2.573-1.817 5.184-14.212 5.184-31.828 0-19.579-3.302-37.52-9.101-49.229-6.912-14.019-30.144-34.259-48.384-48.759-19.776-15.727-38.131-28.29-38.323-28.41l-.038-.037c-1.037-1.059-3.495-2.623-5.338-2.623z"/><path d="M581.798 187.491c-1.036 0-3.417-.312-10.944-5.715-5.299-3.815-11.788-9.23-18.24-15.223-9.6-8.904-27.84-27.219-42.24-49.709-22.195-34.692-15.321-48.615-12.019-55.305.653-1.288 1.152-2.299 1.267-3.13.231-1.575 1.306-2.394 3.38-2.562 3.686-.301 8.256 1.961 9.139 2.419l.077.048c.46.349 44.428 35.498 66.854 64.775 18.931 24.717 9.946 48.687 6.144 58.915-.806 2.118-1.382 3.646-1.498 4.585-.038.217-.115.866-1.689.902h-.231zM503.693 56.412c-.077 0-.192 0-.269.012-.384.037-1.69.265-1.92 2.01-.115.866-.653 1.89-1.267 3.2-3.303 6.655-10.138 20.506 12.019 55.089 14.208 22.178 32.179 40.288 41.626 49.12 6.451 6.041 12.748 11.312 18.124 15.259 6.221 4.548 8.832 5.535 9.639 5.74.038-.061.077-.145.115-.277.115-.951.691-2.491 1.498-4.621 3.801-10.204 12.748-34.09-6.068-58.711-22.118-28.928-65.395-63.584-66.739-64.679-1.766-.902-4.992-2.142-6.758-2.142z"/><path d="M570.893 170.993c-2.957 0-6.912-1.492-15.014-10.445-5.76-6.353-12.25-14.921-19.085-23.994-4.877-6.45-9.907-13.116-14.899-19.217-10.906-13.405-13.786-24.2-14.515-29.434-.615-4.452-.154-7.352.345-8.989 1.075-3.49 2.919-3.718 3.61-3.802 4.569-.554 7.795.481 8.87 1.095l.039.024c.192.132 17.932 13.886 38.822 37.821 8.832 10.096 15.322 22.923 17.856 35.197 2.227 10.842.96 19.157-3.226 21.179-.691.325-1.459.505-2.342.553-.154.012-.307.012-.461.012zm-56.985-95.448c-.576 0-1.191.036-1.882.12 0 0-1.536.301-2.458 3.442-.499 1.648-.921 4.524-.268 8.928.768 5.199 3.648 15.884 14.438 29.157 4.992 6.113 10.022 12.78 14.899 19.23 6.874 9.061 13.325 17.628 19.085 23.97 3.072 3.393 5.683 5.848 7.949 7.521 3.225 2.394 4.953 2.503 5.376 2.491.307-.012.653-.121.998-.289 3.917-1.901 5.107-10.265 2.919-20.818-2.535-12.238-8.986-25.017-17.78-35.077-20.544-23.501-38.016-37.17-38.707-37.736-.192-.12-1.805-.94-4.569-.94z"/><path d="M560.871 147.349c-1.268 0-2.381-.578-3.61-1.444-12.902-8.953-31.565-40.204-31.565-42.598 0-1.167.73-1.865 2.189-2.106 1.075-.181 2.227-.048 2.765.048l.23.048.116.084c7.372 5.295 16.281 15.415 23.731 27.075 3.11 4.862 5.568 9.41 6.95 12.828 2.304 5.68.653 5.908-.192 6.029-.192.012-.422.036-.614.036zm-31.795-45.643c-.077 0-.193 0-.308.024-.269.049-1.19.301-1.19 1.577 0 2.382 18.547 33.452 31.411 42.357.845.578 1.382.854 1.69.975.268-.373.614-1.649-1.152-5.812-1.46-3.466-3.955-7.99-7.027-12.756-7.335-11.323-15.975-21.154-23.156-26.341-.038-.024-.153-.024-.268-.024z"/><path d="M666.624 371.542l-1.92-.024c.039-.241 2.458-24.199-18.393-49.854-5.876-7.233-11.674-13.947-17.28-20.445-14.477-16.751-25.882-29.987-27.303-39.06-.614-3.971.845-7.389 3.072-12.563 4.992-11.576 13.325-30.938 12.288-83.235-1.229-61.153-53.184-94.461-84.249-114.352-7.604-4.874-14.17-9.086-18.24-12.611-10.599-9.194-8.564-20.734-4.992-28.796 3.84-8.724 10.291-15.367 10.368-15.439l1.843.18c-.077.06-6.451 6.68-10.291 15.355-3.533 7.99-5.53 19.422 4.915 28.507 4.032 3.502 10.56 7.701 18.163 12.55 31.104 19.952 83.213 53.333 84.442 114.618 1.036 52.333-7.296 71.731-12.288 83.319-2.228 5.138-3.687 8.544-3.072 12.455 1.382 9.001 12.787 22.201 27.225 38.927 5.607 6.498 11.405 13.225 17.28 20.457 20.89 25.715 18.471 49.77 18.432 50.011z"/><path d="M697.344 371.578l-1.882-.121c14.976-24.03-9.715-62.561-29.606-93.535-1.997-3.129-3.917-6.089-5.722-8.989-10.675-16.883-11.558-50.227-12.249-77.013-.308-11.239-.576-21.841-1.575-29.47-.537-4.055-1.19-7.039-2.073-9.145-1.268-3.057-2.727-3.478-3.111-3.538-.153-.024-.345.036-.537.072-4.493 1.24-6.643 9.82-6.413 25.511.192 13.911 2.189 31.551 3.994 47.11 1.843 16.113 3.417 30.024 2.764 36.907-1.881 20.192 48.615 106.17 49.152 107.036l-1.881.109c-.5-.867-51.072-86.905-49.152-107.157.652-6.859-.922-20.758-2.765-36.858-1.766-15.572-3.763-33.212-3.994-47.135-.307-21.443 3.879-25.089 7.066-25.968a6.287 6.287 0 012.573-.168c2.457.349 4.915 2.178 6.336 13.2.96 7.641 1.267 18.255 1.574 29.494.73 26.762 1.613 60.07 12.211 76.893 1.843 2.912 3.725 5.86 5.722 8.989 19.853 31.034 44.621 69.637 29.568 93.776zm16.858-8.64l-1.843-.157c29.376-34.957 13.939-88.409 4.723-120.357-3.802-13.177-6.566-22.683-4.762-25.944.423-.782 1.076-1.504 2.765-1.456 1.037.024 2.343.277 4.493 2.936 1.344 1.697 2.88 4.139 4.531 7.268 3.187 6.053 6.72 14.548 9.984 23.946 5.799 16.703 12.019 40.228 12.019 56.172 0 16.738-5.76 31.503-10.56 40.949-5.222 10.229-10.521 16.582-10.598 16.655l-1.843-.157c.038-.06 5.337-6.402 10.56-16.606 4.8-9.41 10.56-24.139 10.56-40.841 0-15.716-6.067-38.94-11.789-55.45-3.187-9.289-6.72-17.785-9.869-23.91-4.301-8.363-6.758-9.988-7.526-10.288-.192.108-.499.361-.807.914-1.766 3.177.96 12.659 4.762 25.788 9.216 31.96 24.691 85.484-4.8 120.538z"/><path d="M708.48 362.877l-1.92-.024c.039-.192 2.88-19.157 3.648-42.116.691-21.191-.307-50.215-9.024-68.169-12.518-25.764-3.686-35.414 4.109-43.934 2.688-2.948 5.261-5.728 6.643-8.977 2.573-5.944.384-20.035-5.606-36.75-6.413-17.749-15.667-34.848-25.459-46.893-23.309-28.7-48.423-66.376-48.423-81.298 0-15.426-20.889-42.381-21.081-42.646l1.881-.144c.231.277 21.159 27.291 21.159 42.79 0 14.873 25.075 52.49 48.345 81.153 9.792 12.07 19.124 29.193 25.498 46.966 6.029 16.763 8.179 30.902 5.606 36.894-1.42 3.286-3.993 6.089-6.681 9.062-7.757 8.459-16.512 18.05-4.071 43.681 8.756 17.989 9.754 47.05 9.024 68.265-.768 22.971-3.609 41.948-3.648 42.14z"/><path d="M693.542 286.922c-1.267 0-2.88-.433-6.336-4.067-2.188-2.286-4.876-5.596-7.987-9.843-6.681-9.098-13.632-20.108-17.165-25.86-7.449-12.13-2.841-36.184.884-55.522 2.304-12.045 4.301-22.454 3.302-28.266-2.073-11.901-15.936-16.365-26.035-19.614-2.995-.963-5.837-1.878-7.987-2.852-5.491-2.503-12.826-14.934-20.583-28.098-5.568-9.458-11.366-19.241-16.819-26.028-5.99-7.449-16.55-14.705-27.725-22.394-13.171-9.05-28.108-19.302-38.707-31.997-10.137-12.166-10.329-20.818-8.717-25.932 1.767-5.571 5.914-8.219 6.106-8.327l1.728.265c-.039.024-4.186 2.695-5.914 8.17-1.574 5.067-1.382 13.622 8.679 25.668 10.56 12.647 25.459 22.875 38.592 31.9 11.213 7.713 21.811 14.994 27.84 22.49 5.453 6.8 11.251 16.594 16.819 26.065 7.718 13.104 15.014 25.474 20.275 27.869 2.035.926 4.685 1.781 7.757 2.767 10.329 3.322 24.499 7.87 26.573 20 .998 5.848-.999 16.269-3.303 28.338-3.724 19.302-8.332 43.32-.921 55.366 3.417 5.583 10.176 16.305 16.742 25.306 3.034 4.175 5.683 7.485 7.872 9.831 2.88 3.081 4.378 3.875 4.915 4.079.269-.204.807-.866.807-2.948 0-4.055-1.652-11.371-3.572-19.843-4.454-19.626-10.559-46.497-2.534-59.757 13.287-21.901 9.485-46.461-10.33-67.363-22.272-23.453-75.033-124.376-82.982-141.56l1.882-.084c7.949 17.171 60.672 118.047 82.905 141.464 10.522 11.094 16.551 23.031 17.895 35.498 1.19 10.974-1.421 22.093-7.488 32.153-7.987 13.188-1.882 40.011 2.572 59.601 1.92 8.484 3.61 15.8 3.61 19.879 0 2.948-.922 3.55-2.458 3.598-.076.048-.153.048-.192.048z"/><path d="M679.526 193.231c-1.651 0-2.611-.734-3.264-1.396-1.92-1.961-1.843-5.896-1.728-10.878.192-9.988.499-25.077-16.243-36.136-25.728-16.979-40.781-44.319-50.765-62.405-5.069-9.193-18.624-19.301-31.718-29.072-14.784-11.047-30.106-22.467-34.368-33.152-8.026-20.108-.154-23.778.192-23.923l1.536.35-.768-.181.768.168c-.077.036-7.68 3.803.153 23.502 4.224 10.6 19.469 21.984 34.215 32.995 13.133 9.807 26.726 19.951 31.833 29.205 9.946 18.062 24.999 45.353 50.612 62.26 16.934 11.191 16.627 26.353 16.435 36.401-.115 4.934-.192 8.821 1.651 10.698.73.758 1.306.926 1.459.962.96-.168 3.187-1.937 5.031-7.545 1.344-4.139 1.843-8.712 1.228-11.118-.921-3.634-5.76-10.915-15.398-25.439-6.221-9.398-14.784-22.249-25.651-39.265-6.259-9.783-13.44-20.613-20.391-31.082-24.153-36.473-49.152-74.185-46.464-83.439l1.92.06c-2.649 9.17 22.311 46.834 46.426 83.259 6.95 10.469 14.131 21.299 20.39 31.082 10.868 17.003 19.431 29.867 25.652 39.265 9.676 14.548 14.515 21.852 15.436 25.511.615 2.478.116 7.147-1.305 11.371-2.535 7.701-5.568 7.882-6.567 7.942h-.307z"/><path d="M605.913 64.03c-.806 0-1.344-.326-1.881-.627-.615-.349-1.421-.878-2.458-1.624-2.15-1.492-5.299-3.85-9.715-7.22-17.702-13.514-28.339-28.026-34.176-37.833-6.336-10.613-8.486-18.134-8.525-18.218l1.92-.049c.039.073 2.189 7.57 8.487 18.159 5.798 9.77 16.435 24.235 34.06 37.7 2.074 1.6 7.373 5.62 10.522 7.762-1.075-1.312-2.842-3.285-4.685-5.319-6.259-6.931-15.744-17.424-15.744-21.817 0-9.133-15.59-39.83-15.744-40.143l1.882-.096c.153.313 15.744 31.058 15.744 40.24 0 4.32 9.408 14.752 15.667 21.66 1.805 2.01 3.379 3.754 4.416 5.005.538.662.922 1.156 1.114 1.492.23.386.46.795-.538.903-.115.012-.23.024-.346.024zm873.447 300.111l-.92-.53c.11-.024 6.33-1.143 12.75-4.019 5.99-2.671 13.4-7.436 14.78-14.981.73-3.947 2.15-7.665 3.73-11.612 4.18-10.746 8.52-21.853-2.15-38.495-7.76-12.057-7.3-17.424-6.88-22.623.39-4.633.73-9.001-4.64-17.809-3.73-6.053-6.3-9.891-8.22-12.695-4-5.921-4.96-7.329-6.8-15.258-1.69-7.365-7.87-28.483-28.41-65.438-19.28-34.644-35.64-75.112-23.77-84.75 5.79-4.706 13.4-5.343 19.5-5.849 7.15-.59 12.29-1.022 12.29-7.64 0-12.335-26.99-52.948-50.99-68.459l1.72-.264c10.83 7.003 23.43 19.915 34.53 35.402 10.09 14.079 16.62 27.16 16.62 33.32 0 7.088-6.37 7.617-13.71 8.23-5.99.494-12.78 1.06-18.2 5.476-11.71 9.53 4.65 49.866 23.85 84.438 20.54 36.978 26.72 58.121 28.41 65.485 1.81 7.894 2.77 9.29 6.76 15.174 1.88 2.804 4.5 6.655 8.22 12.708 5.45 8.88 5.07 13.284 4.69 17.941-.43 5.163-.89 10.493 6.83 22.491 10.75 16.738 6.37 27.893 2.19 38.687-1.54 3.935-3 7.641-3.69 11.564-1.38 7.713-9.02 12.599-15.2 15.33-6.69 2.985-13.02 4.128-13.29 4.176z"/><path d="M1423.8 69.084h-.27c-2.42-.072-4.92-.987-9.22-5.246-3.46-3.43-7.95-8.953-14.67-17.942-25.04-33.537-51.57-65.738-51.84-66.051l1.84-.156c.27.324 26.81 32.526 51.84 66.075 10.41 13.934 17.75 22.586 22.2 22.718 1.8.049 4.22-1.636 6.8-3.43 2.19-1.54 4.91-3.44 8.44-5.185 6.76-3.322-1.03-15.74-22.57-35.944-16.32-15.318-34.95-29.819-35.14-29.963l1.77-.229c.19.145 18.81 14.657 35.17 30 22 20.673 29.53 32.935 22.35 36.46-3.49 1.71-6.14 3.598-8.33 5.115-3.15 2.262-5.34 3.778-8.37 3.778zm35.98 294.925l-1.69-.277c3.88-2.298 8.29-7.124 14.4-13.814 4.68-5.139 10.56-11.528 18.16-18.989 12.33-12.081 5.64-25.366.31-36.052-2.35-4.645-4.34-8.664-4.57-11.985-.5-7.196-18.24-48.097-31.22-77.952-6.99-16.076-13.02-29.963-14.48-34.283-1.3-3.887-4.34-11.095-8.14-20.216-8.26-19.819-19.54-46.966-22.96-62.585-4.92-22.454-61.21-91.55-61.79-92.248l1.84-.144c.58.698 56.91 69.841 61.87 92.344 3.42 15.595 14.7 42.73 22.96 62.549 3.8 9.133 6.8 16.341 8.14 20.228 1.46 4.32 7.49 18.194 14.48 34.271 12.98 29.879 30.72 70.792 31.22 78.024.23 3.285 2.22 7.28 4.53 11.901 5.37 10.746 12.09 24.103-.39 36.329-7.6 7.46-13.44 13.838-18.12 18.976-6.37 6.967-10.56 11.576-14.55 13.923zm-253.64 18.531c-.26-.325-26.8-32.527-51.84-66.076-10.4-13.934-17.74-22.586-22.19-22.718-1.81-.061-4.23 1.636-6.8 3.429-2.19 1.54-4.91 3.442-8.45 5.186-6.75 3.322 1.04 15.74 22.58 35.944 16.32 15.318 34.95 29.819 35.14 29.963l-1.77.229c-.19-.145-18.81-14.657-35.17-29.999-22-20.674-29.53-32.936-22.35-36.461 3.49-1.709 6.14-3.598 8.33-5.115 3.3-2.334 5.49-3.874 8.72-3.778 2.42.072 4.91.987 9.22 5.246 3.45 3.43 7.94 8.953 14.66 17.942 25.04 33.537 51.58 65.738 51.84 66.051l-1.92.157zm0-15.765c-.57-.698-56.9-69.841-61.86-92.343-3.42-15.596-14.71-42.731-22.96-62.55-3.8-9.133-6.8-16.341-8.14-20.228-1.46-4.32-7.49-18.194-14.48-34.271-12.98-29.878-30.72-70.792-31.22-78.024-.23-3.285-2.23-7.28-4.53-11.9-5.38-10.747-12.1-24.104.38-36.33 7.61-7.46 13.44-13.838 18.13-18.976 6.37-6.967 10.6-11.564 14.55-13.923l1.69.277c-3.88 2.299-8.29 7.124-14.4 13.815-4.68 5.138-10.56 11.527-18.16 18.988-12.33 12.082-5.65 25.366-.31 36.052 2.34 4.645 4.34 8.664 4.57 11.985.5 7.196 18.24 48.097 31.22 77.952 6.99 16.077 13.02 29.963 14.48 34.283 1.3 3.887 4.34 11.095 8.14 20.216 8.25 19.819 19.54 46.966 22.96 62.585 4.92 22.455 61.21 91.55 61.79 92.248l-1.85.144z"/><path d="M1431.86 368.329h-1.92c0-.265 1.11-1.889 3.92-5.86 7.68-10.927 25.61-36.497 27.95-49.277 1.38-7.388-2.07-22.322-5.11-35.486-1.53-6.631-2.95-12.876-3.64-17.461-1.04-7.147.19-7.821 1.8-7.917 1.42-.097 2.54.421 4.23 1.949 9.67 8.748 16.43 29.831 21.35 45.209 1.95 6.149 3.68 11.456 5.18 14.885 2.27 5.078-3.34 15.259-16.63 30.252-9.87 11.143-20.54 20.938-20.66 21.034l-1.8-.192c.42-.385 42.47-39.06 37.21-50.997-1.54-3.442-3.23-8.761-5.19-14.91-4.91-15.354-11.63-36.388-21.27-45.076-1-.915-1.65-1.3-2-1.457-.53.47-1.03 2.154-.19 7.69.69 4.524 2.08 10.565 3.57 16.955 3.04 13.188 6.49 28.134 5.11 35.57-2.38 12.816-20.35 38.435-27.99 49.373-2.19 3.044-3.88 5.463-3.92 5.716z"/><path d="M1417.61 363.96l-1.84-.181c.08-.072 7.45-7.725 13.94-18.555 5.99-9.988 12.4-24.789 9.06-38.615-7.03-28.844-.31-57.255 1.92-65.269 3.07-11.01 3.84-18.507 0-31.359-1.46-4.921-6.8-14.007-12.98-24.524-9.71-16.558-21.81-37.159-22.73-48.903-.85-10.469-4.95-24.584-10.68-36.81-4.99-10.614-13.44-24.572-25.26-30.781-2.5-1.312-5.57-2.876-9.1-4.681-25.92-13.237-74.19-37.87-78.61-54.054-4.91-18.05-6.14-21.022-6.14-21.046l1.92-.073c0 .024 1.23 2.985 6.14 21.07 4.38 16.041 52.49 40.601 78.34 53.79 3.53 1.805 6.56 3.357 9.1 4.68 12.02 6.294 20.5 20.337 25.53 31.01 5.76 12.263 9.87 26.39 10.72 36.895.96 11.696 13.02 32.273 22.73 48.807 6.18 10.529 11.52 19.626 12.98 24.572 3.84 12.9 3.07 20.421 0 31.455-2.23 8.002-8.91 36.365-1.92 65.173 3.38 13.898-3.07 28.759-9.1 38.783-6.53 10.866-13.94 18.544-14.02 18.616z"/><path d="M1359.36 49.734c-5.53 0-12.94-3.778-22.04-11.227-11.06-9.085-23.96-23.031-38.32-41.455l1.88-.144c38.4 49.3 55.1 52.225 58.48 52.225h.19c2.11-.073 4.46-1.48 4.73-5.235.76-11.251-39.1-49.096-39.52-49.48l1.81-.193c1.65 1.564 40.35 38.326 39.59 49.673-.16 2.563-1.42 5.644-6.42 5.812-.11.024-.23.024-.38.024zm28.34 317.174l-1.92-.06c27.57-87.049-8.95-140.73-35.64-179.935-.8-1.179-1.57-2.334-2.38-3.477-15.51-22.888-15.47-56.786-14.7-70.299 1.11-20.385 6.37-42.923 13.82-44.56a6.116 6.116 0 012.34-.024c7.57 1.517 10.75 7.184 16.02 16.582 3.95 7.04 8.83 15.788 17.43 26.197 11.44 13.862 17.93 34.824 23.61 53.307 4.27 13.815 7.95 25.752 12.87 32.009 9.45 12.058 7.56 31.816 6.14 46.232-.3 3.201-.61 6.221-.73 8.833-.76 14.584-.38 72.188 0 81.092.39 8.845-21.69 33.646-21.92 33.898l-1.85-.156c.23-.253 22.24-24.969 21.85-33.73-.38-8.904-.76-66.52 0-81.116.16-2.624.43-5.644.73-8.845 1.39-14.392 3.31-34.09-6.1-46.075-4.96-6.306-8.64-18.255-12.91-32.093-5.68-18.472-12.17-39.397-23.57-53.212-8.6-10.421-13.52-19.193-17.47-26.232-5-8.917-8.3-14.814-15.17-16.185-.04-.012-.08-.012-.08-.012-.04 0-.23.024-.5.144-5.26 2.142-11.44 19.59-12.71 45.101-1.34 28.05 3.99 53.199 14.75 69.011.76 1.143 1.57 2.311 2.38 3.478 12.86 18.904 28.87 42.417 37.97 71.767 10.68 34.367 9.95 69.805-2.26 108.36z"/><path d="M1411.55 283.157c-1.5 0-3.11-.434-5.03-1.348-3.15-1.504-4.96-3.273-5.3-5.138-3.42-20.18-27.27-90.322-36.94-108.758-4.5-8.543-9.3-25.173-11.72-40.444-1.22-7.905-1.69-14.644-1.34-19.494.58-7.593 3-8.808 5.03-9.013 2.11-.216 3.73.626 4.8 1.276 16.17 10.024 45.62 98.721 48.5 109.732 2.65 10.228 6.14 58.602 6.14 68.734 0 3.646-1.84 4.296-3.45 4.441-.19 0-.42.012-.69.012zm-8.41-6.534c.3 1.756 2.03 3.429 4.99 4.837 2.42 1.143 3.49 1.083 3.61 1.071.34-.036 2.11-.373 2.11-3.863 0-10.132-3.49-58.458-6.14-68.686-1.39-5.391-9.6-30.577-19.17-54.932-12.36-31.564-22.42-50.432-29.14-54.583-1.38-.867-2.27-1-2.46-.975-.5.048-3.11.71-3.72 8.459-.39 4.838.07 11.564 1.3 19.458 2.38 15.259 7.22 31.865 11.68 40.384 9.67 18.459 33.52 88.638 36.94 108.83zm-93.2-145.087c-.81 0-1.65-.084-2.46-.264-11.02-2.347-9.25-13.261-7.22-25.908 1.61-10 3.42-21.323-1.23-29.53-4.41-7.773-17.47-22.84-30.14-37.424-18.09-20.83-35.14-40.492-32.45-44.162l1.88.132c-2.61 3.526 15.21 24.031 32.41 43.874 12.67 14.596 25.77 29.674 30.18 37.472 4.69 8.267 2.88 19.626 1.27 29.662-1.92 11.937-3.72 23.224 6.41 25.378.96.205 1.81.217 2.65.012 6.8-1.6 11.18-14.079 10.64-30.336-.46-13.61-4.57-31.66-14.74-41.527-20.13-19.518-46.62-56.328-46.89-56.7l1.88-.133c.27.373 26.73 37.159 46.81 56.653 10.25 9.927 14.36 28.061 14.82 41.707.42 12.888-2.3 28.688-11.4 30.83-.77.18-1.58.264-2.42.264z"/><path d="M1361.09 369.796l-1.65-.3c2.84-1.565 5.3-7.762 6.52-16.57 1.27-9.146 1.08-19.663-.53-28.868-2-11.372.42-12.563 4.87-14.717 3.15-1.54 7.49-3.646 12.02-10.746 10.52-16.51-38.82-101.838-49.53-116.723-2.73-3.791-5.23-8.183-7.88-12.828-6.45-11.335-13.78-24.175-25.76-29.289-15.25-6.51-17.47-31.997-19.43-54.475-.23-2.755-.46-5.355-.73-7.906-1.19-12.153-18.43-32.971-32.68-48.301-15.48-16.619-30.84-30.529-30.99-30.673l1.81-.193c.15.144 15.55 14.067 31.02 30.697 14.29 15.355 31.57 36.232 32.76 48.446.27 2.563.46 5.163.73 7.918 1.96 22.394 4.18 47.773 19.04 54.126 12.25 5.235 19.28 17.593 26.12 29.542 2.65 4.645 5.14 9.025 7.87 12.803 4.88 6.775 19.85 31.672 32.41 57.135 10.98 22.322 22.88 50.816 17.12 59.829-4.6 7.22-9.06 9.374-12.28 10.951-4.23 2.045-6.53 3.177-4.57 14.356 3.38 19.133.19 42.237-6.26 45.786z"/><path d="M1334.71 367.896l-1.88-.096c.11-.205 10.02-20.445 14.97-40.89 2.69-11.191 8.49-15.811 13.13-19.53 4.04-3.225 7.22-5.764 7.22-11.371 0-11.673-19.73-74.15-63.7-112.536-17.01-14.849-28.8-21.492-37.4-26.341-13.25-7.449-17.71-9.964-19.09-30.432-1.42-20.445 6.8-29.626 12.79-36.34 3.88-4.345 6.91-7.762 6.03-12.624-.77-4.272-9.3-8.905-20.05-14.765-10.06-5.487-22.61-12.31-32.71-21.058-11.83-10.24-18.05-21.082-19.05-33.14-1.38-16.582-1.84-28.567-1.34-35.63.38-5.825 1.26-6.114 1.61-6.21l.27-.096h.42v.602c.46 0 .73-.097.77-.133-.31.217-3 3.261.19 41.467 2.27 27.1 30.72 42.598 51.49 53.91 10.91 5.932 19.51 10.613 20.32 15.029.92 4.958-2.19 8.435-6.11 12.828-5.95 6.678-14.09 15.811-12.71 36.16 1.38 20.324 5.8 22.803 18.86 30.155 8.64 4.862 20.46 11.528 37.55 26.437 44.01 38.447 63.78 101.044 63.78 112.729 0 5.716-3.22 8.315-7.33 11.6-4.61 3.67-10.33 8.255-13.02 19.35-4.99 20.456-14.94 40.72-15.01 40.925z"/><path d="M1333.94 318.389c-3.88 0-6.64-2.478-7.22-3.02-.77-.529-18.89-12.948-38.36-28.423-18.28-14.536-41.55-34.812-48.5-48.891-13.29-26.907-9.83-77.086-3.76-81.394.84-.601 2.07-1.287 4.07-1.275 4.53.024 9.29 3.851 23.5 15.21 4.99 3.983 11.17 8.941 18.74 14.837 36.52 28.411 64.2 84.606 67.27 90.924 3.15 6.558 3.11 14.235-.19 22.803-2.57 6.679-6.53 12.479-9.45 16.173-1.61 2.058-3.53 3.032-6.02 3.068-.04-.012-.08-.012-.08-.012zm-93.81-162.413c-.39 0-1.15.12-2.27.914-2.57 1.817-5.18 14.211-5.18 31.828 0 19.578 3.3 37.52 9.1 49.229 6.91 14.018 30.14 34.259 48.38 48.759 19.78 15.727 38.13 28.29 38.33 28.41l.03.036c1.12 1.071 3.58 2.648 5.46 2.624.54 0 2.38-.217 4.22-2.599 5.26-6.715 16.71-23.935 9.6-38.748-3.03-6.305-30.72-62.429-67.12-90.779-7.6-5.897-13.79-10.854-18.74-14.837-6.53-5.235-11.29-9.025-14.78-11.444-3.31-2.238-5.65-3.381-7.03-3.393z"/><path d="M1330.64 307.271c-3.57 0-7.64-2.022-8.45-2.443l-.08-.048c-.46-.349-44.43-35.498-66.85-64.776-18.93-24.716-9.95-48.686-6.15-58.915.81-2.118 1.39-3.646 1.5-4.584.04-.217.12-.867 1.69-.903.92-.024 3.11-.072 11.14 5.716 5.3 3.814 11.79 9.229 18.24 15.222 9.6 8.905 27.84 27.219 42.24 49.71 22.19 34.692 15.32 48.614 12.02 55.305-.66 1.287-1.16 2.298-1.27 3.129-.23 1.576-1.31 2.394-3.38 2.563-.19.012-.42.024-.65.024zm-6.76-2.732c1.84.939 5.3 2.262 6.99 2.13.38-.036 1.69-.265 1.92-2.009.11-.867.65-1.89 1.26-3.201 3.31-6.655 10.14-20.505-12.01-55.089-14.21-22.177-32.18-40.288-41.63-49.12-6.45-6.041-12.75-11.311-18.13-15.258-6.22-4.549-8.83-5.536-9.63-5.74-.04.06-.08.144-.12.277-.11.95-.69 2.49-1.5 4.62-3.8 10.205-12.75 34.091 6.07 58.711 22.16 28.928 65.4 63.584 66.78 64.679z"/><path d="M1320.38 288.139c-3.22 0-5.45-.758-6.29-1.264l-.04-.024c-.19-.132-17.94-13.886-38.82-37.82-8.84-10.096-15.33-22.924-17.86-35.198-2.23-10.842-.96-19.157 3.22-21.179.7-.325 1.46-.505 2.35-.553 2.99-.145 6.91 1.023 15.47 10.445 5.76 6.353 12.25 14.921 19.09 23.994 4.87 6.45 9.9 13.117 14.9 19.217 10.9 13.406 13.78 24.199 14.51 29.434.62 4.452.16 7.352-.34 8.989-1.08 3.49-2.92 3.718-3.61 3.802-.93.109-1.77.157-2.58.157zm-4.57-1.528c.27.144 2.5 1.287 6.46.818 0 0 1.53-.301 2.45-3.442.5-1.648.92-4.524.27-8.928-.77-5.199-3.65-15.884-14.44-29.157-4.99-6.113-10.02-12.78-14.9-19.229-6.87-9.062-13.32-17.629-19.08-23.971-3.07-3.393-5.68-5.848-7.95-7.521-3.23-2.394-4.95-2.503-5.38-2.491-.3.012-.65.121-.99.289-3.92 1.902-5.11 10.265-2.92 20.818 2.53 12.238 8.98 25.029 17.78 35.077 20.5 23.513 37.97 37.171 38.7 37.737z"/><path d="M1305.22 261.99c-.66 0-1.27-.072-1.58-.144l-.23-.048-.11-.085c-7.38-5.294-16.29-15.414-23.73-27.075-3.12-4.861-5.57-9.41-6.96-12.827-2.3-5.68-.65-5.909.2-6.029 1.49-.216 2.76.409 4.22 1.396 12.9 8.953 31.57 40.203 31.57 42.598 0 1.167-.73 1.865-2.19 2.106-.39.084-.81.108-1.19.108zm-.31-.626c.15.012.38.024.58 0 .26-.048 1.19-.3 1.19-1.576 0-2.383-18.55-33.453-31.42-42.357-.84-.578-1.38-.855-1.69-.975-.26.373-.61 1.649 1.16 5.812 1.46 3.466 3.95 7.99 7.02 12.755 7.34 11.324 15.98 21.155 23.16 26.341z"/><path d="M1314.32 367.931l-1.85-.181c.08-.06 6.45-6.678 10.29-15.354 3.54-7.99 5.53-19.422-4.91-28.507-4.03-3.502-10.56-7.702-18.16-12.551-31.11-19.951-83.22-53.332-84.45-114.618-1.03-52.333 7.3-71.73 12.29-83.318 2.23-5.139 3.69-8.544 3.07-12.455-1.38-9-12.78-22.201-27.22-38.928-5.61-6.498-11.41-13.224-17.28-20.456-20.93-25.74-18.47-49.782-18.47-50.023l1.92.024c-.04.24-2.42 24.2 18.39 49.854 5.88 7.232 11.68 13.947 17.28 20.445 14.48 16.75 25.88 29.987 27.3 39.06.62 3.971-.84 7.389-3.07 12.563-4.99 11.576-13.32 30.938-12.29 83.234 1.23 61.154 53.19 94.462 84.25 114.353 7.61 4.874 14.17 9.085 18.24 12.611 10.6 9.194 8.57 20.734 5 28.796-3.84 8.736-10.26 15.391-10.33 15.451z"/><path d="M1193.28 213.917c-.35 0-.65-.024-.84-.061-2.46-.348-4.92-2.178-6.34-13.2-.96-7.641-1.27-18.255-1.58-29.494-.72-26.762-1.61-60.07-12.21-76.893-1.84-2.912-3.72-5.86-5.72-8.989-19.89-31.022-44.66-69.624-29.6-93.763l1.88.12c-14.98 24.03 9.71 62.561 29.6 93.535 2 3.129 3.92 6.089 5.73 8.989 10.67 16.883 11.55 50.227 12.24 77.013.31 11.239.58 21.841 1.58 29.47.54 4.055 1.19 7.039 2.07 9.145 1.27 3.057 2.73 3.478 3.11 3.538.16.024.39-.036.54-.072 4.49-1.24 6.64-9.819 6.41-25.511-.19-13.91-2.19-31.551-3.99-47.11-1.84-16.113-3.42-30.024-2.76-36.907 1.88-20.192-48.62-106.17-49.16-107.036l1.88-.108c.5.866 51.08 86.904 49.16 107.156-.66 6.859.92 20.758 2.76 36.859 1.77 15.571 3.76 33.212 4 47.134.3 21.444-3.88 25.09-7.07 25.968-.61.156-1.23.217-1.69.217z"/><path d="M1221.08 371.168c-.23-.276-21.16-27.291-21.16-42.79 0-14.873-25.07-52.49-48.34-81.153-9.79-12.069-19.13-29.193-25.5-46.966-6.03-16.763-8.18-30.902-5.61-36.894 1.42-3.285 4-6.089 6.69-9.061 7.75-8.46 16.51-18.05 4.07-43.681-8.76-17.99-9.76-47.05-9.03-68.266.77-22.983 3.61-41.948 3.65-42.14l1.92.024c-.04.192-2.88 19.157-3.65 42.117-.69 21.19.31 50.215 9.03 68.168 12.51 25.764 3.68 35.414-4.11 43.934-2.69 2.948-5.26 5.728-6.65 8.977-2.57 5.944-.38 20.035 5.61 36.75 6.41 17.749 15.67 34.848 25.46 46.894 23.31 28.699 48.42 66.375 48.42 81.297 0 15.427 20.89 42.381 21.08 42.646l-1.88.144z"/><path d="M1237.56 368.365c-7.95-17.172-60.68-118.047-82.91-141.464-10.52-11.095-16.55-23.032-17.89-35.498-1.19-10.975 1.42-22.093 7.48-32.153 7.99-13.189 1.89-40.011-2.57-59.601-1.92-8.484-3.61-15.8-3.61-19.88 0-2.948.92-3.55 2.46-3.597 1.3-.037 2.88.24 6.53 4.055 2.19 2.286 4.87 5.595 7.98 9.843 6.69 9.097 13.64 20.108 17.17 25.86 7.45 12.129 2.84 36.184-.88 55.522-2.31 12.045-4.31 22.454-3.31 28.266 2.08 11.901 15.94 16.365 26.04 19.614 2.99.963 5.84 1.877 7.99 2.852 5.49 2.503 12.82 14.933 20.58 28.11 5.57 9.458 11.36 19.241 16.82 26.028 5.99 7.449 16.55 14.705 27.72 22.394 13.17 9.049 28.11 19.302 38.71 31.997 10.14 12.165 10.33 20.817 8.72 25.932-1.77 5.571-5.92 8.218-6.11 8.327l-1.73-.265c.04-.024 4.19-2.696 5.92-8.171 1.57-5.066 1.38-13.621-8.68-25.667-10.56-12.647-25.46-22.875-38.59-31.9-11.22-7.714-21.82-14.994-27.84-22.49-5.46-6.799-11.26-16.594-16.82-26.065-7.72-13.104-15.02-25.474-20.28-27.869-2.03-.926-4.68-1.781-7.76-2.768-10.33-3.321-24.49-7.869-26.57-19.999-1-5.848 1-16.269 3.3-28.338 3.73-19.302 8.34-43.32.93-55.366-3.42-5.583-10.18-16.305-16.75-25.306-3.03-4.175-5.68-7.485-7.87-9.831-2.88-3.08-4.38-3.875-4.91-4.08-.27.205-.81.867-.81 2.949 0 4.055 1.65 11.371 3.57 19.843 4.46 19.626 10.56 46.496 2.54 59.757-13.29 21.901-9.49 46.461 10.32 67.363 22.28 23.453 75.04 124.376 82.99 141.56l-1.88.036z"/><path d="M1256.37 368.353l-1.92-.06c2.65-9.17-22.31-46.834-46.42-83.259-6.96-10.469-14.14-21.299-20.4-31.082-10.86-17.003-19.43-29.867-25.65-39.253-9.67-14.548-14.51-21.852-15.43-25.51-.62-2.479-.12-7.148 1.3-11.372 2.54-7.701 5.57-7.882 6.57-7.942 1.88-.108 2.92.686 3.61 1.384 1.92 1.961 1.84 5.896 1.73 10.878-.2 9.988-.5 25.078 16.24 36.136 25.73 16.979 40.78 44.319 50.76 62.405 5.07 9.194 18.63 19.302 31.72 29.073 14.79 11.046 30.07 22.466 34.37 33.152 8.03 20.107.15 23.777-.19 23.922l-1.54-.349.77.18-.77-.168c.08-.036 7.68-3.803-.15-23.501-4.22-10.602-19.47-21.985-34.22-32.996-13.13-9.807-26.72-19.951-31.83-29.205-9.94-18.062-25-45.353-50.61-62.26-16.93-11.191-16.63-26.353-16.44-36.401.12-4.934.2-8.82-1.65-10.697-.73-.759-1.3-.927-1.46-.963-.96.168-3.18 1.937-5.03 7.545-1.34 4.139-1.84 8.712-1.22 11.119.92 3.634 5.76 10.914 15.39 25.438 6.22 9.398 14.79 22.25 25.65 39.265 6.26 9.783 13.44 20.613 20.4 31.082 24.11 36.473 49.11 74.173 46.42 83.439z"/><path d="M1264.44 368.376c-.16-.313-15.75-31.058-15.75-40.239 0-4.32-9.41-14.753-15.67-21.66-1.8-2.01-3.38-3.755-4.41-5.006-.54-.662-.92-1.155-1.12-1.492-.23-.385-.46-.795.54-.903 1-.108 1.65.253 2.27.614.61.349 1.42.878 2.46 1.624 2.15 1.493 5.29 3.851 9.71 7.22 17.7 13.514 28.34 28.026 34.18 37.833 6.33 10.614 8.48 18.134 8.52 18.219l-1.92.048c-.04-.072-2.19-7.569-8.49-18.159-5.79-9.771-16.43-24.235-34.06-37.7-2.07-1.6-7.37-5.62-10.52-7.761 1.08 1.311 2.84 3.285 4.69 5.318 6.26 6.931 15.74 17.425 15.74 21.817 0 9.133 15.59 39.83 15.75 40.143l-1.92.084zm-127.76-4.465c-.39-.409-39.59-41.611-39.59-56.882 0-10.156 10.48-16.846 18.89-22.213 4.57-2.912 8.49-5.427 10.33-8.05 2.46-3.502-2.76-22.298-13.59-49.072-10.76-26.606-23.81-53.079-34.03-69.096-8.83-13.814-12.86-28.687-15.82-39.553-1.34-4.934-2.49-9.182-3.8-12.142-.65-1.552-1.34-2.671-2.03-3.417-.96-1.011-1.69-1.059-1.69-1.059-.04 0-1.19.024-3.34 1.841-1.69 1.42-3.65 3.61-5.99 6.69-6.72 8.869-7.61 24.079-2.69 46.509 4.3 19.578 12.44 42.093 19.62 61.948 4.99 13.826 9.72 26.882 12.67 37.532 11.41 41.178.12 106.242 0 106.904l-1.92-.036c.12-.65 11.37-65.678 0-106.808-2.95-10.638-7.68-23.694-12.67-37.52-7.18-19.867-15.32-42.381-19.62-61.972-4.92-22.49-4.03-37.76 2.76-46.689 5.76-7.581 8.57-9.061 11.33-9.001 2.07.048 3.73.902 5.49 5.006 1.31 2.972 2.46 7.232 3.8 12.178 2.96 10.842 6.99 25.703 15.79 39.481 10.21 16.028 23.27 42.526 34.06 69.143 8.52 21.035 16.55 45.017 13.55 49.277-1.88 2.695-5.87 5.234-10.48 8.183-8.33 5.318-18.66 11.937-18.66 21.948 0 15.187 39.13 56.292 39.51 56.714l-1.88.156z"/><path d="M1105.77 279.45c-1.92 0-4.11-.71-7.03-2.226-8.41-4.416-13.33-25.21-18.09-45.33-2.68-11.299-5.18-21.961-8.14-28.555-1.03-2.31-2.26-5.03-3.68-8.17-4.46-9.832-10.6-23.297-14.9-34.127-7.72-19.325-5.49-19.65-4.19-19.843.27-.036 1-.108 1.77.156 4.3 1.493 19.2 21.949 31.95 46.1 9.75 18.459 25.99 53.922 25.11 84.161.08.205.73 1.878.88 3.574.35 3.442-1.49 4.043-2.95 4.2-.2.048-.46.06-.73.06zm-55.26-137.481c-.27.506-.42 1.913.65 5.884.92 3.262 2.54 7.87 4.88 13.706 4.3 10.71 10.29 23.911 14.67 33.549 1.42 3.141 2.65 5.849 3.68 8.171 2.96 6.606 5.5 17.28 8.14 28.591 4.54 19.109 9.68 40.769 17.82 45.065 3.88 2.034 5.38 1.949 5.53 1.925.19-.024 2-.312 1.65-3.61-.19-1.781-.88-3.513-.88-3.537v-.049c.88-30.191-15.36-65.641-25.08-84.076-13.44-25.523-27.26-43.344-31.06-45.619zm62.63-4.031c-1.42 0-2.84-.674-5.61-2.623-4.87-3.442-10.98-17.099-16.36-36.51-5.26-18.964-8.29-38.217-7.91-50.25.39-13.333 7.91-25.836 14.14-33.97 6.75-8.82 13.51-14.573 13.55-14.621l1.81.205c-.08.06-6.8 5.776-13.52 14.56-6.22 8.11-13.67 20.553-14.09 33.826-.35 12.02 2.68 31.25 7.91 50.19 5.26 19.061 11.48 32.984 16.2 36.317 2.19 1.54 3.26 2.046 3.73 2.202.92-.746.46-4.596-.23-9.831-.66-4.934-1.5-11.708-1.89-20.288-.42-10.06-2.07-21.492-3.64-32.562-2.54-17.882-4.96-34.777-2.12-43.766 4.57-14.391 11.45-35.173 11.52-35.378l1.92.06c-.07.205-6.95 20.987-11.52 35.379-2.84 8.952-.42 25.823 2.12 43.68 1.57 11.071 3.22 22.515 3.64 32.575.39 8.58 1.23 15.342 1.89 20.276 1.11 8.508 1.22 10.325-1.23 10.505-.08.024-.2.024-.31.024zm-65.86-111.489c-1.26 0-2.3-.301-3.11-.89-8.44-6.258-.42-28.448-.07-29.398l1.92.072c-.08.228-8.34 22.971-.08 29.084.23.169.77.542 1.42.518.65-.024 3.23-.433 8.33-4.91 3-2.647 6.49-6.317 10.29-10.914 6.53-7.834 11.87-15.728 11.95-15.812l1.88.12c-.04.085-5.42 7.99-11.94 15.836-3.84 4.61-7.34 8.303-10.37 10.963-5.22 4.597-8.07 5.246-9.95 5.306-.11.025-.19.025-.27.025zm40.21 339.064c0-.084-.65-8.556-.54-16.931.08-4.921.42-8.856 1-11.672 1.07-5.15 2.69-5.608 4.26-5.632 1.46-.024 3.38.361 7.76 5.343 2.42 2.744 5.3 6.582 8.56 11.396 5.57 8.194 10.37 16.521 10.41 16.594l-1.88.108c-.04-.084-4.73-8.123-10.14-16.173-9.68-14.332-13.48-16.389-14.56-16.642-.92.325-3.3 2.575-3.49 17.172-.11 8.206.54 16.353.54 16.437h-1.92zm-1058.345-1.48l-1.843-.181c13.863-13.766 14.63-22.514 16.32-41.659.845-9.446 1.843-21.215 4.762-37.315 2.112-11.613 2.957-19.723 2.688-24.777-.346-5.872-2.266-6.486-2.842-6.534-.076-.012-.883-.036-2.918.975-1.46.734-3.11 1.768-4.8 2.851-2.765 1.745-5.606 3.562-8.486 4.597-3.533 1.276-9.87 8.159-20.084 33.742C5.837 311.074 1.19 326.044 1.152 326.2l-1.92-.06c.768-2.443 18.624-59.95 31.334-64.547 2.727-.975 5.491-2.756 8.218-4.476 4.416-2.804 7.066-4.38 9.946-4.14 3.648.301 6.796 3.021 1.574 31.937-2.919 16.1-3.917 27.857-4.762 37.303-1.69 19.205-2.457 27.965-16.397 41.816z"/><path d="M11.52 368.797l-1.92-.085c.077-.156 6.874-16.221 12.71-32.369 3.418-9.483 5.837-17.136 7.22-22.755 2.112-8.785 1.113-10.71.46-11.119-.844.277-3.379 1.733-9.1 9.217-3.648 4.778-8.064 11.336-13.172 19.506-8.716 13.911-16.473 27.834-16.55 27.966l-1.92-.084c.077-.145 7.91-14.212 16.704-28.194 17.856-28.471 22.08-28.868 23.654-29.025.576-.06 1.19 0 1.613.145 1.19.397 4.877 1.6-6.989 34.415-5.836 16.161-12.633 32.225-12.71 32.382zm-24.422-112.114l-1.46-.398c.078-.036 8.68-3.164 16.474-7.556 7.143-4.032 15.053-9.976 12.096-15.427-1.728-3.225-3.072-8.448-4.608-14.5-3.379-13.213-7.987-31.299-20.006-34.416l1.229-.469c12.672 3.285 17.126 20.782 20.697 34.836 1.536 6.029 2.88 11.24 4.57 14.44 3.034 5.62-5.03 11.709-12.365 15.824-7.834 4.465-16.55 7.629-16.627 7.666zM45.85 212.46c-2.15 0-4.301-.518-6.528-1.54-8.141-3.791-7.027-7.93-5.491-13.658 1.036-3.947 2.38-8.869 1.113-15.126-3.033-15.198-45.235-73.247-45.657-73.837l1.881-.132c.423.59 42.663 58.687 45.735 73.933 1.267 6.305-.077 11.251-1.114 15.222-1.536 5.812-2.573 9.651 5.184 13.273 1.498.686 3.686 1.468 5.76 1.215 3.878-.457 7.104-3.778 8.563-8.893 1.536-5.379.999-12.201-1.497-18.711-1.344-3.49-4.685-9.94-8.91-18.111C28.11 133.822-3.07 73.752 10.37 45.377c16.703-35.186 16.895-60.239 16.895-60.48h1.92c0 .253-.192 25.343-16.896 60.576C-1.113 73.763 30.03 133.762 46.733 166c4.262 8.171 7.603 14.633 8.947 18.134 2.496 6.559 3.034 13.43 1.498 18.845-.922 3.188-3.418 8.664-9.792 9.398-.538.06-1.037.084-1.536.084zM-12.71 39.975l-1.843-.18C-1.881 27.46 2.535 15.245 4.032 7.183c1.613-8.736.192-14.633.192-14.68l1.92-.049c0 .06 1.42 5.993-.192 14.765C4.455 15.318 0 27.58-12.71 39.975zm1526.82 362.744c-.07-.18-1.11-5.078 36.52-54.607 26.69-35.137-3.88-80.695-28.45-117.313-10.45-15.595-20.36-30.324-24.58-42.273-3.07-8.7-6.72-17.725-10.25-26.461-6.38-15.764-12.98-32.057-16.28-46.75-3.73-16.473-2.81-29.192 2.72-38.915 8.1-14.188-2.65-34.656-13.09-49.325-11.33-15.908-24.77-28.615-24.89-28.748l1.81-.192c.15.132 13.59 12.863 24.92 28.808 6.68 9.361 11.33 17.99 13.83 25.63 3.14 9.567 2.88 17.617-.73 23.935-12.33 21.552.84 54.042 13.55 85.473 3.53 8.736 7.18 17.761 10.25 26.461 4.23 11.913 14.1 26.63 24.54 42.213 12.37 18.423 26.38 39.301 33.68 59.589 8.41 23.296 6.68 42.261-5.26 57.977-37.21 49.011-36.52 54.222-36.44 54.414l-1.85.084z"/><path d="M1523.98 364.923l-1.69-.277c15.98-9.542 15.21-19.831 14.36-31.732-.5-6.859-1-13.947 1.65-21.588 3.84-10.926-7.1-41.611-17.62-64.583-6.15-13.429-12.87-25.859-18.93-35.017-9.1-13.79-13.75-15.787-15.32-16.004-.12-.024-.27-.036-.54.072-3.46 1.228-3 7.629 1.42 19.025 4.03 10.445 10.75 23.79 17.85 37.917 10.18 20.204 20.66 41.106 23.58 54.27 3.57 16.197-4.34 31.07-11.63 40.697-7.91 10.433-16.75 17.123-16.86 17.196l-1.77-.229c.08-.06 8.91-6.727 16.78-17.111 7.26-9.579 15.13-24.392 11.6-40.505-2.92-13.14-13.4-34.03-23.58-54.222-14.67-29.193-27.34-54.39-18.81-57.423.77-.277 1.8-.361 2.76-.216 1.54.204 6.15.854 16.44 16.425 6.06 9.17 12.78 21.612 18.97 35.053 10.56 22.996 21.5 53.753 17.66 64.728-2.65 7.593-2.15 14.668-1.65 21.503.42 5.884.84 11.456-.88 16.775-2.04 5.968-6.38 10.818-13.79 15.246zm40.82 11.191l-1.92-.036c.08-.433 7.33-44.282 11.52-107.205 2.57-38.88-8.56-44.68-22.69-52.032-8.91-4.633-18.97-9.867-27.19-24.44-10.68-18.928-17.4-36.16-20.51-52.67-3.11-16.569-2.57-32.116 1.69-47.531 4.34-15.752-7.75-39.915-18.7-57.4-11.86-18.964-24.92-34.39-25.04-34.547l1.85-.156c.11.156 13.21 15.607 25.07 34.584 10.95 17.532 23.12 41.743 18.74 57.567-8.45 30.553-2.46 62.345 18.82 100.033 8.18 14.464 18.16 19.65 26.96 24.235 6.91 3.61 13.47 7.004 17.77 14.332 4.73 8.038 6.38 20.12 5.19 38.025-4.23 62.947-11.48 106.808-11.56 107.241z"/><path d="M1557 201.728c-1.53 0-3.68-.771-9.06-6.282-14.7-15.138-33.52-91.573-33.83-94.413-.11-1.132.62-1.781 2.23-1.998 2.65-.349 6.07.722 6.72.939l.11.036.08.048c6.57 4.368 8.37 12.876 10.83 24.656 2.23 10.614 5.03 23.814 12.29 39.205 5.57 11.817 9.41 21.058 11.44 27.448 1.04 3.225 1.58 5.716 1.65 7.4.08 2.347-.73 2.876-2.07 2.961h-.39zm-39.51-102.163c-.15 0-.27.012-.38.024-.77.096-1.15.625-1.08 1.42.31 2.839 19.09 79.167 33.76 94.269 4.41 4.56 6.45 5.583 7.18 5.812.53-.373 1.42-2.118-1.23-10.253-2.08-6.353-5.88-15.39-11.25-26.834-7.26-15.427-10.06-28.639-12.29-39.253-2.46-11.672-4.26-20.107-10.6-24.391-1.15-.361-3-.794-4.11-.794zm410 131.403c-.08-.157-8.91-15.704-15.78-33.032-9.26-23.296-10.79-38.542-4.54-45.317 4.19-4.537 9.72-8.772 15.1-12.876 6.72-5.15 13.09-10.011 15.05-14.368 2.15-4.789-1.27-8.507-10.72-11.696-29.26-9.891-21.58-34.403-13.28-51.996 7.95-16.859.08-66.352 0-66.845l1.92-.036c.08.493 7.99 50.046 0 66.965-8.26 17.46-15.86 41.792 12.82 51.491 21.47 7.256 9.68 16.269-3.95 26.702-5.34 4.079-10.87 8.303-15.02 12.815-6.1 6.607-4.49 22.19 4.61 45.077 6.88 17.316 15.71 32.851 15.78 32.996l-1.99.12z"/></g></svg>