<svg width="334" height="106" fill="none" xmlns="http://www.w3.org/2000/svg"><path d="M6.722 0C6.722 8.657-1 8.657-1 17.31c0 8.656 7.722 8.656 7.722 17.313C6.722 43.279-1 43.279-1 51.936c0 8.656 7.722 8.656 7.722 17.313C6.722 77.905-1 77.905-1 86.562c0 8.657 7.722 8.657 7.722 17.313 0 8.657-7.722 8.657-7.722 17.313 0 8.657 7.722 8.657 7.722 17.313 0 8.657-7.722 8.657-7.722 17.313 0 8.657 7.722 8.657 7.722 17.313M14.443 0c0 8.657-7.721 8.657-7.721 17.31 0 8.656 7.721 8.656 7.721 17.313 0 8.656-7.721 8.656-7.721 17.313 0 8.656 7.721 8.656 7.721 17.313 0 8.656-7.721 8.656-7.721 17.313 0 8.657 7.721 8.657 7.721 17.313 0 8.657-7.721 8.657-7.721 17.313 0 8.657 7.721 8.657 7.721 17.313 0 8.657-7.721 8.657-7.721 17.313 0 8.657 7.721 8.657 7.721 17.313M22.166 0c0 8.657-7.721 8.657-7.721 17.31 0 8.656 7.721 8.656 7.721 17.313 0 8.656-7.721 8.656-7.721 17.313 0 8.656 7.721 8.656 7.721 17.313 0 8.656-7.721 8.656-7.721 17.313 0 8.657 7.721 8.657 7.721 17.313 0 8.657-7.721 8.657-7.721 17.313 0 8.657 7.721 8.657 7.721 17.313 0 8.657-7.721 8.657-7.721 17.313 0 8.657 7.721 8.657 7.721 17.313M29.887 0c0 8.657-7.722 8.657-7.722 17.31 0 8.656 7.722 8.656 7.722 17.313 0 8.656-7.722 8.656-7.722 17.313 0 8.656 7.722 8.656 7.722 17.313 0 8.656-7.722 8.656-7.722 17.313 0 8.657 7.722 8.657 7.722 17.313 0 8.657-7.722 8.657-7.722 17.313 0 8.657 7.722 8.657 7.722 17.313 0 8.657-7.722 8.657-7.722 17.313 0 8.657 7.722 8.657 7.722 17.313M37.609 0c0 8.657-7.722 8.657-7.722 17.31 0 8.656 7.722 8.656 7.722 17.313 0 8.656-7.722 8.656-7.722 17.313 0 8.656 7.722 8.656 7.722 17.313 0 8.656-7.722 8.656-7.722 17.313 0 8.657 7.722 8.657 7.722 17.313 0 8.657-7.722 8.657-7.722 17.313 0 8.657 7.722 8.657 7.722 17.313 0 8.657-7.722 8.657-7.722 17.313 0 8.657 7.722 8.657 7.722 17.313M45.33 0c0 8.657-7.721 8.657-7.721 17.31 0 8.656 7.721 8.656 7.721 17.313 0 8.656-7.721 8.656-7.721 17.313 0 8.656 7.721 8.656 7.721 17.313 0 8.656-7.721 8.656-7.721 17.313 0 8.657 7.721 8.657 7.721 17.313 0 8.657-7.721 8.657-7.721 17.313 0 8.657 7.721 8.657 7.721 17.313 0 8.657-7.721 8.657-7.721 17.313 0 8.657 7.721 8.657 7.721 17.313M53.052 0c0 8.657-7.722 8.657-7.722 17.31 0 8.656 7.722 8.656 7.722 17.313 0 8.656-7.722 8.656-7.722 17.313 0 8.656 7.722 8.656 7.722 17.313 0 8.656-7.722 8.656-7.722 17.313 0 8.657 7.722 8.657 7.722 17.313 0 8.657-7.722 8.657-7.722 17.313 0 8.657 7.722 8.657 7.722 17.313 0 8.657-7.722 8.657-7.722 17.313 0 8.657 7.722 8.657 7.722 17.313M60.774 0c0 8.657-7.722 8.657-7.722 17.31 0 8.656 7.722 8.656 7.722 17.313 0 8.656-7.722 8.656-7.722 17.313 0 8.656 7.722 8.656 7.722 17.313 0 8.656-7.722 8.656-7.722 17.313 0 8.657 7.722 8.657 7.722 17.313 0 8.657-7.722 8.657-7.722 17.313 0 8.657 7.722 8.657 7.722 17.313 0 8.657-7.722 8.657-7.722 17.313 0 8.657 7.722 8.657 7.722 17.313M68.496 0c0 8.657-7.722 8.657-7.722 17.31 0 8.656 7.722 8.656 7.722 17.313 0 8.656-7.722 8.656-7.722 17.313 0 8.656 7.722 8.656 7.722 17.313 0 8.656-7.722 8.656-7.722 17.313 0 8.657 7.722 8.657 7.722 17.313 0 8.657-7.722 8.657-7.722 17.313 0 8.657 7.722 8.657 7.722 17.313 0 8.657-7.722 8.657-7.722 17.313 0 8.657 7.722 8.657 7.722 17.313M76.217 0c0 8.657-7.721 8.657-7.721 17.31 0 8.656 7.721 8.656 7.721 17.313 0 8.656-7.721 8.656-7.721 17.313 0 8.656 7.721 8.656 7.721 17.313 0 8.656-7.721 8.656-7.721 17.313 0 8.657 7.721 8.657 7.721 17.313 0 8.657-7.721 8.657-7.721 17.313 0 8.657 7.721 8.657 7.721 17.313 0 8.657-7.721 8.657-7.721 17.313 0 8.657 7.721 8.657 7.721 17.313M83.94 0c0 8.657-7.722 8.657-7.722 17.31 0 8.656 7.722 8.656 7.722 17.313 0 8.656-7.722 8.656-7.722 17.313 0 8.656 7.722 8.656 7.722 17.313 0 8.656-7.722 8.656-7.722 17.313 0 8.657 7.722 8.657 7.722 17.313 0 8.657-7.722 8.657-7.722 17.313 0 8.657 7.722 8.657 7.722 17.313 0 8.657-7.722 8.657-7.722 17.313 0 8.657 7.722 8.657 7.722 17.313M91.661 0c0 8.657-7.722 8.657-7.722 17.31 0 8.656 7.722 8.656 7.722 17.313 0 8.656-7.722 8.656-7.722 17.313 0 8.656 7.722 8.656 7.722 17.313 0 8.656-7.722 8.656-7.722 17.313 0 8.657 7.722 8.657 7.722 17.313 0 8.657-7.722 8.657-7.722 17.313 0 8.657 7.722 8.657 7.722 17.313 0 8.657-7.722 8.657-7.722 17.313 0 8.657 7.722 8.657 7.722 17.313M99.382 0c0 8.657-7.721 8.657-7.721 17.31 0 8.656 7.721 8.656 7.721 17.313 0 8.656-7.721 8.656-7.721 17.313 0 8.656 7.721 8.656 7.721 17.313 0 8.656-7.721 8.656-7.721 17.313 0 8.657 7.721 8.657 7.721 17.313 0 8.657-7.721 8.657-7.721 17.313 0 8.657 7.721 8.657 7.721 17.313 0 8.657-7.721 8.657-7.721 17.313 0 8.657 7.721 8.657 7.721 17.313M107.104 0c0 8.657-7.722 8.657-7.722 17.31 0 8.656 7.722 8.656 7.722 17.313 0 8.656-7.722 8.656-7.722 17.313 0 8.656 7.722 8.656 7.722 17.313 0 8.656-7.722 8.656-7.722 17.313 0 8.657 7.722 8.657 7.722 17.313 0 8.657-7.722 8.657-7.722 17.313 0 8.657 7.722 8.657 7.722 17.313 0 8.657-7.722 8.657-7.722 17.313 0 8.657 7.722 8.657 7.722 17.313M114.826 0c0 8.657-7.722 8.657-7.722 17.31 0 8.656 7.722 8.656 7.722 17.313 0 8.656-7.722 8.656-7.722 17.313 0 8.656 7.722 8.656 7.722 17.313 0 8.656-7.722 8.656-7.722 17.313 0 8.657 7.722 8.657 7.722 17.313 0 8.657-7.722 8.657-7.722 17.313 0 8.657 7.722 8.657 7.722 17.313 0 8.657-7.722 8.657-7.722 17.313 0 8.657 7.722 8.657 7.722 17.313M122.548 0c0 8.657-7.722 8.657-7.722 17.31 0 8.656 7.722 8.656 7.722 17.313 0 8.656-7.722 8.656-7.722 17.313 0 8.656 7.722 8.656 7.722 17.313 0 8.656-7.722 8.656-7.722 17.313 0 8.657 7.722 8.657 7.722 17.313 0 8.657-7.722 8.657-7.722 17.313 0 8.657 7.722 8.657 7.722 17.313 0 8.657-7.722 8.657-7.722 17.313 0 8.657 7.722 8.657 7.722 17.313M130.269 0c0 8.657-7.721 8.657-7.721 17.31 0 8.656 7.721 8.656 7.721 17.313 0 8.656-7.721 8.656-7.721 17.313 0 8.656 7.721 8.656 7.721 17.313 0 8.656-7.721 8.656-7.721 17.313 0 8.657 7.721 8.657 7.721 17.313 0 8.657-7.721 8.657-7.721 17.313 0 8.657 7.721 8.657 7.721 17.313 0 8.657-7.721 8.657-7.721 17.313 0 8.657 7.721 8.657 7.721 17.313M137.991 0c0 8.657-7.722 8.657-7.722 17.31 0 8.656 7.722 8.656 7.722 17.313 0 8.656-7.722 8.656-7.722 17.313 0 8.656 7.722 8.656 7.722 17.313 0 8.656-7.722 8.656-7.722 17.313 0 8.657 7.722 8.657 7.722 17.313 0 8.657-7.722 8.657-7.722 17.313 0 8.657 7.722 8.657 7.722 17.313 0 8.657-7.722 8.657-7.722 17.313 0 8.657 7.722 8.657 7.722 17.313M145.713 0c0 8.657-7.722 8.657-7.722 17.31 0 8.656 7.722 8.656 7.722 17.313 0 8.656-7.722 8.656-7.722 17.313 0 8.656 7.722 8.656 7.722 17.313 0 8.656-7.722 8.656-7.722 17.313 0 8.657 7.722 8.657 7.722 17.313 0 8.657-7.722 8.657-7.722 17.313 0 8.657 7.722 8.657 7.722 17.313 0 8.657-7.722 8.657-7.722 17.313 0 8.657 7.722 8.657 7.722 17.313M153.435 0c0 8.657-7.722 8.657-7.722 17.31 0 8.656 7.722 8.656 7.722 17.313 0 8.656-7.722 8.656-7.722 17.313 0 8.656 7.722 8.656 7.722 17.313 0 8.656-7.722 8.656-7.722 17.313 0 8.657 7.722 8.657 7.722 17.313 0 8.657-7.722 8.657-7.722 17.313 0 8.657 7.722 8.657 7.722 17.313 0 8.657-7.722 8.657-7.722 17.313 0 8.657 7.722 8.657 7.722 17.313M161.156 0c0 8.657-7.721 8.657-7.721 17.31 0 8.656 7.721 8.656 7.721 17.313 0 8.656-7.721 8.656-7.721 17.313 0 8.656 7.721 8.656 7.721 17.313 0 8.656-7.721 8.656-7.721 17.313 0 8.657 7.721 8.657 7.721 17.313 0 8.657-7.721 8.657-7.721 17.313 0 8.657 7.721 8.657 7.721 17.313 0 8.657-7.721 8.657-7.721 17.313 0 8.657 7.721 8.657 7.721 17.313M168.878 0c0 8.657-7.722 8.657-7.722 17.31 0 8.656 7.722 8.656 7.722 17.313 0 8.656-7.722 8.656-7.722 17.313 0 8.656 7.722 8.656 7.722 17.313 0 8.656-7.722 8.656-7.722 17.313 0 8.657 7.722 8.657 7.722 17.313 0 8.657-7.722 8.657-7.722 17.313 0 8.657 7.722 8.657 7.722 17.313 0 8.657-7.722 8.657-7.722 17.313 0 8.657 7.722 8.657 7.722 17.313M176.6 0c0 8.657-7.722 8.657-7.722 17.31 0 8.656 7.722 8.656 7.722 17.313 0 8.656-7.722 8.656-7.722 17.313 0 8.656 7.722 8.656 7.722 17.313 0 8.656-7.722 8.656-7.722 17.313 0 8.657 7.722 8.657 7.722 17.313 0 8.657-7.722 8.657-7.722 17.313 0 8.657 7.722 8.657 7.722 17.313 0 8.657-7.722 8.657-7.722 17.313 0 8.657 7.722 8.657 7.722 17.313M184.322 0c0 8.657-7.722 8.657-7.722 17.31 0 8.656 7.722 8.656 7.722 17.313 0 8.656-7.722 8.656-7.722 17.313 0 8.656 7.722 8.656 7.722 17.313 0 8.656-7.722 8.656-7.722 17.313 0 8.657 7.722 8.657 7.722 17.313 0 8.657-7.722 8.657-7.722 17.313 0 8.657 7.722 8.657 7.722 17.313 0 8.657-7.722 8.657-7.722 17.313 0 8.657 7.722 8.657 7.722 17.313M192.043 0c0 8.657-7.721 8.657-7.721 17.31 0 8.656 7.721 8.656 7.721 17.313 0 8.656-7.721 8.656-7.721 17.313 0 8.656 7.721 8.656 7.721 17.313 0 8.656-7.721 8.656-7.721 17.313 0 8.657 7.721 8.657 7.721 17.313 0 8.657-7.721 8.657-7.721 17.313 0 8.657 7.721 8.657 7.721 17.313 0 8.657-7.721 8.657-7.721 17.313 0 8.657 7.721 8.657 7.721 17.313M199.765 0c0 8.657-7.722 8.657-7.722 17.31 0 8.656 7.722 8.656 7.722 17.313 0 8.656-7.722 8.656-7.722 17.313 0 8.656 7.722 8.656 7.722 17.313 0 8.656-7.722 8.656-7.722 17.313 0 8.657 7.722 8.657 7.722 17.313 0 8.657-7.722 8.657-7.722 17.313 0 8.657 7.722 8.657 7.722 17.313 0 8.657-7.722 8.657-7.722 17.313 0 8.657 7.722 8.657 7.722 17.313M207.487 0c0 8.657-7.722 8.657-7.722 17.31 0 8.656 7.722 8.656 7.722 17.313 0 8.656-7.722 8.656-7.722 17.313 0 8.656 7.722 8.656 7.722 17.313 0 8.656-7.722 8.656-7.722 17.313 0 8.657 7.722 8.657 7.722 17.313 0 8.657-7.722 8.657-7.722 17.313 0 8.657 7.722 8.657 7.722 17.313 0 8.657-7.722 8.657-7.722 17.313 0 8.657 7.722 8.657 7.722 17.313M215.208 0c0 8.657-7.721 8.657-7.721 17.31 0 8.656 7.721 8.656 7.721 17.313 0 8.656-7.721 8.656-7.721 17.313 0 8.656 7.721 8.656 7.721 17.313 0 8.656-7.721 8.656-7.721 17.313 0 8.657 7.721 8.657 7.721 17.313 0 8.657-7.721 8.657-7.721 17.313 0 8.657 7.721 8.657 7.721 17.313 0 8.657-7.721 8.657-7.721 17.313 0 8.657 7.721 8.657 7.721 17.313M222.93 0c0 8.657-7.722 8.657-7.722 17.31 0 8.656 7.722 8.656 7.722 17.313 0 8.656-7.722 8.656-7.722 17.313 0 8.656 7.722 8.656 7.722 17.313 0 8.656-7.722 8.656-7.722 17.313 0 8.657 7.722 8.657 7.722 17.313 0 8.657-7.722 8.657-7.722 17.313 0 8.657 7.722 8.657 7.722 17.313 0 8.657-7.722 8.657-7.722 17.313 0 8.657 7.722 8.657 7.722 17.313M230.652 0c0 8.657-7.722 8.657-7.722 17.31 0 8.656 7.722 8.656 7.722 17.313 0 8.656-7.722 8.656-7.722 17.313 0 8.656 7.722 8.656 7.722 17.313 0 8.656-7.722 8.656-7.722 17.313 0 8.657 7.722 8.657 7.722 17.313 0 8.657-7.722 8.657-7.722 17.313 0 8.657 7.722 8.657 7.722 17.313 0 8.657-7.722 8.657-7.722 17.313 0 8.657 7.722 8.657 7.722 17.313M238.374 0c0 8.657-7.722 8.657-7.722 17.31 0 8.656 7.722 8.656 7.722 17.313 0 8.656-7.722 8.656-7.722 17.313 0 8.656 7.722 8.656 7.722 17.313 0 8.656-7.722 8.656-7.722 17.313 0 8.657 7.722 8.657 7.722 17.313 0 8.657-7.722 8.657-7.722 17.313 0 8.657 7.722 8.657 7.722 17.313 0 8.657-7.722 8.657-7.722 17.313 0 8.657 7.722 8.657 7.722 17.313M246.095 0c0 8.657-7.721 8.657-7.721 17.31 0 8.656 7.721 8.656 7.721 17.313 0 8.656-7.721 8.656-7.721 17.313 0 8.656 7.721 8.656 7.721 17.313 0 8.656-7.721 8.656-7.721 17.313 0 8.657 7.721 8.657 7.721 17.313 0 8.657-7.721 8.657-7.721 17.313 0 8.657 7.721 8.657 7.721 17.313 0 8.657-7.721 8.657-7.721 17.313 0 8.657 7.721 8.657 7.721 17.313M253.817 0c0 8.657-7.722 8.657-7.722 17.31 0 8.656 7.722 8.656 7.722 17.313 0 8.656-7.722 8.656-7.722 17.313 0 8.656 7.722 8.656 7.722 17.313 0 8.656-7.722 8.656-7.722 17.313 0 8.657 7.722 8.657 7.722 17.313 0 8.657-7.722 8.657-7.722 17.313 0 8.657 7.722 8.657 7.722 17.313 0 8.657-7.722 8.657-7.722 17.313 0 8.657 7.722 8.657 7.722 17.313M261.539 0c0 8.657-7.722 8.657-7.722 17.31 0 8.656 7.722 8.656 7.722 17.313 0 8.656-7.722 8.656-7.722 17.313 0 8.656 7.722 8.656 7.722 17.313 0 8.656-7.722 8.656-7.722 17.313 0 8.657 7.722 8.657 7.722 17.313 0 8.657-7.722 8.657-7.722 17.313 0 8.657 7.722 8.657 7.722 17.313 0 8.657-7.722 8.657-7.722 17.313 0 8.657 7.722 8.657 7.722 17.313M269.261 0c0 8.657-7.722 8.657-7.722 17.31 0 8.656 7.722 8.656 7.722 17.313 0 8.656-7.722 8.656-7.722 17.313 0 8.656 7.722 8.656 7.722 17.313 0 8.656-7.722 8.656-7.722 17.313 0 8.657 7.722 8.657 7.722 17.313 0 8.657-7.722 8.657-7.722 17.313 0 8.657 7.722 8.657 7.722 17.313 0 8.657-7.722 8.657-7.722 17.313 0 8.657 7.722 8.657 7.722 17.313M276.982 0c0 8.657-7.721 8.657-7.721 17.31 0 8.656 7.721 8.656 7.721 17.313 0 8.656-7.721 8.656-7.721 17.313 0 8.656 7.721 8.656 7.721 17.313 0 8.656-7.721 8.656-7.721 17.313 0 8.657 7.721 8.657 7.721 17.313 0 8.657-7.721 8.657-7.721 17.313 0 8.657 7.721 8.657 7.721 17.313 0 8.657-7.721 8.657-7.721 17.313 0 8.657 7.721 8.657 7.721 17.313M284.704 0c0 8.657-7.722 8.657-7.722 17.31 0 8.656 7.722 8.656 7.722 17.313 0 8.656-7.722 8.656-7.722 17.313 0 8.656 7.722 8.656 7.722 17.313 0 8.656-7.722 8.656-7.722 17.313 0 8.657 7.722 8.657 7.722 17.313 0 8.657-7.722 8.657-7.722 17.313 0 8.657 7.722 8.657 7.722 17.313 0 8.657-7.722 8.657-7.722 17.313 0 8.657 7.722 8.657 7.722 17.313M292.426 0c0 8.657-7.722 8.657-7.722 17.31 0 8.656 7.722 8.656 7.722 17.313 0 8.656-7.722 8.656-7.722 17.313 0 8.656 7.722 8.656 7.722 17.313 0 8.656-7.722 8.656-7.722 17.313 0 8.657 7.722 8.657 7.722 17.313 0 8.657-7.722 8.657-7.722 17.313 0 8.657 7.722 8.657 7.722 17.313 0 8.657-7.722 8.657-7.722 17.313 0 8.657 7.722 8.657 7.722 17.313M300.148 0c0 8.657-7.722 8.657-7.722 17.31 0 8.656 7.722 8.656 7.722 17.313 0 8.656-7.722 8.656-7.722 17.313 0 8.656 7.722 8.656 7.722 17.313 0 8.656-7.722 8.656-7.722 17.313 0 8.657 7.722 8.657 7.722 17.313 0 8.657-7.722 8.657-7.722 17.313 0 8.657 7.722 8.657 7.722 17.313 0 8.657-7.722 8.657-7.722 17.313 0 8.657 7.722 8.657 7.722 17.313M307.869 0c0 8.657-7.721 8.657-7.721 17.31 0 8.656 7.721 8.656 7.721 17.313 0 8.656-7.721 8.656-7.721 17.313 0 8.656 7.721 8.656 7.721 17.313 0 8.656-7.721 8.656-7.721 17.313 0 8.657 7.721 8.657 7.721 17.313 0 8.657-7.721 8.657-7.721 17.313 0 8.657 7.721 8.657 7.721 17.313 0 8.657-7.721 8.657-7.721 17.313 0 8.657 7.721 8.657 7.721 17.313M315.591 0c0 8.657-7.722 8.657-7.722 17.31 0 8.656 7.722 8.656 7.722 17.313 0 8.656-7.722 8.656-7.722 17.313 0 8.656 7.722 8.656 7.722 17.313 0 8.656-7.722 8.656-7.722 17.313 0 8.657 7.722 8.657 7.722 17.313 0 8.657-7.722 8.657-7.722 17.313 0 8.657 7.722 8.657 7.722 17.313 0 8.657-7.722 8.657-7.722 17.313 0 8.657 7.722 8.657 7.722 17.313M323.313 0c0 8.657-7.722 8.657-7.722 17.31 0 8.656 7.722 8.656 7.722 17.313 0 8.656-7.722 8.656-7.722 17.313 0 8.656 7.722 8.656 7.722 17.313 0 8.656-7.722 8.656-7.722 17.313 0 8.657 7.722 8.657 7.722 17.313 0 8.657-7.722 8.657-7.722 17.313 0 8.657 7.722 8.657 7.722 17.313 0 8.657-7.722 8.657-7.722 17.313 0 8.657 7.722 8.657 7.722 17.313M331.034 0c0 8.657-7.721 8.657-7.721 17.31 0 8.656 7.721 8.656 7.721 17.313 0 8.656-7.721 8.656-7.721 17.313 0 8.656 7.721 8.656 7.721 17.313 0 8.656-7.721 8.656-7.721 17.313 0 8.657 7.721 8.657 7.721 17.313 0 8.657-7.721 8.657-7.721 17.313 0 8.657 7.721 8.657 7.721 17.313 0 8.657-7.721 8.657-7.721 17.313 0 8.657 7.721 8.657 7.721 17.313M338.756 0c0 8.657-7.722 8.657-7.722 17.31 0 8.656 7.722 8.656 7.722 17.313 0 8.656-7.722 8.656-7.722 17.313 0 8.656 7.722 8.656 7.722 17.313 0 8.656-7.722 8.656-7.722 17.313 0 8.657 7.722 8.657 7.722 17.313 0 8.657-7.722 8.657-7.722 17.313 0 8.657 7.722 8.657 7.722 17.313 0 8.657-7.722 8.657-7.722 17.313 0 8.657 7.722 8.657 7.722 17.313M346.478 0c0 8.657-7.722 8.657-7.722 17.31 0 8.656 7.722 8.656 7.722 17.313 0 8.656-7.722 8.656-7.722 17.313 0 8.656 7.722 8.656 7.722 17.313 0 8.656-7.722 8.656-7.722 17.313 0 8.657 7.722 8.657 7.722 17.313 0 8.657-7.722 8.657-7.722 17.313 0 8.657 7.722 8.657 7.722 17.313 0 8.657-7.722 8.657-7.722 17.313 0 8.657 7.722 8.657 7.722 17.313M354.2 0c0 8.657-7.722 8.657-7.722 17.31 0 8.656 7.722 8.656 7.722 17.313 0 8.656-7.722 8.656-7.722 17.313 0 8.656 7.722 8.656 7.722 17.313 0 8.656-7.722 8.656-7.722 17.313 0 8.657 7.722 8.657 7.722 17.313 0 8.657-7.722 8.657-7.722 17.313 0 8.657 7.722 8.657 7.722 17.313 0 8.657-7.722 8.657-7.722 17.313 0 8.657 7.722 8.657 7.722 17.313M361.921 0c0 8.657-7.721 8.657-7.721 17.31 0 8.656 7.721 8.656 7.721 17.313 0 8.656-7.721 8.656-7.721 17.313 0 8.656 7.721 8.656 7.721 17.313 0 8.656-7.721 8.656-7.721 17.313 0 8.657 7.721 8.657 7.721 17.313 0 8.657-7.721 8.657-7.721 17.313 0 8.657 7.721 8.657 7.721 17.313 0 8.657-7.721 8.657-7.721 17.313 0 8.657 7.721 8.657 7.721 17.313M369.643 0c0 8.657-7.722 8.657-7.722 17.31 0 8.656 7.722 8.656 7.722 17.313 0 8.656-7.722 8.656-7.722 17.313 0 8.656 7.722 8.656 7.722 17.313 0 8.656-7.722 8.656-7.722 17.313 0 8.657 7.722 8.657 7.722 17.313 0 8.657-7.722 8.657-7.722 17.313 0 8.657 7.722 8.657 7.722 17.313 0 8.657-7.722 8.657-7.722 17.313 0 8.657 7.722 8.657 7.722 17.313M377.365 0c0 8.657-7.722 8.657-7.722 17.31 0 8.656 7.722 8.656 7.722 17.313 0 8.656-7.722 8.656-7.722 17.313 0 8.656 7.722 8.656 7.722 17.313 0 8.656-7.722 8.656-7.722 17.313 0 8.657 7.722 8.657 7.722 17.313 0 8.657-7.722 8.657-7.722 17.313 0 8.657 7.722 8.657 7.722 17.313 0 8.657-7.722 8.657-7.722 17.313 0 8.657 7.722 8.657 7.722 17.313M385.087 0c0 8.657-7.722 8.657-7.722 17.31 0 8.656 7.722 8.656 7.722 17.313 0 8.656-7.722 8.656-7.722 17.313 0 8.656 7.722 8.656 7.722 17.313 0 8.656-7.722 8.656-7.722 17.313 0 8.657 7.722 8.657 7.722 17.313 0 8.657-7.722 8.657-7.722 17.313 0 8.657 7.722 8.657 7.722 17.313 0 8.657-7.722 8.657-7.722 17.313 0 8.657 7.722 8.657 7.722 17.313M392.808 0c0 8.657-7.721 8.657-7.721 17.31 0 8.656 7.721 8.656 7.721 17.313 0 8.656-7.721 8.656-7.721 17.313 0 8.656 7.721 8.656 7.721 17.313 0 8.656-7.721 8.656-7.721 17.313 0 8.657 7.721 8.657 7.721 17.313 0 8.657-7.721 8.657-7.721 17.313 0 8.657 7.721 8.657 7.721 17.313 0 8.657-7.721 8.657-7.721 17.313 0 8.657 7.721 8.657 7.721 17.313M400.53 0c0 8.657-7.722 8.657-7.722 17.31 0 8.656 7.722 8.656 7.722 17.313 0 8.656-7.722 8.656-7.722 17.313 0 8.656 7.722 8.656 7.722 17.313 0 8.656-7.722 8.656-7.722 17.313 0 8.657 7.722 8.657 7.722 17.313 0 8.657-7.722 8.657-7.722 17.313 0 8.657 7.722 8.657 7.722 17.313 0 8.657-7.722 8.657-7.722 17.313 0 8.657 7.722 8.657 7.722 17.313M408.252 0c0 8.657-7.722 8.657-7.722 17.31 0 8.656 7.722 8.656 7.722 17.313 0 8.656-7.722 8.656-7.722 17.313 0 8.656 7.722 8.656 7.722 17.313 0 8.656-7.722 8.656-7.722 17.313 0 8.657 7.722 8.657 7.722 17.313 0 8.657-7.722 8.657-7.722 17.313 0 8.657 7.722 8.657 7.722 17.313 0 8.657-7.722 8.657-7.722 17.313 0 8.657 7.722 8.657 7.722 17.313M415.974 0c0 8.657-7.722 8.657-7.722 17.31 0 8.656 7.722 8.656 7.722 17.313 0 8.656-7.722 8.656-7.722 17.313 0 8.656 7.722 8.656 7.722 17.313 0 8.656-7.722 8.656-7.722 17.313 0 8.657 7.722 8.657 7.722 17.313 0 8.657-7.722 8.657-7.722 17.313 0 8.657 7.722 8.657 7.722 17.313 0 8.657-7.722 8.657-7.722 17.313 0 8.657 7.722 8.657 7.722 17.313M423.695 0c0 8.657-7.721 8.657-7.721 17.31 0 8.656 7.721 8.656 7.721 17.313 0 8.656-7.721 8.656-7.721 17.313 0 8.656 7.721 8.656 7.721 17.313 0 8.656-7.721 8.656-7.721 17.313 0 8.657 7.721 8.657 7.721 17.313 0 8.657-7.721 8.657-7.721 17.313 0 8.657 7.721 8.657 7.721 17.313 0 8.657-7.721 8.657-7.721 17.313 0 8.657 7.721 8.657 7.721 17.313M431.417 0c0 8.657-7.722 8.657-7.722 17.31 0 8.656 7.722 8.656 7.722 17.313 0 8.656-7.722 8.656-7.722 17.313 0 8.656 7.722 8.656 7.722 17.313 0 8.656-7.722 8.656-7.722 17.313 0 8.657 7.722 8.657 7.722 17.313 0 8.657-7.722 8.657-7.722 17.313 0 8.657 7.722 8.657 7.722 17.313 0 8.657-7.722 8.657-7.722 17.313 0 8.657 7.722 8.657 7.722 17.313M439.139 0c0 8.657-7.722 8.657-7.722 17.31 0 8.656 7.722 8.656 7.722 17.313 0 8.656-7.722 8.656-7.722 17.313 0 8.656 7.722 8.656 7.722 17.313 0 8.656-7.722 8.656-7.722 17.313 0 8.657 7.722 8.657 7.722 17.313 0 8.657-7.722 8.657-7.722 17.313 0 8.657 7.722 8.657 7.722 17.313 0 8.657-7.722 8.657-7.722 17.313 0 8.657 7.722 8.657 7.722 17.313M446.861 0c0 8.657-7.722 8.657-7.722 17.31 0 8.656 7.722 8.656 7.722 17.313 0 8.656-7.722 8.656-7.722 17.313 0 8.656 7.722 8.656 7.722 17.313 0 8.656-7.722 8.656-7.722 17.313 0 8.657 7.722 8.657 7.722 17.313 0 8.657-7.722 8.657-7.722 17.313 0 8.657 7.722 8.657 7.722 17.313 0 8.657-7.722 8.657-7.722 17.313 0 8.657 7.722 8.657 7.722 17.313M454.582 0c0 8.657-7.721 8.657-7.721 17.31 0 8.656 7.721 8.656 7.721 17.313 0 8.656-7.721 8.656-7.721 17.313 0 8.656 7.721 8.656 7.721 17.313 0 8.656-7.721 8.656-7.721 17.313 0 8.657 7.721 8.657 7.721 17.313 0 8.657-7.721 8.657-7.721 17.313 0 8.657 7.721 8.657 7.721 17.313 0 8.657-7.721 8.657-7.721 17.313 0 8.657 7.721 8.657 7.721 17.313M462.304 0c0 8.657-7.722 8.657-7.722 17.31 0 8.656 7.722 8.656 7.722 17.313 0 8.656-7.722 8.656-7.722 17.313 0 8.656 7.722 8.656 7.722 17.313 0 8.656-7.722 8.656-7.722 17.313 0 8.657 7.722 8.657 7.722 17.313 0 8.657-7.722 8.657-7.722 17.313 0 8.657 7.722 8.657 7.722 17.313 0 8.657-7.722 8.657-7.722 17.313 0 8.657 7.722 8.657 7.722 17.313M470.026 0c0 8.657-7.722 8.657-7.722 17.31 0 8.656 7.722 8.656 7.722 17.313 0 8.656-7.722 8.656-7.722 17.313 0 8.656 7.722 8.656 7.722 17.313 0 8.656-7.722 8.656-7.722 17.313 0 8.657 7.722 8.657 7.722 17.313 0 8.657-7.722 8.657-7.722 17.313 0 8.657 7.722 8.657 7.722 17.313 0 8.657-7.722 8.657-7.722 17.313 0 8.657 7.722 8.657 7.722 17.313M477.748 0c0 8.657-7.722 8.657-7.722 17.31 0 8.656 7.722 8.656 7.722 17.313 0 8.656-7.722 8.656-7.722 17.313 0 8.656 7.722 8.656 7.722 17.313 0 8.656-7.722 8.656-7.722 17.313 0 8.657 7.722 8.657 7.722 17.313 0 8.657-7.722 8.657-7.722 17.313 0 8.657 7.722 8.657 7.722 17.313 0 8.657-7.722 8.657-7.722 17.313 0 8.657 7.722 8.657 7.722 17.313M485.469 0c0 8.657-7.721 8.657-7.721 17.31 0 8.656 7.721 8.656 7.721 17.313 0 8.656-7.721 8.656-7.721 17.313 0 8.656 7.721 8.656 7.721 17.313 0 8.656-7.721 8.656-7.721 17.313 0 8.657 7.721 8.657 7.721 17.313 0 8.657-7.721 8.657-7.721 17.313 0 8.657 7.721 8.657 7.721 17.313 0 8.657-7.721 8.657-7.721 17.313 0 8.657 7.721 8.657 7.721 17.313M493.191 0c0 8.657-7.722 8.657-7.722 17.31 0 8.656 7.722 8.656 7.722 17.313 0 8.656-7.722 8.656-7.722 17.313 0 8.656 7.722 8.656 7.722 17.313 0 8.656-7.722 8.656-7.722 17.313 0 8.657 7.722 8.657 7.722 17.313 0 8.657-7.722 8.657-7.722 17.313 0 8.657 7.722 8.657 7.722 17.313 0 8.657-7.722 8.657-7.722 17.313 0 8.657 7.722 8.657 7.722 17.313M500.913 0c0 8.657-7.722 8.657-7.722 17.31 0 8.656 7.722 8.656 7.722 17.313 0 8.656-7.722 8.656-7.722 17.313 0 8.656 7.722 8.656 7.722 17.313 0 8.656-7.722 8.656-7.722 17.313 0 8.657 7.722 8.657 7.722 17.313 0 8.657-7.722 8.657-7.722 17.313 0 8.657 7.722 8.657 7.722 17.313 0 8.657-7.722 8.657-7.722 17.313 0 8.657 7.722 8.657 7.722 17.313M508.635 0c0 8.657-7.722 8.657-7.722 17.31 0 8.656 7.722 8.656 7.722 17.313 0 8.656-7.722 8.656-7.722 17.313 0 8.656 7.722 8.656 7.722 17.313 0 8.656-7.722 8.656-7.722 17.313 0 8.657 7.722 8.657 7.722 17.313 0 8.657-7.722 8.657-7.722 17.313 0 8.657 7.722 8.657 7.722 17.313 0 8.657-7.722 8.657-7.722 17.313 0 8.657 7.722 8.657 7.722 17.313M516.356 0c0 8.657-7.721 8.657-7.721 17.31 0 8.656 7.721 8.656 7.721 17.313 0 8.656-7.721 8.656-7.721 17.313 0 8.656 7.721 8.656 7.721 17.313 0 8.656-7.721 8.656-7.721 17.313 0 8.657 7.721 8.657 7.721 17.313 0 8.657-7.721 8.657-7.721 17.313 0 8.657 7.721 8.657 7.721 17.313 0 8.657-7.721 8.657-7.721 17.313 0 8.657 7.721 8.657 7.721 17.313M524.078 0c0 8.657-7.722 8.657-7.722 17.31 0 8.656 7.722 8.656 7.722 17.313 0 8.656-7.722 8.656-7.722 17.313 0 8.656 7.722 8.656 7.722 17.313 0 8.656-7.722 8.656-7.722 17.313 0 8.657 7.722 8.657 7.722 17.313 0 8.657-7.722 8.657-7.722 17.313 0 8.657 7.722 8.657 7.722 17.313 0 8.657-7.722 8.657-7.722 17.313 0 8.657 7.722 8.657 7.722 17.313M531.8 0c0 8.657-7.722 8.657-7.722 17.31 0 8.656 7.722 8.656 7.722 17.313 0 8.656-7.722 8.656-7.722 17.313 0 8.656 7.722 8.656 7.722 17.313 0 8.656-7.722 8.656-7.722 17.313 0 8.657 7.722 8.657 7.722 17.313 0 8.657-7.722 8.657-7.722 17.313 0 8.657 7.722 8.657 7.722 17.313 0 8.657-7.722 8.657-7.722 17.313 0 8.657 7.722 8.657 7.722 17.313M539.522 0c0 8.657-7.722 8.657-7.722 17.31 0 8.656 7.722 8.656 7.722 17.313 0 8.656-7.722 8.656-7.722 17.313 0 8.656 7.722 8.656 7.722 17.313 0 8.656-7.722 8.656-7.722 17.313 0 8.657 7.722 8.657 7.722 17.313 0 8.657-7.722 8.657-7.722 17.313 0 8.657 7.722 8.657 7.722 17.313 0 8.657-7.722 8.657-7.722 17.313 0 8.657 7.722 8.657 7.722 17.313M547.243 0c0 8.657-7.721 8.657-7.721 17.31 0 8.656 7.721 8.656 7.721 17.313 0 8.656-7.721 8.656-7.721 17.313 0 8.656 7.721 8.656 7.721 17.313 0 8.656-7.721 8.656-7.721 17.313 0 8.657 7.721 8.657 7.721 17.313 0 8.657-7.721 8.657-7.721 17.313 0 8.657 7.721 8.657 7.721 17.313 0 8.657-7.721 8.657-7.721 17.313 0 8.657 7.721 8.657 7.721 17.313M554.965 0c0 8.657-7.722 8.657-7.722 17.31 0 8.656 7.722 8.656 7.722 17.313 0 8.656-7.722 8.656-7.722 17.313 0 8.656 7.722 8.656 7.722 17.313 0 8.656-7.722 8.656-7.722 17.313 0 8.657 7.722 8.657 7.722 17.313 0 8.657-7.722 8.657-7.722 17.313 0 8.657 7.722 8.657 7.722 17.313 0 8.657-7.722 8.657-7.722 17.313 0 8.657 7.722 8.657 7.722 17.313M562.687 0c0 8.657-7.722 8.657-7.722 17.31 0 8.656 7.722 8.656 7.722 17.313 0 8.656-7.722 8.656-7.722 17.313 0 8.656 7.722 8.656 7.722 17.313 0 8.656-7.722 8.656-7.722 17.313 0 8.657 7.722 8.657 7.722 17.313 0 8.657-7.722 8.657-7.722 17.313 0 8.657 7.722 8.657 7.722 17.313 0 8.657-7.722 8.657-7.722 17.313 0 8.657 7.722 8.657 7.722 17.313M570.409 0c0 8.657-7.722 8.657-7.722 17.31 0 8.656 7.722 8.656 7.722 17.313 0 8.656-7.722 8.656-7.722 17.313 0 8.656 7.722 8.656 7.722 17.313 0 8.656-7.722 8.656-7.722 17.313 0 8.657 7.722 8.657 7.722 17.313 0 8.657-7.722 8.657-7.722 17.313 0 8.657 7.722 8.657 7.722 17.313 0 8.657-7.722 8.657-7.722 17.313 0 8.657 7.722 8.657 7.722 17.313M578.13 0c0 8.657-7.721 8.657-7.721 17.31 0 8.656 7.721 8.656 7.721 17.313 0 8.656-7.721 8.656-7.721 17.313 0 8.656 7.721 8.656 7.721 17.313 0 8.656-7.721 8.656-7.721 17.313 0 8.657 7.721 8.657 7.721 17.313 0 8.657-7.721 8.657-7.721 17.313 0 8.657 7.721 8.657 7.721 17.313 0 8.657-7.721 8.657-7.721 17.313 0 8.657 7.721 8.657 7.721 17.313M585.852 0c0 8.657-7.722 8.657-7.722 17.31 0 8.656 7.722 8.656 7.722 17.313 0 8.656-7.722 8.656-7.722 17.313 0 8.656 7.722 8.656 7.722 17.313 0 8.656-7.722 8.656-7.722 17.313 0 8.657 7.722 8.657 7.722 17.313 0 8.657-7.722 8.657-7.722 17.313 0 8.657 7.722 8.657 7.722 17.313 0 8.657-7.722 8.657-7.722 17.313 0 8.657 7.722 8.657 7.722 17.313M593.574 0c0 8.657-7.722 8.657-7.722 17.31 0 8.656 7.722 8.656 7.722 17.313 0 8.656-7.722 8.656-7.722 17.313 0 8.656 7.722 8.656 7.722 17.313 0 8.656-7.722 8.656-7.722 17.313 0 8.657 7.722 8.657 7.722 17.313 0 8.657-7.722 8.657-7.722 17.313 0 8.657 7.722 8.657 7.722 17.313 0 8.657-7.722 8.657-7.722 17.313 0 8.657 7.722 8.657 7.722 17.313M601.296 0c0 8.657-7.722 8.657-7.722 17.31 0 8.656 7.722 8.656 7.722 17.313 0 8.656-7.722 8.656-7.722 17.313 0 8.656 7.722 8.656 7.722 17.313 0 8.656-7.722 8.656-7.722 17.313 0 8.657 7.722 8.657 7.722 17.313 0 8.657-7.722 8.657-7.722 17.313 0 8.657 7.722 8.657 7.722 17.313 0 8.657-7.722 8.657-7.722 17.313 0 8.657 7.722 8.657 7.722 17.313M609.017 0c0 8.657-7.721 8.657-7.721 17.31 0 8.656 7.721 8.656 7.721 17.313 0 8.656-7.721 8.656-7.721 17.313 0 8.656 7.721 8.656 7.721 17.313 0 8.656-7.721 8.656-7.721 17.313 0 8.657 7.721 8.657 7.721 17.313 0 8.657-7.721 8.657-7.721 17.313 0 8.657 7.721 8.657 7.721 17.313 0 8.657-7.721 8.657-7.721 17.313 0 8.657 7.721 8.657 7.721 17.313M616.739 0c0 8.657-7.722 8.657-7.722 17.31 0 8.656 7.722 8.656 7.722 17.313 0 8.656-7.722 8.656-7.722 17.313 0 8.656 7.722 8.656 7.722 17.313 0 8.656-7.722 8.656-7.722 17.313 0 8.657 7.722 8.657 7.722 17.313 0 8.657-7.722 8.657-7.722 17.313 0 8.657 7.722 8.657 7.722 17.313 0 8.657-7.722 8.657-7.722 17.313 0 8.657 7.722 8.657 7.722 17.313M624.461 0c0 8.657-7.722 8.657-7.722 17.31 0 8.656 7.722 8.656 7.722 17.313 0 8.656-7.722 8.656-7.722 17.313 0 8.656 7.722 8.656 7.722 17.313 0 8.656-7.722 8.656-7.722 17.313 0 8.657 7.722 8.657 7.722 17.313 0 8.657-7.722 8.657-7.722 17.313 0 8.657 7.722 8.657 7.722 17.313 0 8.657-7.722 8.657-7.722 17.313 0 8.657 7.722 8.657 7.722 17.313M632.183 0c0 8.657-7.722 8.657-7.722 17.31 0 8.656 7.722 8.656 7.722 17.313 0 8.656-7.722 8.656-7.722 17.313 0 8.656 7.722 8.656 7.722 17.313 0 8.656-7.722 8.656-7.722 17.313 0 8.657 7.722 8.657 7.722 17.313 0 8.657-7.722 8.657-7.722 17.313 0 8.657 7.722 8.657 7.722 17.313 0 8.657-7.722 8.657-7.722 17.313 0 8.657 7.722 8.657 7.722 17.313M639.904 0c0 8.657-7.721 8.657-7.721 17.31 0 8.656 7.721 8.656 7.721 17.313 0 8.656-7.721 8.656-7.721 17.313 0 8.656 7.721 8.656 7.721 17.313 0 8.656-7.721 8.656-7.721 17.313 0 8.657 7.721 8.657 7.721 17.313 0 8.657-7.721 8.657-7.721 17.313 0 8.657 7.721 8.657 7.721 17.313 0 8.657-7.721 8.657-7.721 17.313 0 8.657 7.721 8.657 7.721 17.313M647.626 0c0 8.657-7.722 8.657-7.722 17.31 0 8.656 7.722 8.656 7.722 17.313 0 8.656-7.722 8.656-7.722 17.313 0 8.656 7.722 8.656 7.722 17.313 0 8.656-7.722 8.656-7.722 17.313 0 8.657 7.722 8.657 7.722 17.313 0 8.657-7.722 8.657-7.722 17.313 0 8.657 7.722 8.657 7.722 17.313 0 8.657-7.722 8.657-7.722 17.313 0 8.657 7.722 8.657 7.722 17.313M655.348 0c0 8.657-7.722 8.657-7.722 17.31 0 8.656 7.722 8.656 7.722 17.313 0 8.656-7.722 8.656-7.722 17.313 0 8.656 7.722 8.656 7.722 17.313 0 8.656-7.722 8.656-7.722 17.313 0 8.657 7.722 8.657 7.722 17.313 0 8.657-7.722 8.657-7.722 17.313 0 8.657 7.722 8.657 7.722 17.313 0 8.657-7.722 8.657-7.722 17.313 0 8.657 7.722 8.657 7.722 17.313M663.07 0c0 8.657-7.722 8.657-7.722 17.31 0 8.656 7.722 8.656 7.722 17.313 0 8.656-7.722 8.656-7.722 17.313 0 8.656 7.722 8.656 7.722 17.313 0 8.656-7.722 8.656-7.722 17.313 0 8.657 7.722 8.657 7.722 17.313 0 8.657-7.722 8.657-7.722 17.313 0 8.657 7.722 8.657 7.722 17.313 0 8.657-7.722 8.657-7.722 17.313 0 8.657 7.722 8.657 7.722 17.313M670.791 0c0 8.657-7.721 8.657-7.721 17.31 0 8.656 7.721 8.656 7.721 17.313 0 8.656-7.721 8.656-7.721 17.313 0 8.656 7.721 8.656 7.721 17.313 0 8.656-7.721 8.656-7.721 17.313 0 8.657 7.721 8.657 7.721 17.313 0 8.657-7.721 8.657-7.721 17.313 0 8.657 7.721 8.657 7.721 17.313 0 8.657-7.721 8.657-7.721 17.313 0 8.657 7.721 8.657 7.721 17.313M678.513 0c0 8.657-7.721 8.657-7.721 17.31 0 8.656 7.721 8.656 7.721 17.313 0 8.656-7.721 8.656-7.721 17.313 0 8.656 7.721 8.656 7.721 17.313 0 8.656-7.721 8.656-7.721 17.313 0 8.657 7.721 8.657 7.721 17.313 0 8.657-7.721 8.657-7.721 17.313 0 8.657 7.721 8.657 7.721 17.313 0 8.657-7.722 8.657-7.722 17.313 0 8.657 7.722 8.657 7.722 17.313M686.235 0c0 8.657-7.722 8.657-7.722 17.31 0 8.656 7.722 8.656 7.722 17.313 0 8.656-7.722 8.656-7.722 17.313 0 8.656 7.722 8.656 7.722 17.313 0 8.656-7.722 8.656-7.722 17.313 0 8.657 7.722 8.657 7.722 17.313 0 8.657-7.722 8.657-7.722 17.313 0 8.657 7.722 8.657 7.722 17.313 0 8.657-7.722 8.657-7.722 17.313 0 8.657 7.722 8.657 7.722 17.313M693.957 0c0 8.657-7.722 8.657-7.722 17.31 0 8.656 7.722 8.656 7.722 17.313 0 8.656-7.722 8.656-7.722 17.313 0 8.656 7.722 8.656 7.722 17.313 0 8.656-7.722 8.656-7.722 17.313 0 8.657 7.722 8.657 7.722 17.313 0 8.657-7.722 8.657-7.722 17.313 0 8.657 7.722 8.657 7.722 17.313 0 8.657-7.722 8.657-7.722 17.313 0 8.657 7.722 8.657 7.722 17.313M701.678 0c0 8.657-7.721 8.657-7.721 17.31 0 8.656 7.721 8.656 7.721 17.313 0 8.656-7.721 8.656-7.721 17.313 0 8.656 7.721 8.656 7.721 17.313 0 8.656-7.721 8.656-7.721 17.313 0 8.657 7.721 8.657 7.721 17.313 0 8.657-7.721 8.657-7.721 17.313 0 8.657 7.721 8.657 7.721 17.313 0 8.657-7.721 8.657-7.721 17.313 0 8.657 7.721 8.657 7.721 17.313M709.4 0c0 8.657-7.721 8.657-7.721 17.31 0 8.656 7.721 8.656 7.721 17.313 0 8.656-7.721 8.656-7.721 17.313 0 8.656 7.721 8.656 7.721 17.313 0 8.656-7.721 8.656-7.721 17.313 0 8.657 7.721 8.657 7.721 17.313 0 8.657-7.721 8.657-7.721 17.313 0 8.657 7.721 8.657 7.721 17.313 0 8.657-7.722 8.657-7.722 17.313 0 8.657 7.722 8.657 7.722 17.313M717.122 0c0 8.657-7.722 8.657-7.722 17.31 0 8.656 7.722 8.656 7.722 17.313 0 8.656-7.722 8.656-7.722 17.313 0 8.656 7.722 8.656 7.722 17.313 0 8.656-7.722 8.656-7.722 17.313 0 8.657 7.722 8.657 7.722 17.313 0 8.657-7.722 8.657-7.722 17.313 0 8.657 7.722 8.657 7.722 17.313 0 8.657-7.722 8.657-7.722 17.313 0 8.657 7.722 8.657 7.722 17.313M724.844 0c0 8.657-7.722 8.657-7.722 17.31 0 8.656 7.722 8.656 7.722 17.313 0 8.656-7.722 8.656-7.722 17.313 0 8.656 7.722 8.656 7.722 17.313 0 8.656-7.722 8.656-7.722 17.313 0 8.657 7.722 8.657 7.722 17.313 0 8.657-7.722 8.657-7.722 17.313 0 8.657 7.722 8.657 7.722 17.313 0 8.657-7.722 8.657-7.722 17.313 0 8.657 7.722 8.657 7.722 17.313M732.565 0c0 8.657-7.721 8.657-7.721 17.31 0 8.656 7.721 8.656 7.721 17.313 0 8.656-7.721 8.656-7.721 17.313 0 8.656 7.721 8.656 7.721 17.313 0 8.656-7.721 8.656-7.721 17.313 0 8.657 7.721 8.657 7.721 17.313 0 8.657-7.721 8.657-7.721 17.313 0 8.657 7.721 8.657 7.721 17.313 0 8.657-7.721 8.657-7.721 17.313 0 8.657 7.721 8.657 7.721 17.313M740.287 0c0 8.657-7.721 8.657-7.721 17.31 0 8.656 7.721 8.656 7.721 17.313 0 8.656-7.721 8.656-7.721 17.313 0 8.656 7.721 8.656 7.721 17.313 0 8.656-7.721 8.656-7.721 17.313 0 8.657 7.721 8.657 7.721 17.313 0 8.657-7.721 8.657-7.721 17.313 0 8.657 7.721 8.657 7.721 17.313 0 8.657-7.722 8.657-7.722 17.313 0 8.657 7.722 8.657 7.722 17.313M748.009 0c0 8.657-7.722 8.657-7.722 17.31 0 8.656 7.722 8.656 7.722 17.313 0 8.656-7.722 8.656-7.722 17.313 0 8.656 7.722 8.656 7.722 17.313 0 8.656-7.722 8.656-7.722 17.313 0 8.657 7.722 8.657 7.722 17.313 0 8.657-7.722 8.657-7.722 17.313 0 8.657 7.722 8.657 7.722 17.313 0 8.657-7.722 8.657-7.722 17.313 0 8.657 7.722 8.657 7.722 17.313M755.731 0c0 8.657-7.722 8.657-7.722 17.31 0 8.656 7.722 8.656 7.722 17.313 0 8.656-7.722 8.656-7.722 17.313 0 8.656 7.722 8.656 7.722 17.313 0 8.656-7.722 8.656-7.722 17.313 0 8.657 7.722 8.657 7.722 17.313 0 8.657-7.722 8.657-7.722 17.313 0 8.657 7.722 8.657 7.722 17.313 0 8.657-7.722 8.657-7.722 17.313 0 8.657 7.722 8.657 7.722 17.313M763.453 0c0 8.657-7.722 8.657-7.722 17.31 0 8.656 7.722 8.656 7.722 17.313 0 8.656-7.722 8.656-7.722 17.313 0 8.656 7.722 8.656 7.722 17.313 0 8.656-7.722 8.656-7.722 17.313 0 8.657 7.722 8.657 7.722 17.313 0 8.657-7.722 8.657-7.722 17.313 0 8.657 7.722 8.657 7.722 17.313 0 8.657-7.722 8.657-7.722 17.313 0 8.657 7.722 8.657 7.722 17.313M771.174 0c0 8.657-7.721 8.657-7.721 17.31 0 8.656 7.721 8.656 7.721 17.313 0 8.656-7.721 8.656-7.721 17.313 0 8.656 7.721 8.656 7.721 17.313 0 8.656-7.721 8.656-7.721 17.313 0 8.657 7.721 8.657 7.721 17.313 0 8.657-7.721 8.657-7.721 17.313 0 8.657 7.721 8.657 7.721 17.313 0 8.657-7.721 8.657-7.721 17.313 0 8.657 7.721 8.657 7.721 17.313M778.896 0c0 8.657-7.722 8.657-7.722 17.31 0 8.656 7.722 8.656 7.722 17.313 0 8.656-7.722 8.656-7.722 17.313 0 8.656 7.722 8.656 7.722 17.313 0 8.656-7.722 8.656-7.722 17.313 0 8.657 7.722 8.657 7.722 17.313 0 8.657-7.722 8.657-7.722 17.313 0 8.657 7.722 8.657 7.722 17.313 0 8.657-7.722 8.657-7.722 17.313 0 8.657 7.722 8.657 7.722 17.313M786.618 0c0 8.657-7.722 8.657-7.722 17.31 0 8.656 7.722 8.656 7.722 17.313 0 8.656-7.722 8.656-7.722 17.313 0 8.656 7.722 8.656 7.722 17.313 0 8.656-7.722 8.656-7.722 17.313 0 8.657 7.722 8.657 7.722 17.313 0 8.657-7.722 8.657-7.722 17.313 0 8.657 7.722 8.657 7.722 17.313 0 8.657-7.722 8.657-7.722 17.313 0 8.657 7.722 8.657 7.722 17.313M794.34 0c0 8.657-7.722 8.657-7.722 17.31 0 8.656 7.722 8.656 7.722 17.313 0 8.656-7.722 8.656-7.722 17.313 0 8.656 7.722 8.656 7.722 17.313 0 8.656-7.722 8.656-7.722 17.313 0 8.657 7.722 8.657 7.722 17.313 0 8.657-7.722 8.657-7.722 17.313 0 8.657 7.722 8.657 7.722 17.313 0 8.657-7.722 8.657-7.722 17.313 0 8.657 7.722 8.657 7.722 17.313M802.061 0c0 8.657-7.721 8.657-7.721 17.31 0 8.656 7.721 8.656 7.721 17.313 0 8.656-7.721 8.656-7.721 17.313 0 8.656 7.721 8.656 7.721 17.313 0 8.656-7.721 8.656-7.721 17.313 0 8.657 7.721 8.657 7.721 17.313 0 8.657-7.721 8.657-7.721 17.313 0 8.657 7.721 8.657 7.721 17.313 0 8.657-7.721 8.657-7.721 17.313 0 8.657 7.721 8.657 7.721 17.313M809.783 0c0 8.657-7.722 8.657-7.722 17.31 0 8.656 7.722 8.656 7.722 17.313 0 8.656-7.722 8.656-7.722 17.313 0 8.656 7.722 8.656 7.722 17.313 0 8.656-7.722 8.656-7.722 17.313 0 8.657 7.722 8.657 7.722 17.313 0 8.657-7.722 8.657-7.722 17.313 0 8.657 7.722 8.657 7.722 17.313 0 8.657-7.722 8.657-7.722 17.313 0 8.657 7.722 8.657 7.722 17.313M817.505 0c0 8.657-7.722 8.657-7.722 17.31 0 8.656 7.722 8.656 7.722 17.313 0 8.656-7.722 8.656-7.722 17.313 0 8.656 7.722 8.656 7.722 17.313 0 8.656-7.722 8.656-7.722 17.313 0 8.657 7.722 8.657 7.722 17.313 0 8.657-7.722 8.657-7.722 17.313 0 8.657 7.722 8.657 7.722 17.313 0 8.657-7.722 8.657-7.722 17.313 0 8.657 7.722 8.657 7.722 17.313M825.226 0c0 8.657-7.721 8.657-7.721 17.31 0 8.656 7.721 8.656 7.721 17.313 0 8.656-7.721 8.656-7.721 17.313 0 8.656 7.721 8.656 7.721 17.313 0 8.656-7.721 8.656-7.721 17.313 0 8.657 7.721 8.657 7.721 17.313 0 8.657-7.721 8.657-7.721 17.313 0 8.657 7.721 8.657 7.721 17.313 0 8.657-7.721 8.657-7.721 17.313 0 8.657 7.721 8.657 7.721 17.313M832.948 0c0 8.657-7.722 8.657-7.722 17.31 0 8.656 7.722 8.656 7.722 17.313 0 8.656-7.722 8.656-7.722 17.313 0 8.656 7.722 8.656 7.722 17.313 0 8.656-7.722 8.656-7.722 17.313 0 8.657 7.722 8.657 7.722 17.313 0 8.657-7.722 8.657-7.722 17.313 0 8.657 7.722 8.657 7.722 17.313 0 8.657-7.722 8.657-7.722 17.313 0 8.657 7.722 8.657 7.722 17.313M840.67 0c0 8.657-7.722 8.657-7.722 17.31 0 8.656 7.722 8.656 7.722 17.313 0 8.656-7.722 8.656-7.722 17.313 0 8.656 7.722 8.656 7.722 17.313 0 8.656-7.722 8.656-7.722 17.313 0 8.657 7.722 8.657 7.722 17.313 0 8.657-7.722 8.657-7.722 17.313 0 8.657 7.722 8.657 7.722 17.313 0 8.657-7.722 8.657-7.722 17.313 0 8.657 7.722 8.657 7.722 17.313M848.392 0c0 8.657-7.722 8.657-7.722 17.31 0 8.656 7.722 8.656 7.722 17.313 0 8.656-7.722 8.656-7.722 17.313 0 8.656 7.722 8.656 7.722 17.313 0 8.656-7.722 8.656-7.722 17.313 0 8.657 7.722 8.657 7.722 17.313 0 8.657-7.722 8.657-7.722 17.313 0 8.657 7.722 8.657 7.722 17.313 0 8.657-7.722 8.657-7.722 17.313 0 8.657 7.722 8.657 7.722 17.313M856.113 0c0 8.657-7.721 8.657-7.721 17.31 0 8.656 7.721 8.656 7.721 17.313 0 8.656-7.721 8.656-7.721 17.313 0 8.656 7.721 8.656 7.721 17.313 0 8.656-7.721 8.656-7.721 17.313 0 8.657 7.721 8.657 7.721 17.313 0 8.657-7.721 8.657-7.721 17.313 0 8.657 7.721 8.657 7.721 17.313 0 8.657-7.721 8.657-7.721 17.313 0 8.657 7.721 8.657 7.721 17.313M863.835 0c0 8.657-7.722 8.657-7.722 17.31 0 8.656 7.722 8.656 7.722 17.313 0 8.656-7.722 8.656-7.722 17.313 0 8.656 7.722 8.656 7.722 17.313 0 8.656-7.722 8.656-7.722 17.313 0 8.657 7.722 8.657 7.722 17.313 0 8.657-7.722 8.657-7.722 17.313 0 8.657 7.722 8.657 7.722 17.313 0 8.657-7.722 8.657-7.722 17.313 0 8.657 7.722 8.657 7.722 17.313M871.557 0c0 8.657-7.722 8.657-7.722 17.31 0 8.656 7.722 8.656 7.722 17.313 0 8.656-7.722 8.656-7.722 17.313 0 8.656 7.722 8.656 7.722 17.313 0 8.656-7.722 8.656-7.722 17.313 0 8.657 7.722 8.657 7.722 17.313 0 8.657-7.722 8.657-7.722 17.313 0 8.657 7.722 8.657 7.722 17.313 0 8.657-7.722 8.657-7.722 17.313 0 8.657 7.722 8.657 7.722 17.313M879.278 0c0 8.657-7.721 8.657-7.721 17.31 0 8.656 7.721 8.656 7.721 17.313 0 8.656-7.721 8.656-7.721 17.313 0 8.656 7.721 8.656 7.721 17.313 0 8.656-7.721 8.656-7.721 17.313 0 8.657 7.721 8.657 7.721 17.313 0 8.657-7.721 8.657-7.721 17.313 0 8.657 7.721 8.657 7.721 17.313 0 8.657-7.721 8.657-7.721 17.313 0 8.657 7.721 8.657 7.721 17.313M887 0c0 8.657-7.722 8.657-7.722 17.31 0 8.656 7.722 8.656 7.722 17.313 0 8.656-7.722 8.656-7.722 17.313 0 8.656 7.722 8.656 7.722 17.313 0 8.656-7.722 8.656-7.722 17.313 0 8.657 7.722 8.657 7.722 17.313 0 8.657-7.722 8.657-7.722 17.313 0 8.657 7.722 8.657 7.722 17.313 0 8.657-7.722 8.657-7.722 17.313 0 8.657 7.722 8.657 7.722 17.313" stroke="#191816" stroke-miterlimit="10"/></svg>