<svg width="513" height="608" fill="none" xmlns="http://www.w3.org/2000/svg"><path d="M-11.392 0c0 30.4-22.747 30.4-22.747 60.79 0 30.4 22.747 30.4 22.747 60.8 0 30.401-22.747 30.401-22.747 60.802 0 30.4 22.747 30.4 22.747 60.801 0 30.4-22.747 30.4-22.747 60.801 0 30.401 22.747 30.401 22.747 60.801 0 30.401-22.747 30.401-22.747 60.801 0 30.401 22.747 30.401 22.747 60.802 0 30.4-22.748 30.4-22.748 60.801 0 30.4 22.748 30.4 22.748 60.801M11.356 0c0 30.4-22.748 30.4-22.748 60.79 0 30.4 22.748 30.4 22.748 60.8 0 30.401-22.748 30.401-22.748 60.802 0 30.4 22.748 30.4 22.748 60.801 0 30.4-22.748 30.4-22.748 60.801 0 30.401 22.748 30.401 22.748 60.801 0 30.401-22.748 30.401-22.748 60.801 0 30.401 22.748 30.401 22.748 60.802 0 30.4-22.748 30.4-22.748 60.801 0 30.4 22.748 30.4 22.748 60.801M34.104 0c0 30.4-22.748 30.4-22.748 60.79 0 30.4 22.748 30.4 22.748 60.8 0 30.401-22.748 30.401-22.748 60.802 0 30.4 22.748 30.4 22.748 60.801 0 30.4-22.748 30.4-22.748 60.801 0 30.401 22.748 30.401 22.748 60.801 0 30.401-22.748 30.401-22.748 60.801 0 30.401 22.748 30.401 22.748 60.802 0 30.4-22.748 30.4-22.748 60.801 0 30.4 22.748 30.4 22.748 60.801M56.852 0c0 30.4-22.748 30.4-22.748 60.79 0 30.4 22.748 30.4 22.748 60.8 0 30.401-22.748 30.401-22.748 60.802 0 30.4 22.748 30.4 22.748 60.801 0 30.4-22.748 30.4-22.748 60.801 0 30.401 22.748 30.401 22.748 60.801 0 30.401-22.748 30.401-22.748 60.801 0 30.401 22.748 30.401 22.748 60.802 0 30.4-22.748 30.4-22.748 60.801 0 30.4 22.748 30.4 22.748 60.801M79.6 0c0 30.4-22.748 30.4-22.748 60.79 0 30.4 22.748 30.4 22.748 60.8 0 30.401-22.748 30.401-22.748 60.802 0 30.4 22.748 30.4 22.748 60.801 0 30.4-22.748 30.4-22.748 60.801 0 30.401 22.748 30.401 22.748 60.801 0 30.401-22.748 30.401-22.748 60.801 0 30.401 22.748 30.401 22.748 60.802 0 30.4-22.748 30.4-22.748 60.801 0 30.4 22.748 30.4 22.748 60.801M102.348 0c0 30.4-22.748 30.4-22.748 60.79 0 30.4 22.748 30.4 22.748 60.8 0 30.401-22.748 30.401-22.748 60.802 0 30.4 22.748 30.4 22.748 60.801 0 30.4-22.748 30.4-22.748 60.801 0 30.401 22.748 30.401 22.748 60.801 0 30.401-22.748 30.401-22.748 60.801 0 30.401 22.748 30.401 22.748 60.802 0 30.4-22.748 30.4-22.748 60.801 0 30.4 22.748 30.4 22.748 60.801M125.095 0c0 30.4-22.747 30.4-22.747 60.79 0 30.4 22.747 30.4 22.747 60.8 0 30.401-22.747 30.401-22.747 60.802 0 30.4 22.747 30.4 22.747 60.801 0 30.4-22.747 30.4-22.747 60.801 0 30.401 22.747 30.401 22.747 60.801 0 30.401-22.747 30.401-22.747 60.801 0 30.401 22.747 30.401 22.747 60.802 0 30.4-22.747 30.4-22.747 60.801 0 30.4 22.747 30.4 22.747 60.801M147.843 0c0 30.4-22.747 30.4-22.747 60.79 0 30.4 22.747 30.4 22.747 60.8 0 30.401-22.747 30.401-22.747 60.802 0 30.4 22.747 30.4 22.747 60.801 0 30.4-22.747 30.4-22.747 60.801 0 30.401 22.747 30.401 22.747 60.801 0 30.401-22.747 30.401-22.747 60.801 0 30.401 22.747 30.401 22.747 60.802 0 30.4-22.748 30.4-22.748 60.801 0 30.4 22.748 30.4 22.748 60.801M170.591 0c0 30.4-22.747 30.4-22.747 60.79 0 30.4 22.747 30.4 22.747 60.8 0 30.401-22.747 30.401-22.747 60.802 0 30.4 22.747 30.4 22.747 60.801 0 30.4-22.747 30.4-22.747 60.801 0 30.401 22.747 30.401 22.747 60.801 0 30.401-22.747 30.401-22.747 60.801 0 30.401 22.747 30.401 22.747 60.802 0 30.4-22.748 30.4-22.748 60.801 0 30.4 22.748 30.4 22.748 60.801M193.339 0c0 30.4-22.748 30.4-22.748 60.79 0 30.4 22.748 30.4 22.748 60.8 0 30.401-22.748 30.401-22.748 60.802 0 30.4 22.748 30.4 22.748 60.801 0 30.4-22.748 30.4-22.748 60.801 0 30.401 22.748 30.401 22.748 60.801 0 30.401-22.748 30.401-22.748 60.801 0 30.401 22.748 30.401 22.748 60.802 0 30.4-22.748 30.4-22.748 60.801 0 30.4 22.748 30.4 22.748 60.801M216.087 0c0 30.4-22.748 30.4-22.748 60.79 0 30.4 22.748 30.4 22.748 60.8 0 30.401-22.748 30.401-22.748 60.802 0 30.4 22.748 30.4 22.748 60.801 0 30.4-22.748 30.4-22.748 60.801 0 30.401 22.748 30.401 22.748 60.801 0 30.401-22.748 30.401-22.748 60.801 0 30.401 22.748 30.401 22.748 60.802 0 30.4-22.748 30.4-22.748 60.801 0 30.4 22.748 30.4 22.748 60.801M238.835 0c0 30.4-22.748 30.4-22.748 60.79 0 30.4 22.748 30.4 22.748 60.8 0 30.401-22.748 30.401-22.748 60.802 0 30.4 22.748 30.4 22.748 60.801 0 30.4-22.748 30.4-22.748 60.801 0 30.401 22.748 30.401 22.748 60.801 0 30.401-22.748 30.401-22.748 60.801 0 30.401 22.748 30.401 22.748 60.802 0 30.4-22.748 30.4-22.748 60.801 0 30.4 22.748 30.4 22.748 60.801M261.583 0c0 30.4-22.748 30.4-22.748 60.79 0 30.4 22.748 30.4 22.748 60.8 0 30.401-22.748 30.401-22.748 60.802 0 30.4 22.748 30.4 22.748 60.801 0 30.4-22.748 30.4-22.748 60.801 0 30.401 22.748 30.401 22.748 60.801 0 30.401-22.748 30.401-22.748 60.801 0 30.401 22.748 30.401 22.748 60.802 0 30.4-22.748 30.4-22.748 60.801 0 30.4 22.748 30.4 22.748 60.801M284.33 0c0 30.4-22.747 30.4-22.747 60.79 0 30.4 22.747 30.4 22.747 60.8 0 30.401-22.747 30.401-22.747 60.802 0 30.4 22.747 30.4 22.747 60.801 0 30.4-22.747 30.4-22.747 60.801 0 30.401 22.747 30.401 22.747 60.801 0 30.401-22.747 30.401-22.747 60.801 0 30.401 22.747 30.401 22.747 60.802 0 30.4-22.747 30.4-22.747 60.801 0 30.4 22.747 30.4 22.747 60.801M307.078 0c0 30.4-22.747 30.4-22.747 60.79 0 30.4 22.747 30.4 22.747 60.8 0 30.401-22.747 30.401-22.747 60.802 0 30.4 22.747 30.4 22.747 60.801 0 30.4-22.747 30.4-22.747 60.801 0 30.401 22.747 30.401 22.747 60.801 0 30.401-22.747 30.401-22.747 60.801 0 30.401 22.747 30.401 22.747 60.802 0 30.4-22.748 30.4-22.748 60.801 0 30.4 22.748 30.4 22.748 60.801M329.826 0c0 30.4-22.748 30.4-22.748 60.79 0 30.4 22.748 30.4 22.748 60.8 0 30.401-22.748 30.401-22.748 60.802 0 30.4 22.748 30.4 22.748 60.801 0 30.4-22.748 30.4-22.748 60.801 0 30.401 22.748 30.401 22.748 60.801 0 30.401-22.748 30.401-22.748 60.801 0 30.401 22.748 30.401 22.748 60.802 0 30.4-22.748 30.4-22.748 60.801 0 30.4 22.748 30.4 22.748 60.801M352.574 0c0 30.4-22.748 30.4-22.748 60.79 0 30.4 22.748 30.4 22.748 60.8 0 30.401-22.748 30.401-22.748 60.802 0 30.4 22.748 30.4 22.748 60.801 0 30.4-22.748 30.4-22.748 60.801 0 30.401 22.748 30.401 22.748 60.801 0 30.401-22.748 30.401-22.748 60.801 0 30.401 22.748 30.401 22.748 60.802 0 30.4-22.748 30.4-22.748 60.801 0 30.4 22.748 30.4 22.748 60.801M375.322 0c0 30.4-22.748 30.4-22.748 60.79 0 30.4 22.748 30.4 22.748 60.8 0 30.401-22.748 30.401-22.748 60.802 0 30.4 22.748 30.4 22.748 60.801 0 30.4-22.748 30.4-22.748 60.801 0 30.401 22.748 30.401 22.748 60.801 0 30.401-22.748 30.401-22.748 60.801 0 30.401 22.748 30.401 22.748 60.802 0 30.4-22.748 30.4-22.748 60.801 0 30.4 22.748 30.4 22.748 60.801M398.07 0c0 30.4-22.748 30.4-22.748 60.79 0 30.4 22.748 30.4 22.748 60.8 0 30.401-22.748 30.401-22.748 60.802 0 30.4 22.748 30.4 22.748 60.801 0 30.4-22.748 30.4-22.748 60.801 0 30.401 22.748 30.401 22.748 60.801 0 30.401-22.748 30.401-22.748 60.801 0 30.401 22.748 30.401 22.748 60.802 0 30.4-22.748 30.4-22.748 60.801 0 30.4 22.748 30.4 22.748 60.801M420.818 0c0 30.4-22.748 30.4-22.748 60.79 0 30.4 22.748 30.4 22.748 60.8 0 30.401-22.748 30.401-22.748 60.802 0 30.4 22.748 30.4 22.748 60.801 0 30.4-22.748 30.4-22.748 60.801 0 30.401 22.748 30.401 22.748 60.801 0 30.401-22.748 30.401-22.748 60.801 0 30.401 22.748 30.401 22.748 60.802 0 30.4-22.748 30.4-22.748 60.801 0 30.4 22.748 30.4 22.748 60.801M443.566 0c0 30.4-22.748 30.4-22.748 60.79 0 30.4 22.748 30.4 22.748 60.8 0 30.401-22.748 30.401-22.748 60.802 0 30.4 22.748 30.4 22.748 60.801 0 30.4-22.748 30.4-22.748 60.801 0 30.401 22.748 30.401 22.748 60.801 0 30.401-22.748 30.401-22.748 60.801 0 30.401 22.748 30.401 22.748 60.802 0 30.4-22.748 30.4-22.748 60.801 0 30.4 22.748 30.4 22.748 60.801M466.313 0c0 30.4-22.747 30.4-22.747 60.79 0 30.4 22.747 30.4 22.747 60.8 0 30.401-22.747 30.401-22.747 60.802 0 30.4 22.747 30.4 22.747 60.801 0 30.4-22.747 30.4-22.747 60.801 0 30.401 22.747 30.401 22.747 60.801 0 30.401-22.747 30.401-22.747 60.801 0 30.401 22.747 30.401 22.747 60.802 0 30.4-22.747 30.4-22.747 60.801 0 30.4 22.747 30.4 22.747 60.801M489.061 0c0 30.4-22.747 30.4-22.747 60.79 0 30.4 22.747 30.4 22.747 60.8 0 30.401-22.747 30.401-22.747 60.802 0 30.4 22.747 30.4 22.747 60.801 0 30.4-22.747 30.4-22.747 60.801 0 30.401 22.747 30.401 22.747 60.801 0 30.401-22.747 30.401-22.747 60.801 0 30.401 22.747 30.401 22.747 60.802 0 30.4-22.748 30.4-22.748 60.801 0 30.4 22.748 30.4 22.748 60.801M511.809 0c0 30.4-22.748 30.4-22.748 60.79 0 30.4 22.748 30.4 22.748 60.8 0 30.401-22.748 30.401-22.748 60.802 0 30.4 22.748 30.4 22.748 60.801 0 30.4-22.748 30.4-22.748 60.801 0 30.401 22.748 30.401 22.748 60.801 0 30.401-22.748 30.401-22.748 60.801 0 30.401 22.748 30.401 22.748 60.802 0 30.4-22.748 30.4-22.748 60.801 0 30.4 22.748 30.4 22.748 60.801" stroke="#191816" stroke-width="1.024" stroke-miterlimit="10"/></svg>