<svg width="36" height="36" fill="none" xmlns="http://www.w3.org/2000/svg"><path d="M20.377 14.077H16.91V10.61c0-.794-.64-1.434-1.434-1.434-.795 0-1.435.64-1.435 1.434v3.467h-3.466a1.43 1.43 0 00-1.434 1.434c0 .794.64 1.434 1.434 1.434h3.466v3.467c0 .794.64 1.434 1.435 1.434.794 0 1.434-.64 1.434-1.434v-3.467h3.467a1.435 1.435 0 000-2.868z" fill="#fff"/><path d="M15.483 27.33c-6.532 0-11.827-5.287-11.827-11.82 0-6.531 5.295-11.819 11.827-11.819s11.82 5.295 11.82 11.82-5.295 11.82-11.82 11.82zm19.322 5.485l-7.967-7.967a14.656 14.656 0 003.347-9.337C30.185 7.39 23.604.8 15.475.8 7.349.802.774 7.39.774 15.512s6.582 14.71 14.71 14.71a14.63 14.63 0 009.33-3.34l7.967 7.966c.365.372 1.483.555 2.032 0a1.44 1.44 0 00-.007-2.032z" fill="#fff"/></svg>