<svg width="86" height="74" fill="none" xmlns="http://www.w3.org/2000/svg"><path d="M62.294 31.423c-4.41 0-7.901-1.47-10.474-4.41-2.756-2.757-4.134-6.432-4.134-11.026 0-4.962 1.654-8.912 4.961-11.853C55.771 1.378 60.09 0 65.602 0c6.432 0 11.485 2.48 15.16 7.442C84.254 12.404 86 19.478 86 28.666c0 8.27-1.837 15.896-5.512 22.878-3.675 7.167-9.188 14.334-16.539 21.5-.183.184-.459.276-.827.276-.55 0-1.01-.276-1.378-.827-.367-.551-.367-1.01 0-1.378 9.005-9.188 13.507-20.03 13.507-32.526 0-5.145-.92-8.912-2.757-11.3-1.654 2.755-5.053 4.134-10.198 4.134zm-47.685 0c-4.41 0-7.902-1.47-10.474-4.41C1.378 24.255 0 20.58 0 15.986c0-4.962 1.654-8.912 4.962-11.853C8.086 1.378 12.404 0 17.917 0c6.431 0 11.485 2.48 15.16 7.442 3.491 4.962 5.237 12.036 5.237 21.224 0 8.27-1.838 15.896-5.513 22.878-3.675 7.167-9.188 14.334-16.538 21.5-.184.184-.46.276-.827.276-.551 0-1.01-.276-1.378-.827-.368-.551-.368-1.01 0-1.378 9.004-9.188 13.506-20.03 13.506-32.526 0-5.145-.919-8.912-2.756-11.3-1.654 2.755-5.054 4.134-10.199 4.134z" fill="#727272" fill-opacity=".16"/></svg>